<?xml version="1.0" encoding="UTF-8" standalone="no"?>
<!-- Created with Inkscape (http://www.inkscape.org/) -->

<svg
   version="1.1"
   id="svg390"
   width="41.119999"
   height="29.6"
   viewBox="0 0 41.119999 29.6"
   sodipodi:docname="scontrino_1-5.svg"
   inkscape:version="1.2.2 (b0a84865, 2022-12-01)"
   xmlns:inkscape="http://www.inkscape.org/namespaces/inkscape"
   xmlns:sodipodi="http://sodipodi.sourceforge.net/DTD/sodipodi-0.dtd"
   xmlns="http://www.w3.org/2000/svg"
   xmlns:svg="http://www.w3.org/2000/svg">
  <defs
     id="defs394" />
  <sodipodi:namedview
     id="namedview392"
     pagecolor="#ffffff"
     bordercolor="#666666"
     borderopacity="1.0"
     inkscape:showpageshadow="2"
     inkscape:pageopacity="0.0"
     inkscape:pagecheckerboard="0"
     inkscape:deskcolor="#d1d1d1"
     showgrid="false"
     inkscape:zoom="47.118971"
     inkscape:cx="26.082913"
     inkscape:cy="14.951515"
     inkscape:window-width="1196"
     inkscape:window-height="625"
     inkscape:window-x="0"
     inkscape:window-y="25"
     inkscape:window-maximized="0"
     inkscape:current-layer="g396" />
  <g
     inkscape:groupmode="layer"
     inkscape:label="Image"
     id="g396">
    <path
       style="fill:#000000;stroke-width:0.16"
       d="m 8.6195801,19.56 c -0.01123,-0.066 -0.036931,-0.27221 -0.057111,-0.458243 -0.02018,-0.186034 -0.09877,-0.438034 -0.1746437,-0.56 C 8.3119518,18.41979 8.2690849,18.171122 8.2925659,17.989158 8.3221675,17.759765 8.1984897,17.596002 7.8892278,17.455091 7.4799569,17.268616 7.4661416,17.23509 7.7215984,17.048294 c 0.3237596,-0.236739 0.3679889,-0.563443 0.078401,-0.579123 -0.11,-0.006 -0.0422,-0.08708 0.1506661,-0.180285 0.4549216,-0.219838 0.5234557,-0.425689 0.4138313,-1.243 C 8.3093428,14.634684 8.1740332,14.335556 8.0170791,14.277854 7.66919,14.149956 7.5253738,13.912999 7.5224495,13.462882 c -0.00168,-0.258835 0.068111,-0.350042 0.222517,-0.29079 0.3890484,0.149292 0.6911023,-0.408343 0.7178153,-1.32519 0.014216,-0.487904 0.1118608,-0.928003 0.2213278,-0.99755 0.2735243,-0.173775 0.6338826,-0.160268 0.5227226,0.01959 -0.050629,0.08192 -0.018878,0.194169 0.070557,0.249443 0.089436,0.05527 0.1626099,0.316983 0.1626099,0.581574 0,0.687711 0.2830073,1.169923 0.5544211,0.944669 0.2081228,-0.172727 0.4567508,-1.052868 0.4758858,-1.68463 0.01064,-0.351369 0.08292,-0.4 0.594491,-0.4 0.334663,0 0.336286,0.0094 0.0552,0.32 -0.159278,0.176 -0.224437,0.320455 -0.144798,0.321012 0.07964,5.6e-4 0.267449,0.216556 0.417356,0.48 0.149907,0.263443 0.376204,0.478988 0.502882,0.478988 0.430968,0 0.451518,0.514352 0.0378,0.946178 -0.509741,0.532055 -0.708673,1.622242 -0.350292,1.919672 0.13944,0.115725 0.21407,0.27425 0.165845,0.352279 -0.04822,0.07803 0.02683,0.141871 0.166784,0.141871 0.139955,0 0.293748,0.102374 0.341763,0.227497 C 12.375151,16.054504 12.045194,16.64 11.75437,16.64 c -0.128904,0 -0.239777,0.054 -0.246385,0.12 -0.0066,0.066 -0.03312,0.516 -0.05891,1 -0.02579,0.484 -0.127859,1.081298 -0.226811,1.327326 -0.176339,0.438442 -0.186244,0.441429 -0.498657,0.150372 -0.1808,-0.16844 -0.345964,-0.569764 -0.381639,-0.927327 C 10.25572,17.445981 10.071867,16.8 9.9120972,16.8 c -0.2788971,0 -0.3818112,0.434486 -0.3329586,1.405698 0.031448,0.625196 -0.022984,1.094344 -0.143867,1.24 C 9.2333291,19.689022 8.6553179,19.770019 8.6195801,19.56 Z M 10.174109,13.979072 C 10.127873,13.858582 10.020635,13.76 9.9358033,13.76 c -0.1688787,0 -0.2660554,0.261805 -0.4194712,1.130107 -0.086988,0.492334 -0.049955,0.592884 0.2714691,0.737075 0.3593818,0.161219 0.3738888,0.139489 0.4212858,-0.631034 0.027,-0.438903 0.01126,-0.896587 -0.03498,-1.017076 z M 14.08,19.2 c -0.176,-0.176 -0.32,-0.387314 -0.32,-0.469584 0,-0.08227 -0.08326,-0.352272 -0.185017,-0.6 -0.360739,-0.878202 -0.337346,-1.16223 0.10972,-1.332205 0.552807,-0.210176 0.58008,-0.204104 0.546929,0.121789 -0.05181,0.509378 0.0058,0.68 0.229707,0.68 0.121736,0 0.261307,0.15284 0.310157,0.339643 0.08056,0.308047 0.159894,0.328984 0.852842,0.225071 1.135686,-0.170308 1.362748,-0.514933 1.27929,-1.94165 -0.08037,-1.373888 -0.402595,-1.922846 -1.183628,-2.016472 -0.286,-0.03429 -0.52,-0.0048 -0.52,0.06554 0,0.07033 -0.11225,0.127872 -0.249443,0.127872 -0.137194,0 -0.211195,0.06189 -0.164447,0.137525 0.124728,0.201815 -0.273279,0.979769 -0.502002,0.981227 -0.494083,0.0031 -0.672384,-0.884976 -0.6696,-3.33532 0.0015,-1.342549 0.06997,-2.4567584 0.154117,-2.5087629 C 13.851881,9.6232141 13.92,9.6573638 13.92,9.7505573 13.92,9.8437507 14.136,9.92 14.4,9.92 c 0.264,0 0.48,-0.07113 0.48,-0.1580656 0,-0.094655 0.365424,-0.1269704 0.910899,-0.080554 0.588469,0.050075 0.950881,0.012819 1.023853,-0.1052491 0.06212,-0.1005186 0.228219,-0.138529 0.3691,-0.084468 0.351362,0.1348301 0.328109,0.9536167 -0.03645,1.2835387 -0.369304,0.334216 -0.644681,0.334955 -1.011801,0.0027 -0.248914,-0.225264 -0.327189,-0.230884 -0.557179,-0.04001 -0.14717,0.12214 -0.40052,0.199551 -0.563001,0.172025 -0.26511,-0.04491 -0.29542,0.07137 -0.29542,1.133342 0,1.307093 0.09976,1.553936 0.434721,1.075706 0.263107,-0.375638 0.711232,-0.407176 1.300592,-0.09153 0.233578,0.125097 0.550687,0.266837 0.704687,0.314978 0.154,0.04814 0.28,0.217768 0.28,0.376949 0,0.159182 0.11936,0.459831 0.265244,0.668111 0.327341,0.467345 0.484175,2.967882 0.207085,3.301754 -0.09893,0.119208 -0.13343,0.291894 -0.07666,0.38375 0.05677,0.09185 0.01496,0.167008 -0.09289,0.167008 -0.107861,0 -0.150981,0.04513 -0.09582,0.100285 0.05516,0.05516 -0.0067,0.307158 -0.137442,0.56 -0.223938,0.433046 -0.533941,0.58195 -0.753813,0.362078 -0.224558,-0.224557 -1.529615,-0.206579 -1.720733,0.0237 C 14.768526,19.607106 14.45923,19.57923 14.08,19.2 Z m 13.892892,0.154398 c -0.146909,-0.08573 -0.734843,-0.12644 -1.306518,-0.09047 -0.920906,0.05794 -1.078378,0.02392 -1.381179,-0.298396 -0.243853,-0.25957 -0.313064,-0.478157 -0.24158,-0.762976 0.07081,-0.282127 0.02632,-0.427528 -0.151713,-0.495847 C 24.602967,17.595832 24.537305,16.64 24.818623,16.64 c 0.205348,0 1.421376,1.248882 1.421376,1.459776 0,0.07712 0.14825,0.140224 0.329444,0.140224 0.208539,0 0.287488,-0.06788 0.215121,-0.184976 -0.08078,-0.130696 0.02209,-0.157934 0.350557,-0.09282 0.325813,0.06459 0.579266,-8e-4 0.847259,-0.218794 0.344711,-0.280313 0.379531,-0.42382 0.353463,-1.456769 -0.03546,-1.405105 -0.383306,-2.263919 -0.856172,-2.113837 -0.212142,0.06733 -0.282902,0.04187 -0.210265,-0.07566 0.06021,-0.09743 0.03323,-0.177141 -0.05996,-0.177141 -0.09319,0 -0.169444,0.072 -0.169444,0.16 0,0.088 -0.09453,0.16 -0.210065,0.16 -0.115536,0 -0.417007,0.216 -0.669935,0.48 -0.252928,0.264 -0.545664,0.48 -0.650523,0.48 -0.396315,0 -0.542155,-0.899305 -0.505974,-3.12 l 0.0365,-2.24 0.72,0.015134 c 0.396,0.00832 0.63,-0.015675 0.52,-0.053333 C 26.000276,9.7060411 26.029689,9.44 26.319999,9.44 c 0.132,0 0.24,0.059967 0.24,0.133261 0,0.1524673 0.427132,0.1277716 0.841236,-0.048638 0.288059,-0.1227144 1.192328,0.3351472 1.014035,0.51344 -0.05087,0.05087 -0.01301,0.188267 0.08414,0.305322 0.133738,0.161144 0.110052,0.238378 -0.09754,0.318036 -0.159939,0.06137 -0.335321,0.01217 -0.420947,-0.118106 -0.121977,-0.18558 -0.174189,-0.176851 -0.308989,0.05166 -0.120292,0.203916 -0.286984,0.250017 -0.645059,0.178402 -0.731854,-0.146371 -1.039187,0.285169 -0.981853,1.378666 0.02515,0.479622 0.06131,0.887086 0.08035,0.905475 0.01904,0.01839 0.358625,0.0534 0.754625,0.0778 0.528447,0.03256 0.707546,-0.01158 0.673186,-0.165918 -0.03268,-0.146783 0.06396,-0.180613 0.32,-0.112027 0.201747,0.05404 0.420814,0.09924 0.486814,0.100443 0.066,0.0012 0.12,0.09347 0.12,0.205043 0,0.111573 0.19377,0.488018 0.4306,0.836545 0.359475,0.529015 0.442071,0.852201 0.500037,1.956605 0.04486,0.854755 0.0048,1.400866 -0.113362,1.543176 -0.100537,0.121141 -0.144188,0.320866 -0.097,0.443832 0.0795,0.207171 -0.687158,1.583026 -0.876022,1.572118 -0.04634,-0.0027 -0.204448,-0.07501 -0.351357,-0.160736 z m -8.344467,-0.394292 c -0.497152,-0.811543 -0.649789,-1.267135 -0.658757,-1.966261 -0.0084,-0.651752 0.03664,-0.760448 0.332271,-0.802607 0.290117,-0.04137 0.370931,0.07209 0.533222,0.748596 0.173591,0.723601 0.258813,0.829099 0.921347,1.140526 0.543603,0.255525 0.760411,0.294066 0.848888,0.150907 0.06536,-0.105745 0.190719,-0.147832 0.278586,-0.09353 0.188552,0.116533 0.561555,-0.278869 0.407963,-0.432461 -0.0579,-0.0579 0.01674,-0.105278 0.16587,-0.105278 0.219655,0 0.257272,-0.11395 0.198072,-0.6 -0.04019,-0.33 -0.07821,-0.906 -0.08448,-1.28 -0.0074,-0.441095 -0.07912,-0.665947 -0.204133,-0.64 -0.106,0.022 -0.196,-0.068 -0.2,-0.2 -0.0049,-0.160404 -0.207374,-0.256536 -0.610622,-0.289858 -0.331842,-0.02742 -0.561594,-0.117422 -0.510557,-0.2 0.05103,-0.08258 0.0275,-0.150142 -0.0523,-0.150142 -0.0798,0 -0.151235,-0.216 -0.158742,-0.48 -0.01072,-0.377269 0.05457,-0.48 0.305094,-0.48 0.175308,0 0.274244,0.072 0.219856,0.16 -0.05439,0.088 -0.02264,0.16 0.07056,0.16 0.09319,0 0.169443,-0.06722 0.169443,-0.149372 0,-0.08216 0.198,-0.172155 0.44,-0.2 0.407938,-0.04694 0.439743,-0.103092 0.436469,-0.770628 -0.0019,-0.396 0.06128,-0.76595 0.140499,-0.822112 0.220402,-0.156256 -0.03559,-0.456049 -0.302092,-0.353782 -0.284948,0.109345 -0.317349,-0.198648 -0.03488,-0.331508 0.11,-0.05174 3.2e-4,-0.06739 -0.243819,-0.03479 -0.244099,0.0326 -0.482349,-0.0031 -0.529441,-0.07926 -0.0471,-0.0762 -0.227699,-0.138546 -0.401341,-0.138546 -0.329483,0 -0.641787,-0.566416 -0.507259,-0.92 0.04596,-0.1207952 -0.05741,-0.2 -0.261024,-0.2 -0.394134,0 -0.414829,0.1238024 -0.09203,0.550581 0.330367,0.436785 0.291998,0.929423 -0.09843,1.263714 -0.183334,0.156977 -0.294373,0.386949 -0.24675,0.51105 0.117604,0.306475 -0.206669,1.194957 -0.435565,1.193407 C 19.246593,13.117277 18.88,12.385804 18.88,11.952788 c 0,-0.166878 0.09923,-0.494524 0.220508,-0.728101 0.246536,-0.474814 0.505154,-1.082879 0.639962,-1.504687 0.128318,-0.4015034 0.99823,-0.3738136 1.256661,0.04 0.109913,0.176 0.258774,0.32 0.330798,0.32 0.07203,0 0.07945,-0.083342 0.01649,-0.1852038 -0.07793,-0.126088 -0.0076,-0.1572672 0.220224,-0.097681 0.204338,0.053436 0.367912,9.44e-4 0.419997,-0.1347962 0.130717,-0.3406401 0.575355,-0.266199 0.575355,0.096326 0,0.1752542 0.144,0.408574 0.32,0.518488 0.176,0.109913 0.32,0.320524 0.32,0.468022 0,0.147499 0.07999,0.294844 0.177765,0.327434 0.215384,0.07179 0.380877,2.047412 0.171506,2.047412 -0.244376,0 -0.372066,1.17852 -0.147416,1.360579 0.249805,0.202443 0.256219,0.243139 0.279419,1.772504 0.02124,1.400192 -0.07497,2.038151 -0.319688,2.119722 -0.08887,0.02962 -0.161586,0.147046 -0.161586,0.260937 0,0.443933 -0.493089,0.603908 -1.92668,0.625076 -1.289879,0.01905 -1.470307,-0.01373 -1.644894,-0.298712 z m 11.400869,0.07182 c -0.201637,-0.152096 -0.334428,-0.443098 -0.343213,-0.752139 -0.0079,-0.277236 -0.111475,-0.541343 -0.230207,-0.586904 -0.141587,-0.05433 -0.215875,-0.359869 -0.215875,-0.887861 0,-0.698354 0.0424,-0.805021 0.32,-0.805021 0.176,0 0.371136,-0.0017 0.433637,-0.0038 0.0625,-0.0021 0.137923,0.231888 0.16761,0.52 0.0676,0.656056 0.526155,1.308229 0.965958,1.373811 0.21573,0.03217 0.303658,0.131911 0.24683,0.28 -0.04855,0.126517 -0.0086,0.230031 0.08885,0.230031 0.09742,0 0.177118,-0.09856 0.177118,-0.219013 0,-0.149099 0.153224,-0.201171 0.48,-0.163125 0.390568,0.04547 0.48,-0.0032 0.48,-0.260987 0,-0.174282 0.072,-0.316875 0.16,-0.316875 0.08889,0 0.16,-0.426668 0.16,-0.96 0,-0.545299 -0.07043,-0.96 -0.163048,-0.96 -0.09325,0 -0.120822,-0.168246 -0.0644,-0.393037 0.08416,-0.335319 0.03174,-0.407863 -0.35695,-0.493996 C 32.507354,14.449433 32.159999,14.321503 32.159999,14.2 v -0.6 c 0,-0.450109 0.03831,-0.48 0.615202,-0.48 0.696352,0 1.144798,-0.373593 1.144798,-0.953713 0,-0.529532 -0.605619,-1.449437 -0.883928,-1.34264 -0.125317,0.04809 -0.346278,-0.03099 -0.491024,-0.175742 -0.244235,-0.244235 -0.302099,-0.219444 -0.803987,0.344459 -0.618939,0.695418 -0.648248,0.796161 -0.261061,0.897344 0.252647,0.06602 0.250975,0.07498 -0.01712,0.09173 -0.185789,0.01161 -0.264771,0.102855 -0.210791,0.243527 0.118149,0.307891 -0.455268,0.798749 -0.785196,0.672144 -0.217866,-0.0836 -0.252533,-0.274376 -0.194831,-1.072119 0.03861,-0.533731 0.158987,-1.025297 0.267511,-1.092369 0.108524,-0.06707 0.175516,-0.188745 0.148872,-0.270386 -0.02665,-0.08164 0.112302,-0.353162 0.308772,-0.6033805 0.27881,-0.3550813 0.443196,-0.4333645 0.748898,-0.3566381 0.215421,0.054068 0.558672,0.035448 0.762779,-0.041377 0.519387,-0.1954945 1.417755,-0.031796 1.532139,0.2791832 0.05259,0.1429864 0.136876,0.2960294 0.187295,0.3400964 0.255486,0.223297 0.6752,1.246882 0.757509,1.847387 0.07195,0.524945 0.0071,0.851707 -0.2853,1.437146 l -0.378424,0.75772 0.358943,0.238328 c 0.32796,0.217757 0.358942,0.363414 0.358942,1.687453 0,1.529085 -0.236893,2.511845 -0.605475,2.511845 -0.121656,0 -0.191406,0.08936 -0.155002,0.198571 0.128124,0.384367 -0.292564,0.521429 -1.600435,0.521429 -0.945177,0 -1.414464,-0.07057 -1.649793,-0.248075 z M 2.2518217,1.6942445 C 2.1215332,1.5372563 2.1163606,1.4364134 2.2348406,1.3631887 2.3285491,1.3052736 2.3660287,1.1944761 2.3181286,1.116972 2.2702284,1.0394679 2.3723206,0.90044298 2.5449999,0.80802773 2.9498146,0.59137752 3.7909668,0.59122 3.9248017,0.80776933 3.9954749,0.9221211 4.1016002,0.91486158 4.2581109,0.78496922 4.3844031,0.68015603 4.5293962,0.63606306 4.5803181,0.68698485 c 0.050922,0.0509218 0.2746818,0.0233521 0.4972443,-0.0612661 0.5749578,-0.21859855 1.3224374,0.1320428 1.3224374,0.62035295 0,0.2081685 -0.086851,0.3512885 -0.2,0.3295743 C 6.0899999,1.554536 5.8345448,1.5933283 5.6323218,1.661851 5.4108221,1.7369058 5.1779424,1.7144821 5.0465663,1.6054496 4.9266236,1.5059061 4.7900298,1.4866893 4.7430244,1.5627456 4.6960189,1.6388021 4.1861783,1.6860949 3.6100452,1.6678408 3.0283954,1.6494118 2.6017459,1.6981035 2.6507078,1.7773258 2.7945915,2.0101344 2.4553451,1.939475 2.2518217,1.6942445 Z M 0.05333333,1.2870382 c 0,-0.260129 0.05385047,-0.43968041 0.11966771,-0.39900311 0.0658172,0.0406773 0.14806644,-0.0112376 0.18277604,-0.11536635 0.0857839,-0.25735173 0.4442229,-0.0159826 0.4442229,0.29913516 0,0.2289518 -0.42231457,0.6705124 -0.65333332,0.6831076 C 0.09533333,1.7577101 0.05333333,1.5471672 0.05333333,1.2870382 Z M 7.9999998,1.6446627 C 7.4633885,1.5483959 7.3085329,1.3742154 7.4271878,1.0003673 7.5371014,0.65405986 8.4021345,0.5361953 8.7450633,0.82080091 8.8769275,0.93023838 9.0506663,0.92273554 9.2846747,0.79749803 9.4744962,0.69590862 9.7971399,0.65478846 10.001661,0.7061199 c 0.22718,0.0570186 0.398009,0.0156242 0.439078,-0.10639502 0.05272,-0.15662915 0.12311,-0.1535976 0.326233,0.0140494 0.142455,0.1175759 0.338701,0.16452269 0.436101,0.10432619 C 11.383157,0.60680286 12,1.0595356 12,1.3030058 c 0,0.073375 -0.162,0.1277119 -0.36,0.120748 -0.198,-0.00696 -0.745038,0.040705 -1.215639,0.105931 C 9.7848908,1.6183162 9.5357007,1.5948473 9.4380159,1.4367901 9.3321182,1.2654439 9.2298647,1.2760465 8.8992839,1.4926514 8.67487,1.6396931 8.4707252,1.7501949 8.4456291,1.7382109 8.4205329,1.7262269 8.2199998,1.6841302 7.9999998,1.6446627 Z M 13.339885,1.3652783 c -0.134161,-0.3496179 -0.0012,-0.60936558 0.348788,-0.68136798 0.676646,-0.1392061 1.207808,-0.14668526 1.287262,-0.0181256 0.04592,0.0742944 0.2179,0.0631442 0.382184,-0.0247782 0.164284,-0.0879224 0.423726,-0.11188154 0.576537,-0.0532425 0.209492,0.0803897 0.245355,0.0507295 0.14579,-0.12057379 -0.07263,-0.12495461 0.04691,-0.0645317 0.265624,0.13427322 0.218718,0.19880488 0.440902,0.31823083 0.493742,0.26539101 0.05284,-0.0528398 0.251756,-0.0466603 0.442036,0.0137323 l 0.345964,0.10980464 -0.3327,0.2330319 c -0.396383,0.2776378 -1.888585,0.3897557 -2.709451,0.203577 -0.354843,-0.080481 -0.606681,-0.072566 -0.638995,0.020084 -0.08275,0.2372684 -0.50625,0.1801731 -0.606781,-0.081806 z m 6.109235,0.089479 c -0.05465,-0.08843 -0.19778,-0.1230176 -0.31806,-0.076862 -0.272756,0.1046665 -0.500774,-0.2321816 -0.29587,-0.43708568 0.08322,-0.0832193 0.433346,-0.17902678 0.778059,-0.2129056 0.344712,-0.0338788 0.611211,-0.13213251 0.592221,-0.21834155 -0.03847,-0.17464101 0.573448,-0.0619369 0.855845,0.15763011 0.114867,0.0893111 0.216609,0.0489957 0.277625,-0.11000898 0.07812,-0.20356521 0.160866,-0.21643529 0.437994,-0.0681208 0.211293,0.1130804 0.302417,0.11933016 0.238789,0.0163773 -0.151336,-0.24486544 1.051451,-0.0348895 1.337419,0.23347949 0.181699,0.17051648 0.190657,0.26127991 0.0406,0.41133781 -0.150058,0.1500579 -0.244511,0.1238315 -0.428055,-0.1188572 -0.204705,-0.27066853 -0.236176,-0.27618611 -0.2406,-0.0421825 -0.0058,0.3088516 -0.454052,0.4899165 -1.08811,0.4395622 -0.240338,-0.019087 -0.544978,0.010032 -0.676978,0.064708 -0.274089,0.1135316 -0.738263,0.06158 -0.900647,-0.1008023 -0.06045,-0.06045 -0.200124,-0.035038 -0.310386,0.056472 -0.133363,0.1106815 -0.233744,0.1125561 -0.299846,0.0056 z m 5.230879,-0.2639195 c -0.11,-0.1195324 -0.198897,-0.38237055 -0.19755,-0.58408469 0.002,-0.29411194 0.03269,-0.31921733 0.155118,-0.12675301 0.129136,0.2030064 0.205327,0.20735131 0.494293,0.0281881 0.187895,-0.11649656 0.294263,-0.13517784 0.236375,-0.041514 -0.07056,0.11416144 0.130691,0.14818088 0.61051,0.1032027 0.562952,-0.052771 0.738,-0.009749 0.819934,0.20151397 0.09555,0.24636973 0.122127,0.24422523 0.320997,-0.0259022 0.147531,-0.20039319 0.322842,-0.26086234 0.548573,-0.18921797 0.202152,0.0641606 0.33175,0.0346174 0.33175,-0.075626 0,-0.10766433 0.21002,-0.16061854 0.51869,-0.13078203 0.533534,0.0515722 0.7274,0.37077322 0.532949,0.87750333 -0.07709,0.200891 -0.141178,0.2107027 -0.333531,0.051063 -0.167511,-0.1390204 -0.238108,-0.1439154 -0.238108,-0.01651 0,0.1136438 -0.262132,0.1656394 -0.703742,0.1395911 -0.387058,-0.022831 -0.6638,-0.1068518 -0.614981,-0.1867139 0.05144,-0.084156 -0.07311,-0.092872 -0.296257,-0.02073 -0.708693,0.2291145 -1.972925,0.2272467 -2.18502,-0.00323 z m 5.54,0.089162 c -0.07681,-0.61445136 -0.02383,-0.70032099 0.55589,-0.90102462 0.338739,-0.11727452 0.734739,-0.15874845 0.88,-0.0921643 0.145261,0.0665842 0.58811,0.11073837 0.98411,0.0981205 0.396,-0.0126179 0.846,0.0421439 1,0.12169283 0.177175,0.0915197 0.404605,0.0779475 0.619309,-0.0369579 0.198747,-0.1063665 0.297755,-0.1143596 0.239003,-0.019295 -0.05517,0.0892635 -0.0099,0.19544681 0.100691,0.23596291 0.597029,0.2188121 -1.042104,0.82799108 -1.75126,0.65085148 C 32.250079,1.1878963 31.50563,1.1738084 31.42134,1.3101924 31.305772,1.4971837 30.24381,1.4704942 30.219999,1.2799998 Z m 6.34,-9.024e-4 c -0.44,-0.059853 -0.71,-0.1201356 -0.6,-0.1339607 0.11,-0.013825 0.2,-0.1603206 0.2,-0.32554546 0,-0.47357048 0.356314,-0.67272632 0.916267,-0.5121337 0.295869,0.0848542 0.551088,0.0811881 0.64149,-0.009215 0.176408,-0.17640808 1.002243,0.0925154 1.002243,0.32636844 0,0.22607169 -0.470555,0.65538872 -0.718342,0.65538872 -0.118517,0 -0.311375,0.024282 -0.428572,0.053961 -0.117198,0.029678 -0.573086,0.00499 -1.013086,-0.054863 z m 2.226618,-0.056276 c -0.04749,-0.123771 0.08834,-0.41353952 0.30186,-0.64393012 0.397455,-0.42886039 0.751522,-0.548404 0.751522,-0.25373611 0,0.0908357 0.158389,0.22374781 0.351976,0.29536019 l 0.351976,0.13020431 -0.391976,0.24560502 C 39.541901,1.3785864 38.888013,1.4870586 38.786617,1.2228214 Z M 17.28,0.64 c 0,-0.088 0.072,-0.16 0.16,-0.16 0.088,0 0.16,0.072 0.16,0.16 0,0.088 -0.072,0.16 -0.16,0.16 -0.088,0 -0.16,-0.072 -0.16,-0.16 z"
       id="path400"
       sodipodi:nodetypes="ssssssccssssssscsssssssssscssscssscssssssssssssscscsssscssccccsssscsscsssssssssssscscssssssssscscsssssssssccssssssssssssssssssscscssscsssscssssscscscssssscsssccsssssssssssssccssssssssssssscssssssssssssssscssssscssssssssssssssccsssssssssssssssssssssssssssssssssssssscssssssscsscssscsscssssssssssssscsssssscssssssssssssssssscsssssscsscssssssssssssscsssssss" />
  </g>
</svg>
