<?xml version="1.0" encoding="UTF-8" standalone="no"?>
<!-- Created with Inkscape (http://www.inkscape.org/) -->

<svg
   version="1.1"
   id="svg427"
   width="99.519997"
   height="43.360001"
   viewBox="0 0 99.519997 43.360001"
   sodipodi:docname="scontrino_1-4.svg"
   inkscape:version="1.2.2 (b0a84865, 2022-12-01)"
   xmlns:inkscape="http://www.inkscape.org/namespaces/inkscape"
   xmlns:sodipodi="http://sodipodi.sourceforge.net/DTD/sodipodi-0.dtd"
   xmlns="http://www.w3.org/2000/svg"
   xmlns:svg="http://www.w3.org/2000/svg">
  <defs
     id="defs431" />
  <sodipodi:namedview
     id="namedview429"
     pagecolor="#ffffff"
     bordercolor="#666666"
     borderopacity="1.0"
     inkscape:showpageshadow="2"
     inkscape:pageopacity="0.0"
     inkscape:pagecheckerboard="0"
     inkscape:deskcolor="#d1d1d1"
     showgrid="false"
     inkscape:zoom="8.8051517"
     inkscape:cx="59.283476"
     inkscape:cy="24.190384"
     inkscape:window-width="1320"
     inkscape:window-height="688"
     inkscape:window-x="0"
     inkscape:window-y="25"
     inkscape:window-maximized="0"
     inkscape:current-layer="g433"
     showguides="false" />
  <g
     inkscape:groupmode="layer"
     inkscape:label="Image"
     id="g433">
    <path
       style="fill:#000000;stroke-width:0.16"
       d="m 77.959998,39.986251 c -0.439992,-0.166144 -0.439791,-0.152724 -0.01318,-0.875781 0.281076,-0.476391 0.311408,-0.644533 0.16,-0.886975 -0.248442,-0.397817 -0.239453,-1.417451 0.01318,-1.49467 0.558304,-0.170655 1.198928,-0.213093 1.394268,-0.09237 0.147938,0.09143 0.217168,0.45149 0.212954,1.107544 -0.0052,0.801018 -0.08138,1.07058 -0.433238,1.531887 -0.536799,0.703779 -0.874781,0.883758 -1.333984,0.710362 z M 10.194249,39.580918 C 10.131412,39.518079 10.08,39.126371 10.08,38.710452 c 0,-0.524592 -0.07351,-0.784424 -0.2400003,-0.848312 -0.1345126,-0.05162 -0.24,-0.28963 -0.24,-0.541517 0,-0.247181 -0.095522,-0.591441 -0.2122718,-0.765021 C 9.2709784,36.382022 9.1590384,35.916658 9.1389724,35.521462 9.1166335,35.081503 9.0098388,34.751073 8.8635188,34.669188 8.6904548,34.572337 8.6340866,34.299702 8.6591324,33.680633 8.6813709,33.130951 8.6062461,32.692318 8.4486761,32.451834 8.0841052,31.89543 8.1222391,30.75355 8.5094959,30.630639 c 0.4205061,-0.133464 0.8111616,0.225586 0.7051235,0.648075 -0.047529,0.189372 0.0316,0.51029 0.1770128,0.717895 0.1490189,0.212753 0.2897299,0.79747 0.3247341,1.349413 0.034819,0.549019 0.1538009,1.045104 0.2726987,1.136992 0.116011,0.08966 0.262394,0.606433 0.325295,1.148393 0.06994,0.602595 0.200027,1.018251 0.334879,1.069999 0.327403,0.125636 0.417073,-0.129639 0.412083,-1.173125 -0.0032,-0.676351 0.06054,-0.965459 0.227089,-1.029368 0.173752,-0.06668 0.231589,-0.389811 0.231589,-1.293891 0,-0.662762 0.06715,-1.205021 0.149218,-1.205021 0.168536,0 0.383251,-0.558554 0.399789,-1.04 0.0076,-0.222301 0.138549,-0.334803 0.428788,-0.368485 0.381187,-0.04424 0.426179,0.01184 0.51349,0.64 0.07495,0.53923 0.03641,0.733354 -0.177795,0.895454 -0.214336,0.162202 -0.264475,0.415388 -0.231811,1.170554 0.02845,0.657666 -0.03505,1.073133 -0.2,1.308634 -0.132924,0.189774 -0.243969,0.635024 -0.246768,0.989444 -0.0028,0.35442 -0.110799,0.78416 -0.24,0.95498 -0.129201,0.170819 -0.234911,0.498419 -0.234911,0.728 0,0.22958 -0.06768,0.485819 -0.150401,0.569419 -0.08272,0.0836 -0.17272,0.512 -0.2,0.952 -0.04719,0.761131 -0.0732,0.802312 -0.53535,0.847582 -0.267162,0.02617 -0.537162,-0.0038 -0.6,-0.06667 z m 4.391752,-0.04146 C 14.26581,39.336502 14.42095,38.652102 14.8,38.595406 c 1.125917,-0.16841 1.047503,0.01395 0.962463,-2.238375 -0.0423,-1.120366 -0.07816,-2.70303 -0.07969,-3.51703 -0.0027,-1.426672 -0.01575,-1.480079 -0.362776,-1.482184 -0.655767,-0.004 -1.08,-0.190778 -1.08,-0.475543 0,-0.352233 0.683876,-0.478107 2.610627,-0.480512 l 1.410627,-0.0018 -0.05063,0.44 c -0.04231,0.367711 -0.142632,0.453144 -0.610628,0.52 -0.496382,0.07091 -0.569699,0.143618 -0.645374,0.64 -0.09274,0.608325 -0.0054,6.278815 0.09837,6.3849 0.03491,0.0357 0.333491,0.10879 0.663515,0.162435 0.645557,0.104931 0.863017,0.483558 0.51711,0.900352 -0.145593,0.17543 -0.589568,0.231714 -1.813211,0.229864 -0.891225,-0.0013 -1.716709,-0.06349 -1.834408,-0.138094 z m 56.013997,-0.833539 c -0.337115,-0.353832 -0.237128,-1.179128 0.2,-1.650797 0.22,-0.237384 0.4,-0.524328 0.4,-0.637655 0,-0.113326 0.234,-0.432243 0.52,-0.708702 0.944205,-0.912707 1.08,-1.092355 1.08,-1.428774 0,-0.211122 0.164331,-0.405908 0.448597,-0.531736 0.372683,-0.164965 0.437096,-0.276927 0.380636,-0.661613 -0.04474,-0.304799 0.02133,-0.528592 0.193301,-0.654842 0.332267,-0.243925 0.249744,-1.118336 -0.146907,-1.55663 -0.333112,-0.368083 -1.28495,-0.419371 -1.715627,-0.09244 -0.154,0.116902 -0.28,0.400078 -0.28,0.629281 0,0.748319 -1.138645,0.985813 -1.324213,0.276199 -0.04332,-0.165656 0.01781,-0.469271 0.135854,-0.674701 0.11804,-0.205429 0.286263,-0.53113 0.373829,-0.723779 0.246005,-0.541221 0.687056,-0.689728 2.04841,-0.689728 0.880859,0 1.361712,0.0748 1.613195,0.250947 0.197053,0.138021 0.322771,0.308398 0.279374,0.378617 -0.0434,0.07022 0.0634,0.25645 0.237324,0.41385 0.231057,0.209104 0.316227,0.492426 0.316227,1.051941 0,0.421168 -0.072,0.810258 -0.16,0.864645 -0.088,0.05439 -0.16,0.265821 -0.16,0.469851 0,0.204032 -0.108,0.460598 -0.24,0.570149 -0.132,0.10955 -0.24,0.291131 -0.24,0.403513 0,0.2523 -0.916623,1.628018 -1.67524,2.51429 -0.857191,1.001435 -0.792293,1.082197 0.869611,1.082197 1.29697,0 1.451733,0.03244 1.615619,0.338665 0.335653,0.627175 -0.06045,0.771296 -2.415251,0.878799 -1.67201,0.07633 -2.199546,0.05134 -2.354739,-0.111547 z m 18.558916,-0.139343 c -0.707165,-0.112525 -1.054379,-0.414355 -1.341989,-1.166574 -0.09253,-0.242 -0.269188,-0.44 -0.39258,-0.44 -0.131533,0 -0.224348,-0.162483 -0.224348,-0.392751 0,-0.322017 0.100636,-0.411628 0.558796,-0.49758 0.577758,-0.108388 1.059432,-0.01152 1.02374,0.205878 -0.104737,0.637982 0.671746,1.063072 1.516026,0.829955 0.31979,-0.0883 0.586947,-0.21116 0.59368,-0.273022 0.0067,-0.06186 0.0428,-0.25648 0.08014,-0.43248 0.03734,-0.176 0.112605,-0.618579 0.167246,-0.983511 l 0.09935,-0.66351 -1.381075,0.08616 c -1.295568,0.08083 -1.400789,0.06343 -1.699488,-0.280971 -0.175126,-0.201925 -0.318413,-0.452958 -0.318413,-0.557854 0,-0.104896 -0.144,-0.321039 -0.32,-0.480317 -0.270576,-0.244867 -0.32,-0.492795 -0.32,-1.605207 0,-0.97424 0.06228,-1.367294 0.24,-1.514793 0.132,-0.109551 0.24,-0.325551 0.24,-0.48 0,-0.449821 0.377903,-0.64346 1.29614,-0.664148 0.471643,-0.01062 1.064054,-0.07855 1.316468,-0.15094 0.527805,-0.151373 1.021109,0.09796 1.787392,0.903425 0.427795,0.449666 0.475423,0.598461 0.437907,1.368101 -0.02315,0.474959 -0.04157,1.007562 -0.04092,1.183562 6.4e-4,0.176 0.0053,1.171715 0.0103,2.212702 0.005,1.040986 -0.0719,2.120986 -0.170944,2.4 -0.385912,1.087128 -1.630965,1.636765 -3.157434,1.393872 z M 90.94313,33.20162 c 0.349264,-0.323686 0.398792,-0.45643 0.264162,-0.707989 -0.09113,-0.170286 -0.156127,-0.477014 -0.144428,-0.681621 0.03,-0.524707 -0.275713,-1.207176 -0.615208,-1.373377 -0.314731,-0.15408 -1.413195,0.142497 -1.224963,0.330731 0.06085,0.06085 0.03504,0.110637 -0.05737,0.110637 -0.0924,0 -0.205688,0.144099 -0.251745,0.320221 -0.05009,0.191534 -0.01902,0.280222 0.0773,0.220691 0.106538,-0.06584 0.109115,0.0018 0.0076,0.199779 -0.08438,0.164621 -0.195744,0.523189 -0.247465,0.796819 -0.0809,0.427978 -0.03373,0.52561 0.337464,0.698543 0.237326,0.110568 0.539502,0.260454 0.671502,0.33308 0.418075,0.230027 0.740681,0.162537 1.183133,-0.247514 z m -6.413758,5.158381 c -0.08239,-0.11 -0.169115,-0.488 -0.192715,-0.84 -0.0236,-0.352 -0.091,-0.688765 -0.149784,-0.748368 -0.142031,-0.144013 -1.842472,-0.215042 -2.051747,-0.0857 -0.09033,0.05583 -0.312199,-0.09862 -0.493039,-0.343219 -0.343806,-0.465022 -0.335899,-1.147422 0.0188,-1.62271 0.35548,-0.476331 0.579109,-0.961447 0.579109,-1.256251 0,-0.165327 0.130088,-0.472304 0.289083,-0.682172 0.383912,-0.506748 0.825601,-1.460734 0.740251,-1.598835 -0.03746,-0.06061 0.155499,-0.349585 0.428803,-0.642158 0.273304,-0.292573 0.555851,-0.686962 0.627883,-0.87642 0.171245,-0.450411 1.025547,-0.591814 1.440936,-0.238504 0.260994,0.221991 0.27944,0.354978 0.145031,1.045588 -0.0847,0.435185 -0.15146,1.263185 -0.148359,1.84 0.01066,1.982294 0.159885,2.650507 0.618703,2.770491 0.380318,0.09946 0.751907,1.078261 0.409345,1.078261 -0.127422,0 -0.213677,0.09 -0.191677,0.2 0.022,0.11 -0.04467,0.183777 -0.148155,0.163949 -0.178433,-0.03419 -0.26699,0.215664 -0.465241,1.312643 -0.04737,0.262126 -0.171738,0.531024 -0.276368,0.59755 -0.299984,0.190739 -1.016135,0.145775 -1.180861,-0.07414 z m -0.449375,-3.64 c -0.05439,-0.088 -0.03806,-0.16 0.03627,-0.16 0.07434,0 0.135157,-0.144 0.135157,-0.32 0,-0.375432 -0.221011,-0.425439 -0.353568,-0.08 -0.09662,0.251782 0.0247,0.72 0.18656,0.72 0.05196,0 0.04997,-0.072 -0.0044,-0.16 z m -62.53333,3.413333 c -0.05867,-0.05867 -0.106668,-0.490666 -0.106668,-0.96 0,-0.923029 -0.135779,-1.037692 -0.617062,-0.521093 -0.452526,0.485729 -1.206347,0.370931 -1.271774,-0.193677 -0.05245,-0.452595 0.57514,-1.097419 1.070414,-1.099811 0.360694,-0.0017 0.71024,-0.783528 0.476336,-1.065363 -0.0974,-0.117365 -0.304666,-0.213389 -0.460584,-0.213389 -0.155918,0 -0.499784,-0.202051 -0.764147,-0.449003 -0.372455,-0.347925 -0.462111,-0.546026 -0.398269,-0.88 0.06877,-0.359727 0.166029,-0.430997 0.588181,-0.430997 0.311302,0 0.613385,0.125664 0.785609,0.326808 0.348399,0.406899 0.62504,0.26335 0.494538,-0.256615 -0.05386,-0.214606 -0.05166,-0.574571 0.0049,-0.799921 0.08683,-0.345938 0.18071,-0.401986 0.603034,-0.36 0.523614,0.05206 0.579702,0.159099 0.633864,1.209728 0.01475,0.286 0.08125,0.52 0.147796,0.52 0.272788,0 0.620119,-0.201955 0.548005,-0.318637 -0.146536,-0.237099 0.391435,-0.517992 0.797078,-0.416182 0.773978,0.194256 0.365015,1.406923 -0.587456,1.741939 -0.609515,0.214387 -0.651812,1.39288 -0.04999,1.39288 0.507183,0 1.039527,0.501041 1.039527,0.978401 0,0.408607 -0.05642,0.461599 -0.491429,0.461599 -0.270285,0 -0.599429,-0.108 -0.731429,-0.24 -0.132,-0.132 -0.306856,-0.24 -0.388571,-0.24 -0.142974,0 -0.218097,0.565659 -0.155321,1.169541 0.01655,0.159246 -0.05597,0.393246 -0.161168,0.52 -0.196744,0.237062 -0.815911,0.313297 -1.005415,0.123792 z m -5.48692,-11.737586 c -0.09034,-0.09034 -0.540519,-0.208815 -1.0004,-0.26328 -0.82116,-0.09726 -0.835282,-0.107935 -0.787748,-0.595749 0.04367,-0.44816 0.107056,-0.501573 0.648401,-0.546378 0.584881,-0.04841 0.730345,-0.262137 0.610202,-0.896576 -0.01523,-0.08043 -0.02368,-1.327598 -0.01878,-2.771486 0.01,-2.933778 -0.05491,-3.402279 -0.47104,-3.402279 -0.156711,0 -0.454906,-0.138889 -0.662655,-0.308643 -0.616142,-0.503454 -0.210021,-0.6864 1.671607,-0.753005 1.337495,-0.04734 1.710293,-0.01158 1.868648,0.179215 0.323111,0.389325 0.0725,0.722433 -0.543517,0.722433 -0.305568,0 -0.596598,0.06637 -0.646732,0.14749 -0.05013,0.08112 -0.08628,0.60312 -0.08032,1.16 0.01291,1.207042 0.118327,5.601362 0.138464,5.772511 0.0078,0.066 0.24812,0.121102 0.53412,0.122449 0.669848,0.0032 0.916783,0.167563 0.843375,0.561512 -0.03239,0.173821 -0.0644,0.370039 -0.07113,0.436039 -0.0067,0.066 -0.210242,0.120443 -0.452242,0.120985 -0.242,4.8e-4 -0.64623,0.108543 -0.898289,0.24 -0.544685,0.284072 -0.479768,0.276957 -0.681963,0.07476 z m 61.300833,0.0052 c -0.05407,-0.08748 0.09573,-0.41345 0.332883,-0.724375 l 0.431189,-0.565316 -0.287315,-0.637149 c -0.41096,-0.911349 -0.162487,-1.435069 0.67923,-1.431651 0.331887,0.0013 0.6872,0.05575 0.789587,0.120886 0.102386,0.06514 0.22045,0.550038 0.262365,1.07755 0.07371,0.927604 0.05636,0.981455 -0.527894,1.639114 -0.461778,0.51979 -0.719272,0.68 -1.092923,0.68 -0.268852,0 -0.533055,-0.07158 -0.587122,-0.159059 z M 10.017118,25.986914 C 9.963703,25.847717 9.92,25.460533 9.92,25.126506 c 0,-0.344651 -0.1038021,-0.693472 -0.24,-0.806505 -0.132,-0.109551 -0.24,-0.397551 -0.24,-0.64 0,-0.24245 -0.108,-0.53045 -0.24,-0.64 C 9.04824,22.914052 8.96,22.56109 8.96,22.080001 8.96,21.626924 8.87035,21.24478 8.7383623,21.13524 8.6055028,21.024976 8.4895485,20.524512 8.4488797,19.885821 8.4089524,19.258773 8.3026401,18.794213 8.1905175,18.75684 8.0771452,18.719048 7.9999998,18.370488 7.9999998,17.896039 c 0,-0.772759 0.013347,-0.795736 0.4337134,-0.746666 0.3628334,0.04235 0.4550734,0.154123 0.5644155,0.683914 0.071886,0.348307 0.2181544,0.687334 0.3250405,0.753393 0.124706,0.07707 0.1835363,0.479391 0.1641907,1.12284 -0.024427,0.812471 0.028937,1.057776 0.2812462,1.292839 C 10.009861,21.227122 10.08,21.507295 10.08,22.246234 c 0,0.910685 0.01807,0.953767 0.4,0.953767 0.384954,0 0.4,-0.03848 0.4,-1.022882 0,-0.767799 0.06067,-1.046165 0.243301,-1.116245 0.197915,-0.07595 0.227249,-0.305651 0.157249,-1.231379 -0.07855,-1.038783 -0.05837,-1.145253 0.231396,-1.221029 0.273873,-0.07162 0.305929,-0.180962 0.233529,-0.796565 l -0.08392,-0.71355 0.529222,0.05082 c 0.505227,0.04852 0.531033,0.08318 0.569142,0.76451 0.02818,0.503827 -0.03162,0.75372 -0.203365,0.849834 -0.133807,0.07488 -0.204596,0.198749 -0.15731,0.275259 0.04729,0.07651 0.01163,0.185061 -0.07924,0.241222 -0.09087,0.05616 -0.118919,0.177029 -0.06233,0.268594 0.20675,0.334528 0.169197,1.441838 -0.05177,1.526632 -0.136102,0.05223 -0.204826,0.298976 -0.184923,0.663946 0.03647,0.668707 -0.134464,1.300829 -0.351756,1.300829 -0.08207,0 -0.149218,0.279184 -0.149218,0.620409 0,0.356282 -0.102176,0.705207 -0.24,0.819591 -0.144774,0.120152 -0.24,0.470296 -0.24,0.882473 0,0.475472 -0.07697,0.712827 -0.253086,0.780408 -0.419694,0.161051 -0.667403,0.110864 -0.769796,-0.155968 z m 78.885019,-0.466913 c -0.05065,-0.132 -0.188885,-0.24 -0.307183,-0.24 -0.560305,0 -1.763301,-2.09345 -1.472957,-2.563236 0.05329,-0.08622 0.342103,-0.156764 0.641813,-0.156764 0.401626,0 0.595359,0.09467 0.736693,0.36 0.280406,0.526406 0.634826,0.749166 1.201093,0.754912 0.632185,0.0064 1.018401,-0.531535 1.018401,-1.418501 0,-0.693572 -0.206377,-0.848757 -1.059062,-0.796362 -0.591286,0.03633 -1.820938,-0.305507 -1.820938,-0.506216 0,-0.08461 -0.099,-0.153834 -0.22,-0.153834 -0.264252,0 -0.453881,-0.727347 -0.497148,-1.906872 -0.02422,-0.660236 -0.09345,-0.87592 -0.290453,-0.904833 -0.232549,-0.03413 -0.249949,0.243128 -0.172394,2.746853 0.07569,2.443451 0.05523,2.796723 -0.166872,2.881952 -0.139222,0.05343 -0.253491,0.215433 -0.253928,0.360019 -4.8e-4,0.144584 -0.162437,0.459578 -0.36,0.699984 -0.32828,0.399474 -0.479073,0.444398 -1.751544,0.52184 -1.381144,0.08405 -1.396897,0.08073 -1.95948,-0.413222 -0.311928,-0.273877 -0.530713,-0.5569 -0.48619,-0.62894 0.04452,-0.07204 -0.01469,-0.226787 -0.13159,-0.343881 -0.116898,-0.117095 -0.255434,-0.377253 -0.30786,-0.57813 -0.113609,-0.435315 0.34974,-0.801707 1.185343,-0.937305 0.516488,-0.08381 0.543566,-0.0638 0.58115,0.42943 0.05253,0.689429 0.0961,0.739696 0.746957,0.861797 0.770577,0.144561 1.197889,-0.109549 1.124139,-0.668491 -0.03194,-0.242111 -0.06304,-0.639344 -0.06911,-0.882741 -0.0099,-0.396967 -0.06458,-0.439365 -0.531024,-0.411682 -0.286,0.01697 -0.60194,0.09224 -0.702092,0.167271 -0.430221,0.322289 -1.977907,-0.783786 -1.977907,-1.41354 0,-0.198342 -0.06742,-0.402289 -0.14982,-0.453216 -0.0824,-0.05093 -0.151816,-0.217176 -0.154259,-0.369443 -0.0024,-0.152267 -0.05189,-0.651787 -0.109883,-1.110043 -0.08545,-0.675162 -0.0415,-0.955872 0.231691,-1.48 0.185424,-0.355744 0.28429,-0.647282 0.219703,-0.647861 -0.06459,-6.4e-4 0.08401,-0.133875 0.330212,-0.296213 0.362482,-0.239006 0.739103,-0.291873 1.979619,-0.277884 l 1.531975,0.01728 0.584744,0.678938 c 0.54864,0.637019 0.976017,0.868971 0.976017,0.52972 0,-0.08207 0.140327,-0.193757 0.311836,-0.248191 0.189305,-0.06008 0.27675,-0.190401 0.222547,-0.331654 C 87.43389,16.024826 88.479905,15.68 89.730983,15.68 c 1.268393,0 2.109014,0.240368 2.109014,0.603053 0,0.138463 0.103599,0.366226 0.230221,0.506141 0.172094,0.190163 0.254866,0.940677 0.327832,2.972598 0.124754,3.474004 0.124416,3.481721 -0.159093,3.640381 -0.131429,0.07355 -0.23896,0.262581 -0.23896,0.420069 0,0.157488 -0.234,0.495911 -0.52,0.75205 -0.431467,0.386419 -0.635851,0.457328 -1.200454,0.416486 -0.603859,-0.04368 -0.697967,-0.0032 -0.83604,0.36 -0.17439,0.458685 -0.402882,0.530107 -0.541366,0.169223 z M 84.661553,19.8 c 0.106046,-0.198 0.184249,-0.792 0.173784,-1.32 -0.01631,-0.823062 -0.07852,-1.011352 -0.436106,-1.32 -0.504259,-0.435251 -0.535323,-0.435796 -1.037262,-0.01824 -0.348597,0.289996 -0.398274,0.45999 -0.4,1.368803 -0.0017,0.898803 0.04858,1.078621 0.375753,1.343558 0.512754,0.415218 1.084984,0.391821 1.323831,-0.05412 z m 5.839804,-0.07817 c 0.370112,-0.399358 0.397199,-0.521472 0.305783,-1.378624 -0.121458,-1.138851 -0.477455,-1.691244 -1.094415,-1.69818 -0.53696,-0.006 -1.224148,0.623499 -1.252808,1.1477 -0.05519,1.009416 0.05919,1.825295 0.291946,2.082484 0.40273,0.445011 1.264984,0.369417 1.749494,-0.15338 z m -17.255582,5.358169 c -0.14046,-0.11 -0.294483,-0.542826 -0.342272,-0.961836 -0.04779,-0.419009 -0.126771,-0.826366 -0.175516,-0.90524 -0.04875,-0.07887 -0.576452,-0.135888 -1.172677,-0.1267 -0.596227,0.0092 -1.172082,-0.0377 -1.27968,-0.104202 -0.287047,-0.177405 -0.251375,-1.370675 0.04437,-1.484162 0.132,-0.05065 0.24,-0.221749 0.24,-0.380213 0,-0.158464 0.169477,-0.636761 0.376616,-1.062881 0.207137,-0.426122 0.542059,-1.134767 0.74427,-1.574767 0.795053,-1.729992 1.980375,-2.868091 2.355293,-2.26146 0.0597,0.09659 0.12817,1.184937 0.15216,2.418542 0.05075,2.609598 0.167179,3.181541 0.662432,3.254047 0.478995,0.07013 0.453419,0.615616 -0.05077,1.082884 -0.324163,0.300424 -0.4,0.522762 -0.4,1.172719 0,0.629171 -0.0667,0.837704 -0.309482,0.96764 -0.400197,0.214179 -0.534333,0.20872 -0.844741,-0.03437 z M 72.825348,21.4 c 0.03397,-0.482368 -0.01512,-0.963107 -0.107819,-1.055801 -0.120784,-0.120786 -0.71876,0.484369 -0.626358,0.633878 0.04599,0.07442 0.0058,0.280799 -0.0894,0.458616 -0.155953,0.291402 -0.125104,0.323308 0.312602,0.323308 0.389437,0 0.49065,-0.07131 0.510979,-0.360001 z m -51.347233,3.401575 c -0.108964,-0.174477 -0.199098,-0.51621 -0.2003,-0.759403 -0.0051,-1.031525 -0.480705,-1.58924 -0.717916,-0.841855 -0.08065,0.2541 -0.190373,0.299141 -0.530783,0.217879 -0.62116,-0.148282 -0.669117,-0.194295 -0.669117,-0.641991 0,-0.405273 0.542007,-1.00082 0.92,-1.010881 0.11,-0.0029 0.350599,-0.155922 0.534664,-0.339988 l 0.334666,-0.334665 -0.374456,-0.262279 c -0.20595,-0.144252 -0.456061,-0.263652 -0.555803,-0.265334 -0.09974,-0.0017 -0.376791,-0.198194 -0.615664,-0.436694 -0.369688,-0.369109 -0.412295,-0.500056 -0.286328,-0.88 0.214342,-0.646509 0.708709,-0.652314 1.305691,-0.01533 0.533632,0.569388 0.542997,0.556182 0.499901,-0.705087 -0.02329,-0.681715 0.01285,-0.763742 0.376689,-0.855062 0.582074,-0.146091 0.690484,-0.01722 0.813453,0.967001 0.122119,0.977396 0.269037,1.081701 0.667355,0.473791 0.390975,-0.596704 1.081928,-0.494117 1.147135,0.170317 0.05299,0.539916 -0.438682,1.198008 -0.895048,1.198008 -0.151403,0 -0.369331,0.150601 -0.484285,0.33467 -0.179634,0.28764 -0.168179,0.365621 0.08151,0.554912 0.159786,0.121133 0.398518,0.223774 0.530518,0.228093 0.42513,0.0139 0.986773,0.753325 0.931189,1.225933 -0.06949,0.590849 -0.766125,0.793958 -1.232598,0.359371 -0.509402,-0.474582 -0.658591,-0.366432 -0.658591,0.477427 0,0.498504 -0.08669,0.852359 -0.24,0.979591 -0.132,0.10955 -0.24506,0.136366 -0.251246,0.05959 -0.0062,-0.07677 -0.06103,-0.01386 -0.121883,0.139814 -0.102301,0.258343 -0.125573,0.255492 -0.308755,-0.03783 z M 10.04,12.737273 C 9.8685498,12.607124 9.7599997,12.310809 9.7599997,11.972942 c 0,-0.303479 -0.1057101,-0.691542 -0.2349115,-0.862361 -0.1292013,-0.170819 -0.2372013,-0.572878 -0.24,-0.893463 -0.0032,-0.3668821 -0.094026,-0.6170098 -0.2450885,-0.6749779 -0.1662539,-0.063798 -0.24,-0.3232978 -0.24,-0.8445199 0,-0.439803 -0.098396,-0.8611498 -0.2368235,-1.0141101 C 8.4319359,7.5384912 8.2894718,6.9702218 8.2436287,6.4088813 8.1936996,5.7975064 8.0690274,5.325386 7.9291462,5.2179699 7.777606,5.1016006 7.7082234,4.790787 7.7286937,4.3200001 c 0.029844,-0.6863765 0.053722,-0.72 0.5113061,-0.72 0.499087,0 0.5014252,0.00465 0.5429921,1.08 0.010702,0.2768855 0.1059795,0.44 0.2570078,0.44 0.1769058,0 0.2451387,0.1997986 0.2595469,0.76 0.01075,0.418 0.025306,0.9580001 0.032345,1.2000001 0.0072,0.2474092 0.1036903,0.44 0.2204532,0.44 0.11421,0 0.2186211,0.126 0.2320247,0.28 0.013403,0.154 0.041099,0.352 0.061544,0.44 0.020445,0.088 0.045479,0.4350077 0.05563,0.7711282 0.015968,0.5287614 0.064477,0.6042371 0.3599115,0.56 0.297994,-0.04462 0.345706,-0.1673741 0.374852,-0.9644332 0.01837,-0.5023176 0.119131,-1.016607 0.223916,-1.1428651 0.109952,-0.132485 0.178108,-0.6431504 0.161171,-1.2076029 -0.02223,-0.740706 0.03934,-1.0539434 0.253715,-1.2908234 0.18735,-0.2070195 0.258778,-0.4782451 0.211242,-0.8021291 -0.08671,-0.5907671 0.178275,-0.8533873 0.72309,-0.7166473 0.356499,0.089476 0.400703,0.1845512 0.406038,0.8733273 0.0039,0.5070779 -0.06856,0.8015272 -0.210752,0.8560917 -0.150798,0.057866 -0.219205,0.404432 -0.224844,1.1391009 -0.0056,0.7343546 -0.08406,1.1318886 -0.25752,1.3053473 -0.190824,0.1908237 -0.225038,0.4331933 -0.145642,1.0317126 0.07825,0.5898501 0.04959,0.8031741 -0.116473,0.8671655 -0.121137,0.046678 -0.236134,0.3099093 -0.25555,0.5849583 -0.01942,0.275049 -0.145416,0.621764 -0.28,0.770478 C 10.990114,11.023522 10.88,11.414261 10.88,11.743117 c 0,0.597241 -0.229534,1.221409 -0.44563,1.211795 -0.0629,-0.0028 -0.24037,-0.100736 -0.39437,-0.217639 z m 67.141033,-0.009 c -0.04891,-0.127448 0.06135,-0.393025 0.245022,-0.59017 0.356045,-0.382169 0.436925,-0.855573 0.173943,-1.018105 -0.088,-0.05439 -0.16,-0.381265 -0.16,-0.726395 0,-0.6384707 0.101809,-0.7241674 0.96,-0.8080589 0.930307,-0.090941 0.96,-0.05602 0.96,1.1290679 0,1.034135 -0.03747,1.155438 -0.518893,1.68 C 78.448892,12.821971 78.193767,12.96 77.796084,12.96 c -0.311722,0 -0.562366,-0.09443 -0.615051,-0.231724 z M 15.68,12.64 14.16,12.56 v -0.48 c 0,-0.404713 0.06902,-0.487941 0.440061,-0.530633 0.242034,-0.02785 0.514892,-0.190455 0.606351,-0.361348 0.169472,-0.316662 0.203108,-5.5865002 0.04103,-6.4280189 -0.06318,-0.3280078 -0.178479,-0.44 -0.453008,-0.44 -0.845752,0 -1.177329,-0.4666363 -0.564592,-0.7945634 0.767562,-0.4107869 3.6018,-0.2897723 3.619974,0.1545634 0.01667,0.4074869 -0.265628,0.6421277 -0.654977,0.5444077 -0.659619,-0.1655539 -0.754192,0.3246814 -0.735517,3.8126941 0.0094,1.753187 0.06213,3.2605181 0.117197,3.3496251 0.05704,0.0923 0.334192,0.118101 0.644118,0.05996 0.468693,-0.08793 0.562906,-0.05116 0.680653,0.265631 C 18.207508,12.536188 17.703879,12.74652 15.68,12.64 Z m 55.256375,-0.910837 c -0.351784,-0.247449 -1.016377,-1.700518 -1.016377,-2.2222111 0,-0.9799923 1.148181,-0.8713579 1.36799,0.1294315 0.139506,0.6351586 0.477293,0.9118306 1.121429,0.9185286 0.786653,0.0082 1.076563,-0.319057 1.189192,-1.3422924 0.136714,-1.2420533 -0.308026,-1.9920842 -1.325462,-2.2353254 -0.834674,-0.1995473 -0.684335,-1.0543321 0.186441,-1.060059 0.920794,-0.00606 1.407893,-1.6552397 0.605008,-2.0483849 -0.938587,-0.4595941 -1.400545,-0.2777 -2.084619,0.8208106 -0.213386,0.3426634 -0.382331,0.437844 -0.709998,0.4 -0.369024,-0.04262 -0.436933,-0.1332376 -0.479016,-0.6391962 -0.03839,-0.4615203 0.02241,-0.6277736 0.28,-0.7656294 0.180969,-0.096852 0.329035,-0.3087448 0.329035,-0.4708735 0,-0.4732773 0.332941,-0.6272913 1.605294,-0.7425889 1.3616,-0.1233852 2.510927,0.1949801 2.337303,0.6474369 -0.05666,0.1476536 0.06018,0.3404698 0.302547,0.4992736 0.506862,0.3321092 0.532697,1.168433 0.05601,1.8131847 -0.186365,0.2520708 -0.288167,0.5403092 -0.226226,0.64053 0.06194,0.1002208 0.02574,0.2868958 -0.08044,0.4148336 -0.15521,0.1870168 -0.115037,0.3348965 0.204942,0.7544107 0.341082,0.4471819 0.399483,0.6973968 0.408416,1.7498005 0.0075,0.8806775 -0.05439,1.2817901 -0.218715,1.4181711 -0.126027,0.104593 -0.229139,0.323693 -0.229139,0.486889 0,0.519157 -0.701618,0.814163 -2.118826,0.890892 -0.726646,0.03934 -1.403805,0.01341 -1.504797,-0.05763 z m 11.088026,-0.342437 c -0.542143,-0.418297 -1.064403,-1.318591 -1.064403,-1.8348595 0,-0.6094618 1.490353,-0.6355073 1.82343,-0.031866 0.258411,0.4683226 0.429345,0.5548275 1.101725,0.5575495 0.702427,0.0028 0.868864,-0.2658327 0.824956,-1.3317113 C 84.695021,8.3796274 84.673077,7.8485335 84.66134,7.5656296 84.634756,6.9249254 84.049569,6.5112013 83.800194,6.9568058 83.464737,7.5562373 81.729538,7.9283608 81.542513,7.4409792 81.492066,7.3095178 81.401828,6.1656891 81.341983,4.8991377 81.2385,2.7089924 81.248674,2.5880223 81.549948,2.4267858 81.9255,2.2257965 85.431193,2.1144293 85.719997,2.2943138 c 0.308432,0.1921099 0.236855,0.7147039 -0.124371,0.9080253 -0.178403,0.095479 -0.592403,0.1609271 -0.92,0.1454402 -0.827542,-0.039121 -1.306117,0.1503121 -1.392875,0.5513395 -0.210741,0.9741176 -0.206518,0.9819834 0.517246,0.9637578 0.374,-0.00942 0.68,0.044582 0.68,0.12 0,0.075418 0.175364,0.1371235 0.389698,0.1371235 0.305142,0 0.539474,0.2318975 1.08,1.0687797 0.379666,0.5878288 0.66985,1.2178289 0.644853,1.4000001 -0.025,0.1821712 -0.07039,0.7510163 -0.10088,1.2641005 -0.03049,0.5130841 -0.136035,1.0134841 -0.234551,1.112 -0.09852,0.098516 -0.181057,0.2907196 -0.183424,0.4271196 -0.0024,0.1364 -0.206385,0.491646 -0.453372,0.789436 -0.434944,0.524405 -0.489895,0.54286 -1.746962,0.586726 -1.196648,0.04176 -1.341035,0.012 -1.850958,-0.381436 z m 6.855596,0.332444 c -0.859201,-0.138623 -1.035038,-0.236206 -1.268342,-0.703874 -0.138411,-0.277453 -0.251658,-0.603658 -0.251658,-0.724899 0,-0.121242 -0.108,-0.261883 -0.24,-0.3125366 -0.132,-0.050653 -0.24,-0.2687397 -0.24,-0.4846368 0,-0.355628 0.0563,-0.3878708 0.598669,-0.3428818 0.446938,0.037073 0.613877,0.1297507 0.658667,0.3656691 0.09002,0.4741133 0.506132,0.7132301 1.251052,0.7189011 0.916086,0.007 1.315491,-0.4908241 1.246694,-1.5538212 -0.04822,-0.7451241 -0.06044,-0.7611626 -0.58217,-0.7645213 -0.293102,-0.00189 -0.712912,0.039568 -0.932912,0.092123 -0.402086,0.096052 -1.361646,-0.1088094 -1.703516,-0.363693 -0.35137,-0.2619652 -0.67578,-1.6486902 -0.670543,-2.8663093 0.0048,-1.1213855 0.03654,-1.2380557 0.387683,-1.4259816 0.284064,-0.1520261 0.339031,-0.256968 0.213698,-0.4079858 -0.450286,-0.5425616 1.851403,-1.0112935 3.209025,-0.6535079 0.480591,0.126654 0.778612,0.3143788 0.905532,0.5703996 0.104049,0.209888 0.273126,0.4334953 0.375726,0.4969053 0.236731,0.1463078 0.303384,0.9498334 0.317286,3.8249647 0.0087,1.8050117 -0.04145,2.383744 -0.231876,2.6743708 -0.133658,0.2039877 -0.244258,0.4634197 -0.24578,0.5765157 -0.0028,0.206104 -0.512454,0.7457 -0.951384,1.007218 -0.295526,0.176076 -1.423567,0.345712 -1.845851,0.277581 z M 90.166432,6.2346595 C 90.447058,6.0017603 90.59544,4.8744932 90.43721,4.1775427 90.258333,3.3896506 89.840562,3.1668268 89.055993,3.4408519 c -0.813885,0.2842639 -0.926938,0.4782685 -0.838642,1.4391482 0.100038,1.0886613 0.145157,1.2469663 0.422646,1.4829079 0.270036,0.2296038 1.1882,0.1524611 1.526435,-0.1282485 z M 21.43375,11.147693 C 21.102313,10.983159 21.032347,10.819905 20.991638,10.116112 20.938326,9.1944193 20.77854,9.0940674 20.211894,9.6264037 19.911249,9.9088458 19.775574,9.9420111 19.477108,9.8060209 18.728735,9.4650389 19.203716,8.423244 20.230563,8.1534411 20.854719,7.9894443 20.673711,6.8880314 20.020409,6.8746771 19.343457,6.8608387 18.742867,5.8487024 19.112028,5.3438428 19.338534,5.034079 19.98075,5.1236075 20.377382,5.5202403 20.832231,5.9750886 20.976987,5.804972 20.863441,4.949026 l -0.107579,-0.8109741 0.622069,0.050974 c 0.528574,0.043313 0.628801,0.1110922 0.66686,0.4509741 0.02464,0.22 0.0811,0.5663498 0.125476,0.7696663 l 0.08068,0.3696661 0.552101,-0.3412177 c 0.675024,-0.417187 1.15695,-0.3127524 1.15695,0.2507137 0,0.2559633 -0.170032,0.5279875 -0.472275,0.7555657 -0.259752,0.1955832 -0.643265,0.5243583 -0.852254,0.7306109 -0.357191,0.3525165 -0.363651,0.3908967 -0.107723,0.64 0.149739,0.1457474 0.535312,0.3985951 0.856828,0.5618841 0.554903,0.2818185 0.804463,0.7359957 0.653411,1.1891497 -0.108728,0.3261867 -1.05669,0.2329053 -1.280854,-0.1260386 -0.346786,-0.5552922 -0.517132,-0.3509262 -0.517132,0.6204088 0,1.100765 -0.209628,1.383463 -0.806249,1.087284 z M 49.759999,4.8000001 c 0,-0.088 0.072,-0.16 0.159999,-0.16 0.088,0 0.16,0.072 0.16,0.16 0,0.088 -0.072,0.16 -0.16,0.16 -0.088,0 -0.159999,-0.072 -0.159999,-0.16 z"
       id="path437"
       sodipodi:nodetypes="ssssscssssssssssssssssssscssscssssssssssssscssccsccsssssscccssssssssssssssssssssssssssssssssssscsscsssssssssssssssssssssssscsssssssssssssssssssssssssssssssssssssscsssssssssssssssssssssssscssscssscsscccsccssssscscssssscssssssssscssssssscsssccssssssssssssccsssssssssssssscssssssssssssssscsscsscsssssssssssssssssssssssscssssssssssssssssssssssscsssssssscscscssssssssssscsssscsssssscsssssssssscssssssscscscscscscssssssssssssssscssscsssscscssssscsssssssssssssssscsssssssscssssssssssssssssscsssssssssscsssscssssscscssssssssssssssssscscscsssssssssssssss" />
  </g>
</svg>
