<?xml version="1.0" encoding="UTF-8" standalone="no"?>
<!-- Created with Inkscape (http://www.inkscape.org/) -->

<svg
   width="1.3429945mm"
   height="2.5250597mm"
   viewBox="0 0 1.3429945 2.5250597"
   version="1.1"
   id="svg683"
   inkscape:version="1.2.2 (b0a84865, 2022-12-01)"
   sodipodi:docname="0.svg"
   xmlns:inkscape="http://www.inkscape.org/namespaces/inkscape"
   xmlns:sodipodi="http://sodipodi.sourceforge.net/DTD/sodipodi-0.dtd"
   xmlns="http://www.w3.org/2000/svg"
   xmlns:svg="http://www.w3.org/2000/svg">
  <sodipodi:namedview
     id="namedview685"
     pagecolor="#ffffff"
     bordercolor="#666666"
     borderopacity="1.0"
     inkscape:showpageshadow="2"
     inkscape:pageopacity="0.0"
     inkscape:pagecheckerboard="0"
     inkscape:deskcolor="#d1d1d1"
     inkscape:document-units="mm"
     showgrid="false"
     inkscape:zoom="0.2102413"
     inkscape:cx="-80.859469"
     inkscape:cy="4.7564393"
     inkscape:window-width="802"
     inkscape:window-height="480"
     inkscape:window-x="0"
     inkscape:window-y="25"
     inkscape:window-maximized="0"
     inkscape:current-layer="layer1" />
  <defs
     id="defs680" />
  <g
     inkscape:label="Livello 1"
     inkscape:groupmode="layer"
     id="layer1"
     transform="translate(-103.78171,-147.23754)">
    <path
       d="m 104.06775,149.61316 c -0.0842,-0.0862 -0.1536,-0.18446 -0.15434,-0.2184 -7.4e-4,-0.034 -0.0293,-0.0987 -0.0635,-0.14389 -0.0917,-0.1212 -0.0905,-1.42859 0.001,-1.52045 0.0349,-0.0349 0.0636,-0.0887 0.0637,-0.11944 1.3e-4,-0.0308 0.0658,-0.12737 0.14601,-0.21469 0.13723,-0.14941 0.16065,-0.15875 0.3984,-0.15875 0.24198,0 0.25774,0.007 0.37462,0.15875 0.25803,0.33571 0.25665,0.33037 0.28,1.0888 0.0216,0.70003 0.0201,0.71584 -0.084,0.9072 -0.14845,0.27288 -0.27537,0.35513 -0.56689,0.36737 -0.22935,0.01 -0.25053,0.002 -0.39533,-0.1465 z m 0.48547,-0.17428 c 0.0926,0 0.12353,-0.0199 0.12353,-0.0795 0,-0.0437 0.0297,-0.10412 0.066,-0.13425 0.0563,-0.0467 0.063,-0.15184 0.0453,-0.71738 -0.0181,-0.58145 -0.0319,-0.68169 -0.1125,-0.81826 -0.0763,-0.12932 -0.11545,-0.15562 -0.23163,-0.15562 -0.11562,0 -0.15535,0.0263 -0.22964,0.15226 -0.0807,0.13672 -0.0902,0.21977 -0.0938,0.81328 -0.003,0.45209 0.011,0.66599 0.0433,0.67676 0.026,0.009 0.0473,0.058 0.0473,0.10959 0,0.11473 0.0831,0.20511 0.16102,0.1752 0.0317,-0.0121 0.11316,-0.0221 0.18111,-0.0221 z"
       style="fill:#000000;stroke-width:0.0423333"
       id="path678" />
  </g>
</svg>
