<?xml version="1.0" encoding="UTF-8" standalone="no"?>
<!-- Created with Inkscape (http://www.inkscape.org/) -->

<svg
   width="0.70067608mm"
   height="2.5861869mm"
   viewBox="0 0 0.70067608 2.5861869"
   version="1.1"
   id="svg734"
   inkscape:version="1.2.2 (b0a84865, 2022-12-01)"
   sodipodi:docname="1.svg"
   xmlns:inkscape="http://www.inkscape.org/namespaces/inkscape"
   xmlns:sodipodi="http://sodipodi.sourceforge.net/DTD/sodipodi-0.dtd"
   xmlns="http://www.w3.org/2000/svg"
   xmlns:svg="http://www.w3.org/2000/svg">
  <sodipodi:namedview
     id="namedview736"
     pagecolor="#ffffff"
     bordercolor="#666666"
     borderopacity="1.0"
     inkscape:showpageshadow="2"
     inkscape:pageopacity="0.0"
     inkscape:pagecheckerboard="0"
     inkscape:deskcolor="#d1d1d1"
     inkscape:document-units="mm"
     showgrid="false"
     inkscape:zoom="0.2102413"
     inkscape:cx="-85.615908"
     inkscape:cy="4.7564393"
     inkscape:window-width="802"
     inkscape:window-height="480"
     inkscape:window-x="0"
     inkscape:window-y="25"
     inkscape:window-maximized="0"
     inkscape:current-layer="layer1" />
  <defs
     id="defs731" />
  <g
     inkscape:label="Livello 1"
     inkscape:groupmode="layer"
     id="layer1"
     transform="translate(-104.10305,-147.20704)">
    <path
       d="m 104.5577,149.74151 c -0.025,-0.0302 -0.0449,-0.0921 -0.0441,-0.13758 7.6e-4,-0.0455 -0.008,-0.3399 -0.0203,-0.65422 -0.0119,-0.31433 -0.023,-0.69922 -0.0245,-0.85533 l -0.003,-0.28383 -0.14666,-0.0275 c -0.0807,-0.0151 -0.16559,-0.0503 -0.18872,-0.0782 -0.0657,-0.0791 -0.006,-0.22702 0.10328,-0.25435 0.0542,-0.0136 0.15242,-0.0773 0.21825,-0.14158 0.14034,-0.13699 0.29164,-0.13568 0.32373,0.003 0.0118,0.0511 0.0239,0.60033 0.0268,1.2206 0.005,0.98474 -0.003,1.13642 -0.0629,1.19592 -0.0825,0.0825 -0.12209,0.0854 -0.18193,0.0133 z"
       style="fill:#000000;stroke-width:0.0423333"
       id="path729" />
  </g>
</svg>
