<?xml version="1.0" encoding="UTF-8" standalone="no"?>
<!-- Created with Inkscape (http://www.inkscape.org/) -->

<svg
   width="1.2797085mm"
   height="2.5296466mm"
   viewBox="0 0 1.2797085 2.5296466"
   version="1.1"
   id="svg1093"
   inkscape:version="1.2.2 (b0a84865, 2022-12-01)"
   sodipodi:docname="2.svg"
   xmlns:inkscape="http://www.inkscape.org/namespaces/inkscape"
   xmlns:sodipodi="http://sodipodi.sourceforge.net/DTD/sodipodi-0.dtd"
   xmlns="http://www.w3.org/2000/svg"
   xmlns:svg="http://www.w3.org/2000/svg">
  <sodipodi:namedview
     id="namedview1095"
     pagecolor="#ffffff"
     bordercolor="#666666"
     borderopacity="1.0"
     inkscape:showpageshadow="2"
     inkscape:pageopacity="0.0"
     inkscape:pagecheckerboard="0"
     inkscape:deskcolor="#d1d1d1"
     inkscape:document-units="mm"
     showgrid="false"
     inkscape:zoom="0.2102413"
     inkscape:cx="-80.859469"
     inkscape:cy="4.7564393"
     inkscape:window-width="802"
     inkscape:window-height="480"
     inkscape:window-x="0"
     inkscape:window-y="25"
     inkscape:window-maximized="0"
     inkscape:current-layer="layer1" />
  <defs
     id="defs1090" />
  <g
     inkscape:label="Livello 1"
     inkscape:groupmode="layer"
     id="layer1"
     transform="translate(-103.81353,-147.23504)">
    <path
       d="m 103.87262,149.7168 c -0.08,-0.08 -0.053,-0.23144 0.0797,-0.44717 0.0699,-0.11352 0.127,-0.23013 0.127,-0.25913 0,-0.029 0.0476,-0.0902 0.10583,-0.13597 0.0582,-0.0458 0.10584,-0.10172 0.10584,-0.1243 0,-0.0444 0.0171,-0.068 0.21067,-0.29033 0.0704,-0.0808 0.12799,-0.18263 0.12799,-0.22615 0,-0.0435 0.0379,-0.12725 0.0841,-0.18604 0.0463,-0.0588 0.0707,-0.12848 0.0542,-0.15485 -0.0164,-0.0264 -0.0243,-0.0908 -0.0176,-0.14319 0.008,-0.0616 -0.01,-0.0953 -0.0507,-0.0953 -0.0346,0 -0.0694,-0.0167 -0.0771,-0.0372 -0.008,-0.0205 -0.0723,-0.0497 -0.14333,-0.065 -0.1777,-0.0383 -0.35761,0.11372 -0.35761,0.30215 0,0.15507 -0.0501,0.19891 -0.18789,0.16434 -0.13242,-0.0332 -0.15989,-0.1999 -0.06,-0.36412 0.0432,-0.0711 0.0786,-0.16556 0.0786,-0.20999 0,-0.0444 0.0381,-0.0929 0.0847,-0.10767 0.0466,-0.0148 0.0847,-0.0425 0.0847,-0.0617 0,-0.0192 0.13689,-0.0369 0.30421,-0.0395 0.25786,-0.004 0.31913,0.009 0.40216,0.0874 0.0539,0.0506 0.098,0.13633 0.098,0.19048 0,0.0571 0.0254,0.0984 0.0604,0.0984 0.0995,0 0.13345,0.42236 0.0473,0.58894 -0.0384,0.0743 -0.0974,0.14566 -0.13114,0.1586 -0.0337,0.0129 -0.0613,0.0614 -0.0613,0.10771 0,0.0945 -0.12734,0.33008 -0.17846,0.33008 -0.0183,0 -0.0332,0.0255 -0.0332,0.0567 0,0.0312 -0.0762,0.12721 -0.16934,0.21338 -0.10825,0.10015 -0.16933,0.19383 -0.16933,0.2597 0,0.10044 0.008,0.10298 0.32808,0.10112 0.18045,-0.001 0.36142,0.011 0.40217,0.0268 0.0973,0.0377 0.0956,0.21685 -0.003,0.26939 -0.10863,0.0581 -1.0867,0.0516 -1.14596,-0.008 z"
       style="fill:#000000;stroke-width:0.0423333"
       id="path1088" />
  </g>
</svg>
