<?xml version="1.0" encoding="UTF-8" standalone="no"?>
<!-- Created with Inkscape (http://www.inkscape.org/) -->

<svg
   width="1.26984mm"
   height="2.5594821mm"
   viewBox="0 0 1.26984 2.5594821"
   version="1.1"
   id="svg412"
   inkscape:version="1.2.2 (b0a84865, 2022-12-01)"
   sodipodi:docname="3.svg"
   xmlns:inkscape="http://www.inkscape.org/namespaces/inkscape"
   xmlns:sodipodi="http://sodipodi.sourceforge.net/DTD/sodipodi-0.dtd"
   xmlns="http://www.w3.org/2000/svg"
   xmlns:svg="http://www.w3.org/2000/svg">
  <sodipodi:namedview
     id="namedview414"
     pagecolor="#ffffff"
     bordercolor="#666666"
     borderopacity="1.0"
     inkscape:showpageshadow="2"
     inkscape:pageopacity="0.0"
     inkscape:pagecheckerboard="0"
     inkscape:deskcolor="#d1d1d1"
     inkscape:document-units="mm"
     showgrid="false"
     inkscape:zoom="0.2102413"
     inkscape:cx="-80.859469"
     inkscape:cy="4.7564393"
     inkscape:window-width="802"
     inkscape:window-height="480"
     inkscape:window-x="0"
     inkscape:window-y="25"
     inkscape:window-maximized="0"
     inkscape:current-layer="layer1" />
  <defs
     id="defs409" />
  <g
     inkscape:label="Livello 1"
     inkscape:groupmode="layer"
     id="layer1"
     transform="translate(-103.8184,-147.21959)">
    <path
       d="m 104.61482,149.77749 c -0.007,-0.007 -0.12673,-0.0218 -0.26543,-0.0333 -0.20619,-0.0171 -0.26987,-0.0415 -0.34925,-0.13374 -0.0534,-0.0621 -0.0971,-0.1499 -0.0971,-0.19516 0,-0.0453 -0.019,-0.0823 -0.0423,-0.0823 -0.0233,0 -0.0423,-0.087 -0.0423,-0.19331 0,-0.18591 0.004,-0.1928 0.11641,-0.17992 0.0987,0.0114 0.11854,0.0357 0.13037,0.16012 0.0206,0.21706 0.15466,0.32724 0.40158,0.33015 0.15267,0.002 0.21048,-0.0153 0.23021,-0.0679 0.0145,-0.0387 0.0516,-0.0893 0.0824,-0.11263 0.0417,-0.0314 0.0489,-0.11052 0.0283,-0.30728 -0.0316,-0.30184 -0.15245,-0.47589 -0.33031,-0.47589 -0.0782,0 -0.11404,-0.0279 -0.133,-0.10342 -0.0367,-0.14626 0.007,-0.19291 0.18062,-0.19291 0.20255,0 0.3275,-0.1379 0.28735,-0.31714 -0.0157,-0.0701 -0.0298,-0.15117 -0.0315,-0.18028 -0.002,-0.0291 -0.0263,-0.0529 -0.0549,-0.0529 -0.0286,0 -0.0613,-0.0243 -0.0727,-0.0541 -0.0309,-0.0807 -0.40849,-0.088 -0.43899,-0.009 -0.0132,0.0345 -0.049,0.0627 -0.0795,0.0627 -0.0305,0 -0.0629,0.0225 -0.0721,0.0499 -0.0109,0.0326 -0.0452,0.0376 -0.0988,0.0144 -0.0452,-0.0195 -0.0983,-0.0318 -0.11804,-0.0274 -0.0198,0.004 0.003,-0.0414 0.0506,-0.10182 0.0476,-0.0605 0.076,-0.13728 0.0631,-0.17072 -0.0144,-0.0376 0.003,-0.0608 0.046,-0.0608 0.0381,0 0.08,-0.0277 0.093,-0.0615 0.013,-0.0338 0.0743,-0.0616 0.13626,-0.0617 0.22144,-4.5e-4 0.45219,0.002 0.50362,0.006 0.0288,0.002 0.0634,0.0389 0.0769,0.0816 0.0135,0.0427 0.0456,0.0776 0.0712,0.0776 0.0256,0 0.035,0.0115 0.0209,0.0256 -0.0141,0.0141 0.019,0.0703 0.0735,0.12485 0.0784,0.0784 0.0996,0.14615 0.10092,0.32285 0.001,0.12594 -0.0225,0.25174 -0.0537,0.28791 -0.10625,0.12305 -0.1172,0.28904 -0.0252,0.38109 0.0728,0.0728 0.0853,0.14081 0.0853,0.46279 0,0.2076 -0.0143,0.38382 -0.0318,0.39158 -0.0175,0.008 -0.0699,0.0892 -0.11641,0.18096 -0.0555,0.10935 -0.12386,0.17713 -0.19841,0.1967 -0.0626,0.0164 -0.1197,0.0243 -0.127,0.0174 z m -0.79642,-1.83869 c 0,-0.0694 0.0268,-0.0875 0.1301,-0.0875 0.10104,0 0.12697,0.0166 0.11605,0.0741 -0.008,0.0447 -0.0601,0.0794 -0.1301,0.0875 -0.0934,0.0108 -0.11605,-0.004 -0.11605,-0.0741 z"
       style="fill:#000000;stroke-width:0.0423333"
       id="path407" />
  </g>
</svg>
