<?xml version="1.0" encoding="UTF-8" standalone="no"?>
<!-- Created with Inkscape (http://www.inkscape.org/) -->

<svg
   width="1.311175mm"
   height="2.5765042mm"
   viewBox="0 0 1.311175 2.5765042"
   version="1.1"
   id="svg616"
   inkscape:version="1.2.2 (b0a84865, 2022-12-01)"
   sodipodi:docname="4.svg"
   xmlns:inkscape="http://www.inkscape.org/namespaces/inkscape"
   xmlns:sodipodi="http://sodipodi.sourceforge.net/DTD/sodipodi-0.dtd"
   xmlns="http://www.w3.org/2000/svg"
   xmlns:svg="http://www.w3.org/2000/svg">
  <sodipodi:namedview
     id="namedview618"
     pagecolor="#ffffff"
     bordercolor="#666666"
     borderopacity="1.0"
     inkscape:showpageshadow="2"
     inkscape:pageopacity="0.0"
     inkscape:pagecheckerboard="0"
     inkscape:deskcolor="#d1d1d1"
     inkscape:document-units="mm"
     showgrid="false"
     inkscape:zoom="0.2102413"
     inkscape:cx="-80.859469"
     inkscape:cy="4.7564393"
     inkscape:window-width="802"
     inkscape:window-height="480"
     inkscape:window-x="0"
     inkscape:window-y="25"
     inkscape:window-maximized="0"
     inkscape:current-layer="layer1" />
  <defs
     id="defs613" />
  <g
     inkscape:label="Livello 1"
     inkscape:groupmode="layer"
     id="layer1"
     transform="translate(-103.79779,-147.21175)">
    <path
       d="m 104.58861,149.74584 c -0.0593,-0.0345 -0.0751,-0.0902 -0.0688,-0.24213 0.0131,-0.31457 -0.0217,-0.35946 -0.25505,-0.32851 -0.10987,0.0146 -0.25759,0.005 -0.33237,-0.0207 -0.12345,-0.043 -0.1346,-0.0622 -0.1346,-0.23117 0,-0.13083 0.0215,-0.19677 0.0741,-0.22741 0.0407,-0.0237 0.0595,-0.0437 0.0416,-0.0444 -0.0405,-0.002 0.16301,-0.40873 0.22285,-0.44571 0.0241,-0.0149 0.0324,-0.0457 0.0183,-0.0684 -0.014,-0.0227 0.005,-0.0874 0.0416,-0.14375 0.0369,-0.0564 0.0671,-0.12878 0.0671,-0.16091 0,-0.0321 0.0381,-0.0929 0.0847,-0.13505 0.0466,-0.0421 0.0847,-0.10796 0.0847,-0.14626 0,-0.0383 0.0204,-0.09 0.0453,-0.11491 0.0249,-0.0249 0.0504,-0.0811 0.0567,-0.12488 0.0162,-0.11292 0.27759,-0.14013 0.28227,-0.0294 0.002,0.0422 0.0101,0.11349 0.0185,0.15837 0.008,0.0449 0.0201,0.35576 0.0261,0.69084 l 0.0108,0.60923 0.11885,0.0846 c 0.15159,0.10794 0.15765,0.25927 0.013,0.32516 -0.0725,0.033 -0.10792,0.0852 -0.11245,0.16555 -0.004,0.0645 -0.0104,0.17268 -0.0149,0.24034 -0.005,0.0677 -0.0433,0.14863 -0.0861,0.17992 -0.0921,0.0673 -0.10199,0.0678 -0.20215,0.01 z m -0.13118,-0.96863 c 0.0451,0 0.06,-0.063 0.06,-0.254 0,-0.14999 -0.0183,-0.254 -0.0447,-0.254 -0.061,0 -0.26437,0.45319 -0.22906,0.51032 0.0156,0.0252 0.0565,0.035 0.091,0.0217 0.0345,-0.0132 0.0897,-0.0241 0.12272,-0.0241 z"
       style="fill:#000000;stroke-width:0.0423333"
       id="path611" />
  </g>
</svg>
