<?xml version="1.0" encoding="UTF-8" standalone="no"?>
<!-- Created with Inkscape (http://www.inkscape.org/) -->

<svg
   width="1.3377867mm"
   height="2.6495497mm"
   viewBox="0 0 1.3377867 2.6495497"
   version="1.1"
   id="svg785"
   inkscape:version="1.2.2 (b0a84865, 2022-12-01)"
   sodipodi:docname="5.svg"
   xmlns:inkscape="http://www.inkscape.org/namespaces/inkscape"
   xmlns:sodipodi="http://sodipodi.sourceforge.net/DTD/sodipodi-0.dtd"
   xmlns="http://www.w3.org/2000/svg"
   xmlns:svg="http://www.w3.org/2000/svg">
  <sodipodi:namedview
     id="namedview787"
     pagecolor="#ffffff"
     bordercolor="#666666"
     borderopacity="1.0"
     inkscape:showpageshadow="2"
     inkscape:pageopacity="0.0"
     inkscape:pagecheckerboard="0"
     inkscape:deskcolor="#d1d1d1"
     inkscape:document-units="mm"
     showgrid="false"
     inkscape:zoom="0.2102413"
     inkscape:cx="-80.859469"
     inkscape:cy="4.7564393"
     inkscape:window-width="802"
     inkscape:window-height="480"
     inkscape:window-x="0"
     inkscape:window-y="25"
     inkscape:window-maximized="0"
     inkscape:current-layer="layer1" />
  <defs
     id="defs782" />
  <g
     inkscape:label="Livello 1"
     inkscape:groupmode="layer"
     id="layer1"
     transform="translate(-103.78501,-147.17547)">
    <path
       d="m 104.04805,149.72518 c -0.0611,-0.0659 -0.11117,-0.14296 -0.11117,-0.17115 0,-0.0282 -0.0333,-0.0707 -0.0741,-0.0944 -0.0407,-0.0237 -0.0591,-0.0437 -0.0408,-0.0444 0.0183,-7.1e-4 0.0145,-0.0363 -0.008,-0.0791 -0.11714,-0.21887 0.14825,-0.39436 0.31021,-0.20511 0.0486,0.0567 0.12131,0.11431 0.16166,0.12794 0.0404,0.0136 0.0637,0.0499 0.052,0.0806 -0.0363,0.0945 0.18568,0.0817 0.32129,-0.0185 0.11941,-0.0883 0.12482,-0.10635 0.12347,-0.41246 -0.001,-0.24964 -0.0189,-0.34109 -0.0809,-0.41537 -0.10981,-0.13163 -0.25926,-0.1199 -0.40455,0.0318 -0.12536,0.13085 -0.35671,0.17806 -0.36307,0.0741 -0.002,-0.0291 -0.0121,-0.31676 -0.0228,-0.63924 -0.0204,-0.61061 2.6e-4,-0.70485 0.15473,-0.70485 0.0418,0 0.0823,-0.0181 0.0901,-0.0402 0.0177,-0.0506 0.29811,-0.0526 0.7186,-0.005 0.052,0.006 0.082,0.2232 0.0381,0.27612 -0.028,0.0337 -0.15286,0.0529 -0.34038,0.0523 -0.16288,-5.5e-4 -0.30391,0.007 -0.3134,0.0167 -0.0276,0.0284 -0.0357,0.12861 -0.0303,0.37547 0.004,0.17944 0.0163,0.21943 0.0558,0.17992 0.0279,-0.0279 0.147,-0.0502 0.26458,-0.0494 0.23468,0.002 0.40428,0.10198 0.40428,0.23939 0,0.0435 0.0381,0.11168 0.0847,0.15155 0.0734,0.0629 0.0847,0.12488 0.0847,0.46661 0,0.22926 -0.0194,0.41352 -0.0464,0.4405 -0.0255,0.0255 -0.0878,0.12933 -0.13838,0.23072 -0.0911,0.18255 -0.0942,0.18438 -0.32403,0.1897 -0.12762,0.003 -0.28202,0.019 -0.34311,0.0357 -0.0895,0.0244 -0.13266,0.007 -0.22225,-0.0896 z"
       style="fill:#000000;stroke-width:0.0423333"
       id="path780" />
  </g>
</svg>
