<?xml version="1.0" encoding="UTF-8" standalone="no"?>
<!-- Created with Inkscape (http://www.inkscape.org/) -->

<svg
   width="1.3131204mm"
   height="2.5444164mm"
   viewBox="0 0 1.3131204 2.5444164"
   version="1.1"
   id="svg989"
   inkscape:version="1.2.2 (b0a84865, 2022-12-01)"
   sodipodi:docname="6.svg"
   xmlns:inkscape="http://www.inkscape.org/namespaces/inkscape"
   xmlns:sodipodi="http://sodipodi.sourceforge.net/DTD/sodipodi-0.dtd"
   xmlns="http://www.w3.org/2000/svg"
   xmlns:svg="http://www.w3.org/2000/svg">
  <sodipodi:namedview
     id="namedview991"
     pagecolor="#ffffff"
     bordercolor="#666666"
     borderopacity="1.0"
     inkscape:showpageshadow="2"
     inkscape:pageopacity="0.0"
     inkscape:pagecheckerboard="0"
     inkscape:deskcolor="#d1d1d1"
     inkscape:document-units="mm"
     showgrid="false"
     inkscape:zoom="0.2102413"
     inkscape:cx="-80.859469"
     inkscape:cy="4.7564393"
     inkscape:window-width="802"
     inkscape:window-height="480"
     inkscape:window-x="0"
     inkscape:window-y="25"
     inkscape:window-maximized="0"
     inkscape:current-layer="layer1" />
  <defs
     id="defs986" />
  <g
     inkscape:label="Livello 1"
     inkscape:groupmode="layer"
     id="layer1"
     transform="translate(-103.79616,-147.2278)">
    <path
       d="m 104.09874,149.7315 c -0.047,-0.0329 -0.13309,-0.16394 -0.19126,-0.29112 -0.10052,-0.21976 -0.1059,-0.27085 -0.10832,-1.02981 l -0.003,-0.79858 0.12927,-0.14153 c 0.0711,-0.0779 0.12927,-0.16386 0.12927,-0.19114 0,-0.0755 0.71991,-0.0648 0.74905,0.0111 0.0121,0.0316 0.0486,0.0574 0.081,0.0574 0.0324,0 0.059,0.0358 0.059,0.0795 0,0.0437 0.0286,0.1032 0.0635,0.13218 0.0829,0.0688 0.0857,0.33867 0.003,0.33867 -0.033,0 -0.0884,0.0109 -0.12299,0.0241 -0.0444,0.017 -0.0713,-0.0141 -0.0915,-0.10578 -0.0374,-0.17046 -0.16837,-0.25704 -0.38869,-0.25704 -0.22572,0 -0.31048,0.10658 -0.31048,0.39042 0,0.21661 0.006,0.22454 0.12604,0.16043 0.043,-0.023 0.18907,-0.0495 0.32467,-0.0589 0.21883,-0.0152 0.25731,-0.005 0.34241,0.0863 0.0527,0.0569 0.0959,0.13676 0.0959,0.17747 0,0.0407 0.019,0.0931 0.0423,0.11633 0.0233,0.0233 0.0542,0.23631 0.0688,0.47343 0.023,0.37451 0.0175,0.43459 -0.0423,0.45752 -0.0378,0.0145 -0.0688,0.065 -0.0688,0.11227 0,0.1381 -0.20208,0.29709 -0.35002,0.27538 -0.0691,-0.0102 -0.19913,-0.005 -0.28894,0.0114 -0.11354,0.0208 -0.18936,0.0116 -0.24879,-0.03 z m 0.59142,-0.37287 c 0,-0.0349 0.0298,-0.0635 0.0662,-0.0635 0.0562,0 0.0626,-0.0464 0.0423,-0.30692 -0.0132,-0.1688 -0.0271,-0.33294 -0.031,-0.36475 -0.004,-0.0318 -0.0622,-0.0914 -0.12956,-0.13235 -0.10381,-0.0631 -0.14758,-0.0671 -0.28646,-0.0261 -0.0902,0.0266 -0.17272,0.0576 -0.18346,0.0688 -0.0107,0.0112 -0.032,0.16717 -0.0472,0.34649 -0.0244,0.28735 -0.018,0.33571 0.0538,0.40746 0.1055,0.10551 0.16383,0.12694 0.35658,0.13099 0.11437,0.002 0.15875,-0.0144 0.15875,-0.0601 z"
       style="fill:#000000;stroke-width:0.0423333"
       id="path984" />
  </g>
</svg>
