<?xml version="1.0" encoding="UTF-8" standalone="no"?>
<!-- Created with Inkscape (http://www.inkscape.org/) -->

<svg
   width="1.2643071mm"
   height="2.5178378mm"
   viewBox="0 0 1.2643071 2.5178378"
   version="1.1"
   id="svg463"
   inkscape:version="1.2.2 (b0a84865, 2022-12-01)"
   sodipodi:docname="7.svg"
   xmlns:inkscape="http://www.inkscape.org/namespaces/inkscape"
   xmlns:sodipodi="http://sodipodi.sourceforge.net/DTD/sodipodi-0.dtd"
   xmlns="http://www.w3.org/2000/svg"
   xmlns:svg="http://www.w3.org/2000/svg">
  <sodipodi:namedview
     id="namedview465"
     pagecolor="#ffffff"
     bordercolor="#666666"
     borderopacity="1.0"
     inkscape:showpageshadow="2"
     inkscape:pageopacity="0.0"
     inkscape:pagecheckerboard="0"
     inkscape:deskcolor="#d1d1d1"
     inkscape:document-units="mm"
     showgrid="false"
     inkscape:zoom="0.2102413"
     inkscape:cx="-80.859469"
     inkscape:cy="4.7564393"
     inkscape:window-width="802"
     inkscape:window-height="480"
     inkscape:window-x="0"
     inkscape:window-y="25"
     inkscape:window-maximized="0"
     inkscape:current-layer="layer1" />
  <defs
     id="defs460" />
  <g
     inkscape:label="Livello 1"
     inkscape:groupmode="layer"
     id="layer1"
     transform="translate(-103.82122,-147.24091)">
    <path
       d="m 104.27063,149.71463 c -0.0605,-0.0352 -0.074,-0.10316 -0.0738,-0.36913 1.6e-4,-0.20636 0.0235,-0.37048 0.0635,-0.44724 0.0348,-0.0667 0.0632,-0.20276 0.0632,-0.30239 0,-0.12195 0.0208,-0.18909 0.0635,-0.2055 0.0395,-0.0152 0.0635,-0.0797 0.0635,-0.17083 0,-0.0806 0.0286,-0.17505 0.0635,-0.20998 0.0349,-0.0349 0.0635,-0.0918 0.0635,-0.12649 0,-0.0346 0.0185,-0.0694 0.0411,-0.0771 0.0226,-0.008 0.0464,-0.0617 0.0529,-0.11994 0.0114,-0.10164 0.002,-0.10618 -0.24216,-0.11446 -0.60336,-0.0205 -0.66727,-0.0453 -0.57264,-0.2221 0.0406,-0.0759 0.23081,-0.13932 0.27758,-0.0926 0.0134,0.0134 0.0901,0.0188 0.17033,0.0119 0.0991,-0.009 0.1461,0.005 0.14654,0.0436 5.3e-4,0.043 0.008,0.044 0.0336,0.004 0.0373,-0.0588 0.11279,-0.0702 0.39967,-0.0607 0.19175,0.006 0.20108,0.0124 0.20108,0.12852 0,0.067 -0.029,0.14591 -0.0645,0.17537 -0.0355,0.0294 -0.0558,0.0623 -0.0451,0.0729 0.0107,0.0107 -0.0365,0.12268 -0.10482,0.24893 -0.0683,0.12624 -0.12418,0.28393 -0.12418,0.3504 0,0.0665 -0.0286,0.14458 -0.0635,0.17356 -0.0402,0.0333 -0.0635,0.12672 -0.0635,0.254 0,0.12729 -0.0233,0.22068 -0.0635,0.254 -0.044,0.0365 -0.0635,0.13365 -0.0635,0.31637 0,0.25397 -0.0633,0.53168 -0.12056,0.52901 -0.0152,-7.1e-4 -0.061,-0.0207 -0.10169,-0.0444 z"
       style="fill:#000000;stroke-width:0.0423333"
       id="path458" />
  </g>
</svg>
