<?xml version="1.0" encoding="UTF-8" standalone="no"?>
<!-- Created with Inkscape (http://www.inkscape.org/) -->

<svg
   width="1.3058776mm"
   height="2.5889337mm"
   viewBox="0 0 1.3058776 2.5889337"
   version="1.1"
   id="svg1040"
   inkscape:version="1.2.2 (b0a84865, 2022-12-01)"
   sodipodi:docname="8.svg"
   xmlns:inkscape="http://www.inkscape.org/namespaces/inkscape"
   xmlns:sodipodi="http://sodipodi.sourceforge.net/DTD/sodipodi-0.dtd"
   xmlns="http://www.w3.org/2000/svg"
   xmlns:svg="http://www.w3.org/2000/svg">
  <sodipodi:namedview
     id="namedview1042"
     pagecolor="#ffffff"
     bordercolor="#666666"
     borderopacity="1.0"
     inkscape:showpageshadow="2"
     inkscape:pageopacity="0.0"
     inkscape:pagecheckerboard="0"
     inkscape:deskcolor="#d1d1d1"
     inkscape:document-units="mm"
     showgrid="false"
     inkscape:zoom="0.2102413"
     inkscape:cx="-80.859469"
     inkscape:cy="4.7564393"
     inkscape:window-width="802"
     inkscape:window-height="480"
     inkscape:window-x="0"
     inkscape:window-y="25"
     inkscape:window-maximized="0"
     inkscape:current-layer="layer1" />
  <defs
     id="defs1037" />
  <g
     inkscape:label="Livello 1"
     inkscape:groupmode="layer"
     id="layer1"
     transform="translate(-103.80045,-147.20547)">
    <path
       d="m 104.29683,149.78776 c -0.17692,-0.0179 -0.26372,-0.0892 -0.37992,-0.31211 -0.11152,-0.21395 -0.12645,-0.66098 -0.0268,-0.80321 0.0904,-0.12904 0.0859,-0.23084 -0.0167,-0.37486 -0.0702,-0.0986 -0.0818,-0.16893 -0.0677,-0.40871 0.0202,-0.34192 0.0159,-0.32172 0.0633,-0.29242 0.0208,0.0128 0.078,-0.0622 0.12722,-0.16683 0.0492,-0.10462 0.10359,-0.19172 0.12094,-0.19356 0.0173,-0.002 0.1708,-0.0121 0.34102,-0.0227 0.28302,-0.0177 0.3164,-0.0111 0.39018,0.0774 0.0444,0.0532 0.0813,0.11921 0.0821,0.14665 7.7e-4,0.0274 0.0326,0.081 0.0706,0.11911 0.0884,0.0884 0.11049,0.74443 0.026,0.77279 -0.0723,0.0243 -0.0644,0.26713 0.0119,0.36805 0.10877,0.14381 0.082,0.55957 -0.0528,0.81906 -0.0694,0.13353 -0.15079,0.2313 -0.20175,0.24223 -0.15566,0.0334 -0.33753,0.0442 -0.48761,0.029 z m 0.45885,-0.42871 c 0.0981,-0.0549 0.0672,-0.40518 -0.0497,-0.564 -0.0824,-0.11193 -0.11008,-0.12247 -0.27386,-0.10419 -0.23284,0.026 -0.30156,0.11717 -0.30327,0.40242 -0.002,0.30661 0.0486,0.35625 0.33233,0.32676 0.12532,-0.013 0.25785,-0.0405 0.29451,-0.061 z m -0.0391,-1.15298 c 0.0615,-0.0781 0.0785,-0.15006 0.0644,-0.27186 -0.038,-0.32866 -0.15186,-0.43052 -0.42427,-0.37942 -0.32651,0.0613 -0.37201,0.63385 -0.0599,0.75419 0.13532,0.0522 0.33657,0.003 0.41976,-0.10291 z"
       style="fill:#000000;stroke-width:0.0423333"
       id="path1035" />
  </g>
</svg>
