<?xml version="1.0" encoding="UTF-8" standalone="no"?>
<!-- Created with Inkscape (http://www.inkscape.org/) -->

<svg
   width="1.2871814mm"
   height="2.54005mm"
   viewBox="0 0 1.2871814 2.54005"
   version="1.1"
   id="svg565"
   inkscape:version="1.2.2 (b0a84865, 2022-12-01)"
   sodipodi:docname="9.svg"
   xmlns:inkscape="http://www.inkscape.org/namespaces/inkscape"
   xmlns:sodipodi="http://sodipodi.sourceforge.net/DTD/sodipodi-0.dtd"
   xmlns="http://www.w3.org/2000/svg"
   xmlns:svg="http://www.w3.org/2000/svg">
  <sodipodi:namedview
     id="namedview567"
     pagecolor="#ffffff"
     bordercolor="#666666"
     borderopacity="1.0"
     inkscape:showpageshadow="2"
     inkscape:pageopacity="0.0"
     inkscape:pagecheckerboard="0"
     inkscape:deskcolor="#d1d1d1"
     inkscape:document-units="mm"
     showgrid="false"
     inkscape:zoom="0.2102413"
     inkscape:cx="-80.859469"
     inkscape:cy="4.7564393"
     inkscape:window-width="802"
     inkscape:window-height="480"
     inkscape:window-x="0"
     inkscape:window-y="25"
     inkscape:window-maximized="0"
     inkscape:current-layer="layer1" />
  <defs
     id="defs562" />
  <g
     inkscape:label="Livello 1"
     inkscape:groupmode="layer"
     id="layer1"
     transform="translate(-103.80984,-147.23)">
    <path
       d="m 104.05192,149.67475 c -0.11407,-0.13247 -0.22908,-0.34895 -0.22908,-0.43119 0,-0.14195 0.13238,-0.12389 0.27612,0.0377 0.12405,0.13944 0.16956,0.16097 0.37977,0.17967 0.21614,0.0192 0.24103,0.0128 0.26207,-0.0677 0.0128,-0.0489 0.0378,-0.0889 0.0556,-0.0889 0.0295,0 0.0181,-0.58877 -0.012,-0.61887 -0.007,-0.007 -0.0624,0.0127 -0.12284,0.0441 -0.0605,0.0314 -0.21002,0.057 -0.33238,0.057 -0.18725,0 -0.23803,-0.0177 -0.32074,-0.11153 -0.054,-0.0613 -0.0989,-0.14269 -0.0996,-0.18077 -7.9e-4,-0.0381 -0.0267,-0.1182 -0.0578,-0.17803 -0.0701,-0.13504 -0.0456,-0.65161 0.0347,-0.73188 0.0307,-0.0307 0.0973,-0.12295 0.14804,-0.20506 l 0.0923,-0.14929 h 0.31867 c 0.27247,0 0.33322,0.0138 0.41914,0.0953 0.0553,0.0524 0.10082,0.12764 0.10122,0.16723 5.3e-4,0.0396 0.0288,0.0877 0.0631,0.10686 0.0513,0.0287 0.0633,0.18388 0.0677,0.88052 0.005,0.72693 -0.005,0.86644 -0.0685,0.99381 -0.14013,0.28095 -0.16855,0.29633 -0.54752,0.29633 -0.30618,0 -0.35531,-0.0109 -0.42791,-0.0953 z m 0.51176,-1.23437 c 0.2124,-0.0135 0.24972,-0.0799 0.2432,-0.43253 -0.005,-0.26132 -0.0217,-0.34278 -0.0798,-0.38529 -0.10361,-0.0758 -0.4995,-0.07 -0.56443,0.008 -0.0797,0.096 -0.0813,0.66329 -0.002,0.74695 0.0837,0.0884 0.17561,0.12149 0.25509,0.0917 0.0349,-0.0131 0.1016,-0.0262 0.14817,-0.0291 z"
       style="fill:#000000;stroke-width:0.0423333"
       id="path560" />
  </g>
</svg>
