<?xml version="1.0" encoding="UTF-8" standalone="no"?>
<!-- Created with Inkscape (http://www.inkscape.org/) -->

<svg
   width="1.2819099mm"
   height="2.4165699mm"
   viewBox="0 0 1.2819099 2.4165699"
   version="1.1"
   id="svg296"
   inkscape:version="1.2.2 (b0a84865, 2022-12-01)"
   sodipodi:docname="A.svg"
   xmlns:inkscape="http://www.inkscape.org/namespaces/inkscape"
   xmlns:sodipodi="http://sodipodi.sourceforge.net/DTD/sodipodi-0.dtd"
   xmlns="http://www.w3.org/2000/svg"
   xmlns:svg="http://www.w3.org/2000/svg">
  <sodipodi:namedview
     id="namedview298"
     pagecolor="#ffffff"
     bordercolor="#666666"
     borderopacity="1.0"
     inkscape:showpageshadow="2"
     inkscape:pageopacity="0.0"
     inkscape:pagecheckerboard="0"
     inkscape:deskcolor="#d1d1d1"
     inkscape:document-units="mm"
     showgrid="false"
     inkscape:zoom="0.2102413"
     inkscape:cx="-80.859469"
     inkscape:cy="4.7564393"
     inkscape:window-width="802"
     inkscape:window-height="480"
     inkscape:window-x="0"
     inkscape:window-y="25"
     inkscape:window-maximized="0"
     inkscape:current-layer="layer1" />
  <defs
     id="defs293" />
  <g
     inkscape:label="Livello 1"
     inkscape:groupmode="layer"
     id="layer1"
     transform="translate(-103.81241,-147.29137)">
    <path
       d="m 103.93941,149.7008 -0.0212,-0.003 -0.0529,-0.0214 -0.0529,-0.0213 0.001,-0.28222 10e-4,-0.28222 0.0622,-0.0822 0.0622,-0.0822 v -0.23744 -0.23745 l 0.0511,-0.0511 0.0511,-0.0511 0.009,-0.19507 0.009,-0.19507 0.0459,-0.0459 0.0459,-0.0459 v -0.14103 -0.14103 l 0.0635,-0.0244 0.0635,-0.0244 v -0.0717 -0.0717 l 0.0508,-0.0508 0.0508,-0.0508 h 0.10195 0.10196 l -0.0275,0.10936 -0.0274,0.10935 0.0863,0.0226 0.0864,0.0226 v 0.16573 0.16572 l 0.0635,0.0244 0.0635,0.0244 v 0.21306 0.21305 l 0.0611,0.047 0.0611,0.047 0.009,0.254 0.009,0.254 0.061,0.0711 0.061,0.0711 0.002,0.25135 0.002,0.25135 -0.0307,0.0497 -0.0307,0.0497 -0.0917,-0.0286 -0.0917,-0.0286 -0.0242,-0.0375 -0.0242,-0.0375 -0.0101,-0.22035 -0.0101,-0.22034 -0.0147,-0.0147 -0.0147,-0.0147 -0.28023,-0.004 -0.28023,-0.004 -0.0436,0.0436 -0.0436,0.0436 -0.01,0.22031 -0.01,0.2203 -0.0619,0.0392 -0.0619,0.0392 -0.0212,-0.003 z m 0.52482,-0.89361 0.16805,-0.0126 0.0317,-0.11931 0.0317,-0.11931 -0.0847,-0.0846 -0.0846,-0.0847 0.0103,-0.25218 0.0103,-0.25217 -0.048,-0.048 -0.048,-0.0479 -0.0597,0.0495 -0.0597,0.0495 0.009,0.27246 0.009,0.27245 -0.0574,0.022 -0.0574,0.022 v 0.14244 0.14244 l 0.0302,0.0302 0.0302,0.0302 z"
       style="display:inline;fill:#000000;stroke-width:0.0423333"
       id="path291" />
  </g>
</svg>
