<?xml version="1.0" encoding="UTF-8" standalone="no"?>
<!-- Created with Inkscape (http://www.inkscape.org/) -->

<svg
   width="1.36525mm"
   height="2.5048201mm"
   viewBox="0 0 1.36525 2.5048201"
   version="1.1"
   id="svg456"
   inkscape:version="1.2.2 (b0a84865, 2022-12-01)"
   sodipodi:docname="B.svg"
   xmlns:inkscape="http://www.inkscape.org/namespaces/inkscape"
   xmlns:sodipodi="http://sodipodi.sourceforge.net/DTD/sodipodi-0.dtd"
   xmlns="http://www.w3.org/2000/svg"
   xmlns:svg="http://www.w3.org/2000/svg">
  <sodipodi:namedview
     id="namedview458"
     pagecolor="#ffffff"
     bordercolor="#666666"
     borderopacity="1.0"
     inkscape:showpageshadow="2"
     inkscape:pageopacity="0.0"
     inkscape:pagecheckerboard="0"
     inkscape:deskcolor="#d1d1d1"
     inkscape:document-units="mm"
     showgrid="false"
     inkscape:zoom="0.2102413"
     inkscape:cx="-80.859469"
     inkscape:cy="4.7564393"
     inkscape:window-width="808"
     inkscape:window-height="480"
     inkscape:window-x="0"
     inkscape:window-y="25"
     inkscape:window-maximized="0"
     inkscape:current-layer="layer1" />
  <defs
     id="defs453" />
  <g
     inkscape:label="Livello 1"
     inkscape:groupmode="layer"
     id="layer1"
     transform="translate(-103.77071,-147.24764)">
    <path
       d="m 104.27848,149.73506 -0.40857,0.0174 -0.0297,-0.0481 -0.0297,-0.048 -0.0199,-1.15676 -0.0199,-1.15676 0.0432,-0.0267 0.0433,-0.0267 0.38201,-0.0209 0.382,-0.0209 0.19167,0.18895 0.19167,0.18896 v 0.2002 0.20021 l -0.0605,0.0669 -0.0605,0.0668 0.0823,0.25398 0.0823,0.25398 0.0439,0.0771 0.0439,0.0771 -0.0108,0.24038 -0.0108,0.24036 -0.0549,0.0835 -0.055,0.0835 v 0.0649 0.0649 l -0.15875,0.0592 -0.15875,0.0592 z m 0.0823,-0.28436 h 0.24805 l 0.0897,-0.0954 0.0897,-0.0954 -0.0171,-0.29089 -0.0171,-0.2909 -0.0735,-0.0812 -0.0735,-0.0812 -0.23516,0.0125 -0.23517,0.0125 -0.012,0.45508 -0.012,0.45508 z m -0.0151,-1.24819 0.12422,-0.0228 0.0769,-0.0695 0.0769,-0.0696 v -0.16113 -0.16112 l -0.0952,-0.0889 -0.0953,-0.0889 -0.14817,0.0276 -0.14816,0.0276 -0.0169,0.0167 -0.0169,0.0167 0.008,0.26375 0.008,0.26374 0.0514,0.0344 0.0514,0.0344 z"
       style="display:inline;fill:#000000;stroke-width:0.0423333"
       id="path451" />
  </g>
</svg>
