<?xml version="1.0" encoding="UTF-8" standalone="no"?>
<!-- Created with Inkscape (http://www.inkscape.org/) -->

<svg
   width="1.31323mm"
   height="2.4809101mm"
   viewBox="0 0 1.31323 2.4809101"
   version="1.1"
   id="svg329"
   inkscape:version="1.2.2 (b0a84865, 2022-12-01)"
   sodipodi:docname="C.svg"
   xmlns:inkscape="http://www.inkscape.org/namespaces/inkscape"
   xmlns:sodipodi="http://sodipodi.sourceforge.net/DTD/sodipodi-0.dtd"
   xmlns="http://www.w3.org/2000/svg"
   xmlns:svg="http://www.w3.org/2000/svg">
  <sodipodi:namedview
     id="namedview331"
     pagecolor="#ffffff"
     bordercolor="#666666"
     borderopacity="1.0"
     inkscape:showpageshadow="2"
     inkscape:pageopacity="0.0"
     inkscape:pagecheckerboard="0"
     inkscape:deskcolor="#d1d1d1"
     inkscape:document-units="mm"
     showgrid="false"
     inkscape:zoom="0.2102413"
     inkscape:cx="-80.859469"
     inkscape:cy="4.7564393"
     inkscape:window-width="802"
     inkscape:window-height="480"
     inkscape:window-x="0"
     inkscape:window-y="25"
     inkscape:window-maximized="0"
     inkscape:current-layer="layer1" />
  <defs
     id="defs326" />
  <g
     inkscape:label="Livello 1"
     inkscape:groupmode="layer"
     id="layer1"
     transform="translate(-103.79796,-147.25958)">
    <path
       d="m 104.5795,149.72569 -0.25308,0.0148 -0.10583,-0.0146 -0.10583,-0.0146 -0.0536,-0.044 -0.0536,-0.044 -0.0968,-0.19536 -0.0968,-0.19537 -0.008,-0.65617 -0.008,-0.65616 0.0258,-0.17853 0.0258,-0.17852 0.0801,-0.0254 0.0801,-0.0254 v -0.0803 -0.0803 l 0.0861,-0.0461 0.0861,-0.0461 0.33494,0.0164 0.33494,0.0164 0.0653,0.0542 0.0653,0.0542 -0.0197,0.0319 -0.0197,0.0319 0.0792,0.0717 0.0792,0.0717 -0.006,0.17742 -0.006,0.17742 h -0.127 -0.127 l -0.0141,-0.127 -0.0141,-0.127 -0.0641,-0.0714 -0.0641,-0.0714 0.0278,-0.045 0.0278,-0.045 h -0.23248 -0.23248 l -0.0256,0.0808 -0.0256,0.0808 -0.0584,0.0224 -0.0584,0.0224 0.015,0.79416 0.015,0.79415 0.098,0.0754 0.098,0.0754 0.17335,9.5e-4 0.17336,9.5e-4 0.0696,-0.0769 0.0696,-0.0769 0.0188,-0.14538 0.0188,-0.14539 0.003,-0.0318 0.003,-0.0317 h 0.0762 0.0762 l 0.0508,0.0508 0.0508,0.0508 v 0.1372 0.1372 l -0.0423,0.0262 -0.0423,0.0262 v 0.08 0.08 l -0.0962,0.10377 -0.0962,0.10376 z"
       style="display:inline;fill:#000000;stroke-width:0.0423333"
       id="path324" />
  </g>
</svg>
