<?xml version="1.0" encoding="UTF-8" standalone="no"?>
<!-- Created with Inkscape (http://www.inkscape.org/) -->

<svg
   width="1.31545mm"
   height="2.53702mm"
   viewBox="0 0 1.31545 2.53702"
   version="1.1"
   id="svg278"
   inkscape:version="1.2.2 (b0a84865, 2022-12-01)"
   sodipodi:docname="d.svg"
   xmlns:inkscape="http://www.inkscape.org/namespaces/inkscape"
   xmlns:sodipodi="http://sodipodi.sourceforge.net/DTD/sodipodi-0.dtd"
   xmlns="http://www.w3.org/2000/svg"
   xmlns:svg="http://www.w3.org/2000/svg">
  <sodipodi:namedview
     id="namedview280"
     pagecolor="#ffffff"
     bordercolor="#666666"
     borderopacity="1.0"
     inkscape:showpageshadow="2"
     inkscape:pageopacity="0.0"
     inkscape:pagecheckerboard="0"
     inkscape:deskcolor="#d1d1d1"
     inkscape:document-units="mm"
     showgrid="false"
     inkscape:zoom="0.2102413"
     inkscape:cx="-80.859469"
     inkscape:cy="4.7564393"
     inkscape:window-width="808"
     inkscape:window-height="480"
     inkscape:window-x="0"
     inkscape:window-y="25"
     inkscape:window-maximized="0"
     inkscape:current-layer="layer1" />
  <defs
     id="defs275" />
  <g
     inkscape:label="Livello 1"
     inkscape:groupmode="layer"
     id="layer1"
     transform="translate(-103.7957,-147.23158)">
    <path
       d="m 104.32402,149.7676 -0.40412,0.001 -0.0621,-0.0686 -0.0621,-0.0686 0.005,-1.11771 0.005,-1.11771 0.0428,-0.0524 0.0428,-0.0524 0.0423,0.0261 0.0423,0.0261 0.0346,-0.0559 0.0346,-0.0559 0.11561,0.0527 0.11561,0.0527 0.025,-0.0339 0.025,-0.0339 0.11615,-0.008 0.11616,-0.008 0.19076,0.18277 0.19076,0.18278 v 0.0453 0.0453 l 0.0741,0.0414 0.0741,0.0414 0.0114,0.7523 0.0114,0.7523 -0.0643,0.036 -0.0643,0.036 v 0.079 0.079 l -0.12715,0.12 -0.12715,0.12001 z m -0.0623,-0.23385 h 0.0383 l 0.0262,-0.0423 0.0262,-0.0423 h 0.10166 0.10167 l 0.0546,-0.0665 0.0546,-0.0665 0.0756,-0.0832 0.0756,-0.0831 -0.008,-0.69698 -0.008,-0.69698 h -0.0825 -0.0825 l -0.12612,-0.10612 -0.12611,-0.10611 -0.0493,0.0305 -0.0493,0.0305 -0.0847,0.002 -0.0847,0.002 0.006,0.87311 0.006,0.87311 0.0482,0.09 0.0482,0.09 z"
       style="display:inline;fill:#000000;stroke-width:0.0423333"
       id="path273" />
  </g>
</svg>
