<?xml version="1.0" encoding="UTF-8" standalone="no"?>
<!-- Created with Inkscape (http://www.inkscape.org/) -->

<svg
   width="1.22809mm"
   height="2.4857299mm"
   viewBox="0 0 1.22809 2.4857299"
   version="1.1"
   id="svg380"
   inkscape:version="1.2.2 (b0a84865, 2022-12-01)"
   sodipodi:docname="E.svg"
   xmlns:inkscape="http://www.inkscape.org/namespaces/inkscape"
   xmlns:sodipodi="http://sodipodi.sourceforge.net/DTD/sodipodi-0.dtd"
   xmlns="http://www.w3.org/2000/svg"
   xmlns:svg="http://www.w3.org/2000/svg">
  <sodipodi:namedview
     id="namedview382"
     pagecolor="#ffffff"
     bordercolor="#666666"
     borderopacity="1.0"
     inkscape:showpageshadow="2"
     inkscape:pageopacity="0.0"
     inkscape:pagecheckerboard="0"
     inkscape:deskcolor="#d1d1d1"
     inkscape:document-units="mm"
     showgrid="false"
     inkscape:zoom="0.2102413"
     inkscape:cx="-85.615908"
     inkscape:cy="4.7564393"
     inkscape:window-width="802"
     inkscape:window-height="480"
     inkscape:window-x="0"
     inkscape:window-y="25"
     inkscape:window-maximized="0"
     inkscape:current-layer="layer1" />
  <defs
     id="defs377" />
  <g
     inkscape:label="Livello 1"
     inkscape:groupmode="layer"
     id="layer1"
     transform="translate(-103.83941,-147.25728)">
    <path
       d="m 104.51278,149.72411 -0.40217,0.0189 -0.0847,-0.0194 -0.0847,-0.0194 -0.0357,-0.0337 -0.0357,-0.0337 -0.0152,-1.09457 -0.0152,-1.09456 0.039,-0.0952 0.039,-0.0952 h 0.52905 0.52904 l 0.046,0.0859 0.046,0.0859 -0.14897,0.0622 -0.14897,0.0622 h -0.25455 -0.25456 l -0.0243,0.097 -0.0243,0.097 -0.003,0.23105 -0.003,0.23105 0.005,0.0557 0.005,0.0557 0.32547,-0.009 0.32547,-0.01 0.0538,0.0811 0.0538,0.0811 -0.0346,0.056 -0.0346,0.056 -0.28684,0.0356 -0.28685,0.0356 -0.0635,0.0635 -0.0635,0.0635 -0.005,0.28266 -0.005,0.28266 0.0282,0.0457 0.0282,0.0457 0.37391,0.003 0.37392,0.003 0.0134,0.11666 0.0134,0.11666 -0.0558,0.0174 -0.0557,0.0174 -0.40217,0.0189 z"
       style="display:inline;fill:#000000;stroke-width:0.0423333"
       id="path375" />
  </g>
</svg>
