<?xml version="1.0" encoding="UTF-8" standalone="no"?>
<!-- Created with Inkscape (http://www.inkscape.org/) -->

<svg
   width="1.16581mm"
   height="2.4342mm"
   viewBox="0 0 1.16581 2.4342"
   version="1.1"
   id="svg431"
   inkscape:version="1.2.2 (b0a84865, 2022-12-01)"
   sodipodi:docname="F.svg"
   xmlns:inkscape="http://www.inkscape.org/namespaces/inkscape"
   xmlns:sodipodi="http://sodipodi.sourceforge.net/DTD/sodipodi-0.dtd"
   xmlns="http://www.w3.org/2000/svg"
   xmlns:svg="http://www.w3.org/2000/svg">
  <sodipodi:namedview
     id="namedview433"
     pagecolor="#ffffff"
     bordercolor="#666666"
     borderopacity="1.0"
     inkscape:showpageshadow="2"
     inkscape:pageopacity="0.0"
     inkscape:pagecheckerboard="0"
     inkscape:deskcolor="#d1d1d1"
     inkscape:document-units="mm"
     showgrid="false"
     inkscape:zoom="0.2102413"
     inkscape:cx="-85.615908"
     inkscape:cy="4.7564393"
     inkscape:window-width="802"
     inkscape:window-height="480"
     inkscape:window-x="0"
     inkscape:window-y="25"
     inkscape:window-maximized="0"
     inkscape:current-layer="layer1" />
  <defs
     id="defs428" />
  <g
     inkscape:label="Livello 1"
     inkscape:groupmode="layer"
     id="layer1"
     transform="translate(-103.87129,-147.28288)">
    <path
       d="m 104.05928,149.71708 h -0.12849 l -0.004,-0.15875 -0.004,-0.15875 -0.017,-0.92075 -0.0171,-0.92075 h 0.043 0.043 l -0.0517,-0.0827 -0.0517,-0.0827 0.03,-0.03 0.03,-0.03 0.30707,-0.0249 0.30708,-0.0249 0.24583,0.0146 0.24583,0.0146 -0.013,0.0896 -0.013,0.0896 -0.14816,0.0354 -0.14817,0.0354 -0.0423,-0.004 -0.0423,-0.004 -0.22225,-0.0237 -0.22225,-0.0237 -0.004,0.0993 -0.004,0.0993 -0.008,0.26706 -0.008,0.26707 0.0269,0.0435 0.0269,0.0435 0.0799,-0.009 0.0799,-0.009 0.25965,0.005 0.25965,0.005 0.0235,0.11642 0.0235,0.11641 -0.0572,0.0443 -0.0572,0.0443 -0.30908,0.0106 -0.30908,0.0106 -0.0217,0.0217 -0.0217,0.0217 0.0111,0.5055 0.011,0.5055 h -0.1285 z"
       style="display:inline;fill:#000000;stroke-width:0.0423333"
       id="path426" />
  </g>
</svg>
