<?xml version="1.0" encoding="UTF-8" standalone="no"?>
<!-- Created with Inkscape (http://www.inkscape.org/) -->

<svg
   width="1.31716mm"
   height="2.4939799mm"
   viewBox="0 0 1.31716 2.4939799"
   version="1.1"
   id="svg482"
   inkscape:version="1.2.2 (b0a84865, 2022-12-01)"
   sodipodi:docname="G.svg"
   xmlns:inkscape="http://www.inkscape.org/namespaces/inkscape"
   xmlns:sodipodi="http://sodipodi.sourceforge.net/DTD/sodipodi-0.dtd"
   xmlns="http://www.w3.org/2000/svg"
   xmlns:svg="http://www.w3.org/2000/svg">
  <sodipodi:namedview
     id="namedview484"
     pagecolor="#ffffff"
     bordercolor="#666666"
     borderopacity="1.0"
     inkscape:showpageshadow="2"
     inkscape:pageopacity="0.0"
     inkscape:pagecheckerboard="0"
     inkscape:deskcolor="#d1d1d1"
     inkscape:document-units="mm"
     showgrid="false"
     inkscape:zoom="0.2102413"
     inkscape:cx="-80.859469"
     inkscape:cy="4.7564393"
     inkscape:window-width="802"
     inkscape:window-height="480"
     inkscape:window-x="0"
     inkscape:window-y="25"
     inkscape:window-maximized="0"
     inkscape:current-layer="layer1" />
  <defs
     id="defs479" />
  <g
     inkscape:label="Livello 1"
     inkscape:groupmode="layer"
     id="layer1"
     transform="translate(-103.7952,-147.25298)">
    <path
       d="m 104.97566,149.70016 -0.0891,0.0468 -0.0559,-0.10451 -0.0559,-0.10451 -0.0878,0.0274 -0.0878,0.0274 -0.0212,0.0304 -0.0212,0.0304 -0.21166,0.0261 -0.21167,0.0261 -0.11642,-0.10248 -0.11641,-0.10249 v -0.0782 -0.0782 l -0.0457,-0.0457 -0.0457,-0.0457 -0.007,-0.8025 -0.007,-0.80249 0.0635,-0.077 0.0635,-0.077 -0.012,-0.0707 -0.012,-0.0707 0.10923,-0.0498 0.10923,-0.0498 h 0.31829 0.31829 l 0.0819,0.0438 0.0819,0.0438 v 0.0766 0.0766 l 0.0847,0.0766 0.0847,0.0766 v 0.14416 0.14416 l -0.15875,-0.0131 -0.15875,-0.0131 -0.0143,-0.10583 -0.0143,-0.10584 -0.0887,-0.0956 -0.0887,-0.0956 -0.14381,0.0147 -0.14381,0.0148 -0.0992,0.1155 -0.0992,0.11551 0.0101,0.71538 0.0101,0.71538 0.0714,0.0789 0.0714,0.0789 -0.0215,0.0215 -0.0215,0.0215 0.13783,-0.006 0.13784,-0.006 0.0952,-0.061 0.0953,-0.061 v -0.0905 -0.0905 l 0.0656,-0.0545 0.0656,-0.0545 -0.0127,-0.10946 -0.0127,-0.10946 -0.127,-0.0143 -0.127,-0.0143 -0.055,-0.0455 -0.055,-0.0455 0.0126,-0.0884 0.0126,-0.0884 0.29633,-0.024 0.29634,-0.024 0.0358,0.0302 0.0358,0.0302 0.009,0.55477 0.009,0.55477 -0.0236,0.036 -0.0237,0.036 z"
       style="display:inline;fill:#000000;stroke-width:0.0423333"
       id="path477" />
  </g>
</svg>
