<?xml version="1.0" encoding="UTF-8" standalone="no"?>
<!-- Created with Inkscape (http://www.inkscape.org/) -->

<svg
   width="1.29278mm"
   height="2.4194701mm"
   viewBox="0 0 1.29278 2.4194701"
   version="1.1"
   id="svg533"
   inkscape:version="1.2.2 (b0a84865, 2022-12-01)"
   sodipodi:docname="H.svg"
   xmlns:inkscape="http://www.inkscape.org/namespaces/inkscape"
   xmlns:sodipodi="http://sodipodi.sourceforge.net/DTD/sodipodi-0.dtd"
   xmlns="http://www.w3.org/2000/svg"
   xmlns:svg="http://www.w3.org/2000/svg">
  <sodipodi:namedview
     id="namedview535"
     pagecolor="#ffffff"
     bordercolor="#666666"
     borderopacity="1.0"
     inkscape:showpageshadow="2"
     inkscape:pageopacity="0.0"
     inkscape:pagecheckerboard="0"
     inkscape:deskcolor="#d1d1d1"
     inkscape:document-units="mm"
     showgrid="false"
     inkscape:zoom="0.2102413"
     inkscape:cx="-80.859469"
     inkscape:cy="4.7564393"
     inkscape:window-width="802"
     inkscape:window-height="480"
     inkscape:window-x="0"
     inkscape:window-y="25"
     inkscape:window-maximized="0"
     inkscape:current-layer="layer1" />
  <defs
     id="defs530" />
  <g
     inkscape:label="Livello 1"
     inkscape:groupmode="layer"
     id="layer1"
     transform="translate(-103.80759,-147.29023)">
    <path
       d="m 105.02489,149.6728 -0.0749,0.0369 -0.0705,-0.0162 -0.0705,-0.0162 -0.0142,-0.48604 -0.0142,-0.48604 -0.0635,-0.0401 -0.0635,-0.0401 -0.21975,-6.4e-4 -0.21975,-6.3e-4 -0.0328,0.0529 -0.0329,0.0529 -0.008,0.44403 -0.008,0.44403 -0.0675,0.0426 -0.0675,0.0426 -0.0741,-0.0467 -0.0741,-0.0467 -0.006,-0.10125 -0.006,-0.10125 -0.0148,-1.03717 -0.0148,-1.03716 0.15185,-0.0127 0.15185,-0.0127 0.008,0.41489 0.008,0.41489 0.0234,0.076 0.0235,0.0759 0.20109,-0.0161 0.20109,-0.0161 0.0495,-0.0306 0.0495,-0.0306 v 0.0448 0.0448 h 0.041 0.041 l 0.0119,-0.49742 0.0119,-0.49741 h 0.127 0.127 l 0.011,0.127 0.011,0.127 0.0216,1.04581 0.0216,1.04582 -0.0749,0.0369 z"
       style="display:inline;fill:#000000;stroke-width:0.0423333"
       id="path528" />
  </g>
</svg>
