<?xml version="1.0" encoding="UTF-8" standalone="no"?>
<!-- Created with Inkscape (http://www.inkscape.org/) -->

<svg
   width="1.09023mm"
   height="2.45485mm"
   viewBox="0 0 1.09023 2.45485"
   version="1.1"
   id="svg584"
   inkscape:version="1.2.2 (b0a84865, 2022-12-01)"
   sodipodi:docname="I.svg"
   xmlns:inkscape="http://www.inkscape.org/namespaces/inkscape"
   xmlns:sodipodi="http://sodipodi.sourceforge.net/DTD/sodipodi-0.dtd"
   xmlns="http://www.w3.org/2000/svg"
   xmlns:svg="http://www.w3.org/2000/svg">
  <sodipodi:namedview
     id="namedview586"
     pagecolor="#ffffff"
     bordercolor="#666666"
     borderopacity="1.0"
     inkscape:showpageshadow="2"
     inkscape:pageopacity="0.0"
     inkscape:pagecheckerboard="0"
     inkscape:deskcolor="#d1d1d1"
     inkscape:document-units="mm"
     showgrid="false"
     inkscape:zoom="0.2102413"
     inkscape:cx="-85.615908"
     inkscape:cy="4.7564393"
     inkscape:window-width="802"
     inkscape:window-height="480"
     inkscape:window-x="0"
     inkscape:window-y="25"
     inkscape:window-maximized="0"
     inkscape:current-layer="layer1" />
  <defs
     id="defs581" />
  <g
     inkscape:label="Livello 1"
     inkscape:groupmode="layer"
     id="layer1"
     transform="translate(-103.90731,-147.27277)">
    <path
       d="m 104.73448,149.71232 -0.16933,0.0153 -0.16933,-0.0109 -0.16934,-0.0109 -0.13758,-0.0228 -0.13758,-0.0228 v -0.11967 -0.11968 l 0.16933,-0.0271 0.16933,-0.0271 0.003,-0.0736 0.003,-0.0736 -0.009,-0.5715 -0.009,-0.5715 -0.01,-0.127 -0.01,-0.127 -0.006,-0.15875 -0.006,-0.15875 h -0.16934 -0.16933 v -0.0839 -0.0839 l 0.0953,-0.0232 0.0952,-0.0232 0.39735,-0.009 0.39734,-0.009 0.0472,0.0753 0.0472,0.0753 -0.0635,0.0405 -0.0635,0.0405 -0.11642,6.3e-4 -0.11641,6.7e-4 -0.006,0.0741 -0.006,0.0741 -0.009,0.20384 -0.009,0.20384 -0.0453,0.0453 -0.0453,0.0453 0.0602,0.0918 0.0602,0.0918 -0.0379,0.13212 -0.0379,0.13212 0.0222,0.0223 0.0223,0.0223 0.007,0.37251 0.007,0.37252 0.17423,0.0128 0.17424,0.0128 0.0197,0.10335 0.0198,0.10335 -0.047,0.0378 -0.047,0.0378 -0.16933,0.0154 z"
       style="display:inline;fill:#000000;stroke-width:0.0423333"
       id="path579" />
  </g>
</svg>
