<?xml version="1.0" encoding="UTF-8" standalone="no"?>
<!-- Created with Inkscape (http://www.inkscape.org/) -->

<svg
   width="1.2940364mm"
   height="2.5776722mm"
   viewBox="0 0 1.2940364 2.5776722"
   version="1.1"
   id="svg338"
   inkscape:version="1.2.2 (b0a84865, 2022-12-01)"
   sodipodi:docname="K.svg"
   xmlns:inkscape="http://www.inkscape.org/namespaces/inkscape"
   xmlns:sodipodi="http://sodipodi.sourceforge.net/DTD/sodipodi-0.dtd"
   xmlns="http://www.w3.org/2000/svg"
   xmlns:svg="http://www.w3.org/2000/svg">
  <sodipodi:namedview
     id="namedview340"
     pagecolor="#ffffff"
     bordercolor="#666666"
     borderopacity="1.0"
     inkscape:showpageshadow="2"
     inkscape:pageopacity="0.0"
     inkscape:pagecheckerboard="0"
     inkscape:deskcolor="#d1d1d1"
     inkscape:document-units="mm"
     showgrid="false"
     inkscape:zoom="0.2102413"
     inkscape:cx="-80.859469"
     inkscape:cy="4.7564393"
     inkscape:window-width="802"
     inkscape:window-height="480"
     inkscape:window-x="0"
     inkscape:window-y="25"
     inkscape:window-maximized="0"
     inkscape:current-layer="layer1" />
  <defs
     id="defs335" />
  <g
     inkscape:label="Livello 1"
     inkscape:groupmode="layer"
     id="layer1"
     transform="translate(-103.80592,-147.21138)">
    <path
       d="m 103.8856,149.72719 c -0.0554,-0.0554 -0.0673,-0.19888 -0.0709,-0.85725 -0.002,-0.4349 -0.006,-0.88597 -0.008,-1.00239 -0.002,-0.11642 0,-0.31168 0.004,-0.43392 0.008,-0.21541 0.0117,-0.22225 0.13122,-0.22225 0.11039,0 0.12553,0.0166 0.14487,0.15875 0.0119,0.0873 0.0219,0.31115 0.0223,0.49742 5.3e-4,0.18627 0.002,0.372 0.003,0.41275 0.003,0.10019 0.0872,0.095 0.0872,-0.005 0,-0.0437 0.0286,-0.1032 0.0635,-0.13218 0.0349,-0.029 0.0635,-0.0803 0.0635,-0.11404 0,-0.0337 0.0286,-0.0899 0.0635,-0.12484 0.0349,-0.0349 0.0635,-0.0982 0.0635,-0.14062 0,-0.0424 0.0286,-0.0881 0.0635,-0.10148 0.0349,-0.0134 0.0635,-0.0639 0.0635,-0.11215 0,-0.13425 0.18053,-0.33821 0.29936,-0.33821 0.0886,0 0.10959,0.11521 0.0445,0.24399 -0.0891,0.17632 -0.1745,0.39862 -0.1745,0.45446 0,0.0333 -0.0369,0.0803 -0.082,0.10448 -0.0451,0.0241 -0.0848,0.0772 -0.0882,0.1179 -0.0206,0.24897 8e-4,0.44863 0.0549,0.51069 0.0917,0.10519 0.21771,0.39249 0.21103,0.48109 -0.003,0.0424 0.0216,0.0771 0.0551,0.0771 0.0581,0 0.0682,0.0178 0.0778,0.13758 0.002,0.0291 0.0362,0.0883 0.0752,0.13165 0.0691,0.0767 0.06,0.19064 -0.0197,0.24416 -0.0741,0.0498 -0.20035,-0.0153 -0.22571,-0.11628 -0.0139,-0.0554 -0.0391,-0.10078 -0.056,-0.10078 -0.0169,0 -0.0307,-0.0247 -0.0307,-0.0548 0,-0.0662 -0.33767,-0.64196 -0.41329,-0.70472 -0.0389,-0.0323 -0.0732,-0.0229 -0.12491,0.0342 -0.0562,0.0621 -0.0715,0.16478 -0.0724,0.48613 -8e-4,0.30609 -0.017,0.42329 -0.0652,0.47142 -0.079,0.079 -0.0793,0.079 -0.16082,-0.002 z"
       style="fill:#000000;stroke-width:0.0423333"
       id="path333" />
  </g>
</svg>
