<?xml version="1.0" encoding="UTF-8" standalone="no"?>
<!-- Created with Inkscape (http://www.inkscape.org/) -->

<svg
   width="1.22598mm"
   height="2.44748mm"
   viewBox="0 0 1.22598 2.44748"
   version="1.1"
   id="svg635"
   inkscape:version="1.2.2 (b0a84865, 2022-12-01)"
   sodipodi:docname="L.svg"
   xmlns:inkscape="http://www.inkscape.org/namespaces/inkscape"
   xmlns:sodipodi="http://sodipodi.sourceforge.net/DTD/sodipodi-0.dtd"
   xmlns="http://www.w3.org/2000/svg"
   xmlns:svg="http://www.w3.org/2000/svg">
  <sodipodi:namedview
     id="namedview637"
     pagecolor="#ffffff"
     bordercolor="#666666"
     borderopacity="1.0"
     inkscape:showpageshadow="2"
     inkscape:pageopacity="0.0"
     inkscape:pagecheckerboard="0"
     inkscape:deskcolor="#d1d1d1"
     inkscape:document-units="mm"
     showgrid="false"
     inkscape:zoom="0.2102413"
     inkscape:cx="-85.615908"
     inkscape:cy="4.7564393"
     inkscape:window-width="802"
     inkscape:window-height="480"
     inkscape:window-x="0"
     inkscape:window-y="25"
     inkscape:window-maximized="0"
     inkscape:current-layer="layer1" />
  <defs
     id="defs632" />
  <g
     inkscape:label="Livello 1"
     inkscape:groupmode="layer"
     id="layer1"
     transform="translate(-103.84078,-147.27632)">
    <path
       d="m 104.46188,149.7114 -0.4983,0.0124 -0.0494,-0.0305 -0.0494,-0.0305 -0.012,-1.16684 -0.012,-1.16684 0.10516,-0.0264 0.10516,-0.0264 0.0635,0.0527 0.0635,0.0527 -0.0425,0.0512 -0.0425,0.0512 0.0314,0.0315 0.0314,0.0315 0.003,0.36681 0.003,0.36682 0.0119,0.55599 0.0119,0.55599 0.20013,0.0265 0.20013,0.0265 0.13301,-0.0266 0.13301,-0.0266 0.10739,0.0269 0.10739,0.027 v 0.10635 0.10636 l -0.0529,0.02 -0.0529,0.02 -0.4983,0.0124 z"
       style="display:inline;fill:#000000;stroke-width:0.0423333"
       id="path630" />
  </g>
</svg>
