<?xml version="1.0" encoding="UTF-8" standalone="no"?>
<!-- Created with Inkscape (http://www.inkscape.org/) -->

<svg
   width="1.33902mm"
   height="2.42187mm"
   viewBox="0 0 1.33902 2.42187"
   version="1.1"
   id="svg178"
   inkscape:version="1.2.2 (b0a84865, 2022-12-01)"
   sodipodi:docname="M.svg"
   xmlns:inkscape="http://www.inkscape.org/namespaces/inkscape"
   xmlns:sodipodi="http://sodipodi.sourceforge.net/DTD/sodipodi-0.dtd"
   xmlns="http://www.w3.org/2000/svg"
   xmlns:svg="http://www.w3.org/2000/svg">
  <sodipodi:namedview
     id="namedview180"
     pagecolor="#ffffff"
     bordercolor="#666666"
     borderopacity="1.0"
     inkscape:showpageshadow="2"
     inkscape:pageopacity="0.0"
     inkscape:pagecheckerboard="0"
     inkscape:deskcolor="#d1d1d1"
     inkscape:document-units="mm"
     showgrid="false"
     inkscape:zoom="0.2102413"
     inkscape:cx="-80.859469"
     inkscape:cy="4.7564393"
     inkscape:window-width="804"
     inkscape:window-height="480"
     inkscape:window-x="0"
     inkscape:window-y="25"
     inkscape:window-maximized="0"
     inkscape:current-layer="layer1" />
  <defs
     id="defs175" />
  <g
     inkscape:label="Livello 1"
     inkscape:groupmode="layer"
     id="layer1"
     transform="translate(-103.78315,-147.28892)">
    <path
       d="m 103.97296,149.69629 -0.13361,0.013 -0.0181,-0.0341 -0.0181,-0.0341 -0.01,-1.14839 -0.01,-1.14838 0.11021,-0.0277 0.11021,-0.0277 0.0424,0.0262 0.0424,0.0262 -0.007,0.0703 -0.007,0.0703 0.005,0.0529 0.005,0.0529 h 0.0593 0.0593 v 0.15074 0.15074 l 0.0699,0.0772 0.0699,0.0772 0.009,0.11796 0.009,0.11796 0.0523,0.0174 0.0523,0.0174 0.0177,-0.0564 0.0177,-0.0564 0.0255,-0.11641 0.0255,-0.11642 h 0.0627 0.0627 l 0.005,-0.11642 0.005,-0.11641 -0.007,-0.0714 -0.007,-0.0714 0.0896,-0.048 0.0896,-0.048 -0.0441,-0.0531 -0.0441,-0.0531 0.0498,-0.0498 0.0498,-0.0498 h 0.0966 0.0966 l 0.0209,0.0952 0.0209,0.0952 0.0117,1.10066 0.0117,1.10067 -0.12157,0.0139 -0.12158,0.0139 -0.0338,-0.0351 -0.0338,-0.0351 -0.0238,-0.50374 -0.0238,-0.50374 -0.0242,-0.0242 -0.0242,-0.0242 -0.0394,0.0623 -0.0394,0.0623 -6.3e-4,0.13265 -6.4e-4,0.13265 -0.11373,0.0217 -0.11373,0.0217 -0.0524,-0.0201 -0.0524,-0.0201 -0.0281,-0.16601 -0.028,-0.16602 h -0.0598 -0.0598 l -0.006,0.0952 -0.006,0.0952 -0.005,0.42333 -0.005,0.42334 z"
       style="display:inline;fill:#000000;stroke-width:0.0423333"
       id="path173" />
  </g>
</svg>
