<?xml version="1.0" encoding="UTF-8" standalone="no"?>
<!-- Created with Inkscape (http://www.inkscape.org/) -->

<svg
   width="1.2808501mm"
   height="2.4304299mm"
   viewBox="0 0 1.2808501 2.4304299"
   version="1.1"
   id="svg229"
   inkscape:version="1.2.2 (b0a84865, 2022-12-01)"
   sodipodi:docname="N.svg"
   xmlns:inkscape="http://www.inkscape.org/namespaces/inkscape"
   xmlns:sodipodi="http://sodipodi.sourceforge.net/DTD/sodipodi-0.dtd"
   xmlns="http://www.w3.org/2000/svg"
   xmlns:svg="http://www.w3.org/2000/svg">
  <sodipodi:namedview
     id="namedview231"
     pagecolor="#ffffff"
     bordercolor="#666666"
     borderopacity="1.0"
     inkscape:showpageshadow="2"
     inkscape:pageopacity="0.0"
     inkscape:pagecheckerboard="0"
     inkscape:deskcolor="#d1d1d1"
     inkscape:document-units="mm"
     showgrid="false"
     inkscape:zoom="0.2102413"
     inkscape:cx="-80.859469"
     inkscape:cy="4.7564393"
     inkscape:window-width="802"
     inkscape:window-height="480"
     inkscape:window-x="0"
     inkscape:window-y="25"
     inkscape:window-maximized="0"
     inkscape:current-layer="layer1" />
  <defs
     id="defs226" />
  <g
     inkscape:label="Livello 1"
     inkscape:groupmode="layer"
     id="layer1"
     transform="translate(-103.81325,-147.28474)">
    <path
       d="m 104.01028,149.70444 h -0.12033 l -0.0383,-0.0741 -0.0384,-0.0741 2.6e-4,-1.0933 2.5e-4,-1.0933 0.0956,-0.0363 0.0956,-0.0363 0.0892,0.0233 0.0892,0.0233 v 0.0752 0.0752 l 0.0635,0.0244 0.0635,0.0244 v 0.10198 0.10198 l 0.0635,0.0527 0.0635,0.0527 v 0.0553 0.0553 l 0.0583,0.0583 0.0583,0.0583 0.0297,0.13519 0.0297,0.13518 h 0.029 0.029 l 0.0122,-0.49741 0.0122,-0.49742 0.035,-0.0351 0.035,-0.0351 0.12157,0.0139 0.12157,0.0139 0.002,0.0847 0.002,0.0847 0.024,0.0423 0.024,0.0423 0.0106,0.33867 0.0106,0.33866 0.006,0.69365 0.006,0.69365 -0.0921,0.042 -0.0921,0.042 -0.0984,-0.0262 -0.0984,-0.0261 -0.0741,-0.16243 -0.0741,-0.16243 v -0.0308 -0.0308 l -0.0841,-0.1776 -0.0841,-0.17759 -0.0582,-0.0741 -0.0582,-0.0741 h -0.0217 -0.0217 l -0.008,0.41116 -0.008,0.41116 -0.0452,0.0545 -0.0452,0.0545 h -0.12033 z m 0.25769,-1.03717 0.0423,-0.0262 v -0.0398 -0.0398 h -0.0423 -0.0423 v 0.066 0.066 z"
       style="display:inline;fill:#000000;stroke-width:0.0423333"
       id="path224" />
  </g>
</svg>
