<?xml version="1.0" encoding="UTF-8" standalone="no"?>
<!-- Created with Inkscape (http://www.inkscape.org/) -->

<svg
   width="1.32031mm"
   height="2.46333mm"
   viewBox="0 0 1.32031 2.46333"
   version="1.1"
   id="svg331"
   inkscape:version="1.2.2 (b0a84865, 2022-12-01)"
   sodipodi:docname="P.svg"
   xmlns:inkscape="http://www.inkscape.org/namespaces/inkscape"
   xmlns:sodipodi="http://sodipodi.sourceforge.net/DTD/sodipodi-0.dtd"
   xmlns="http://www.w3.org/2000/svg"
   xmlns:svg="http://www.w3.org/2000/svg">
  <sodipodi:namedview
     id="namedview333"
     pagecolor="#ffffff"
     bordercolor="#666666"
     borderopacity="1.0"
     inkscape:showpageshadow="2"
     inkscape:pageopacity="0.0"
     inkscape:pagecheckerboard="0"
     inkscape:deskcolor="#d1d1d1"
     inkscape:document-units="mm"
     showgrid="false"
     inkscape:zoom="0.2102413"
     inkscape:cx="-423.3231"
     inkscape:cy="-118.91098"
     inkscape:window-width="802"
     inkscape:window-height="480"
     inkscape:window-x="0"
     inkscape:window-y="25"
     inkscape:window-maximized="0"
     inkscape:current-layer="layer1" />
  <defs
     id="defs328" />
  <g
     inkscape:label="Livello 1"
     inkscape:groupmode="layer"
     id="layer1"
     transform="translate(-194.40477,-179.98892)">
    <path
       d="m 194.63347,182.45124 -0.0741,-6.3e-4 -0.0633,-0.04 -0.0633,-0.04 -0.005,-0.43558 -0.005,-0.43558 -0.009,-0.65616 -0.009,-0.65617 0.004,-0.069 0.004,-0.069 0.48238,-0.0301 0.48237,-0.0301 0.11103,0.0728 0.11104,0.0727 -0.0474,0.0571 -0.0474,0.0571 0.11015,0.0502 0.11014,0.0502 v 0.32668 0.32669 l -0.0635,0.0527 -0.0635,0.0527 v 0.0926 0.0926 l -0.0589,0.0805 -0.0589,0.0805 -0.30922,0.0175 -0.30922,0.0175 -0.0627,0.0627 -0.0627,0.0627 -0.01,0.34483 -0.01,0.34483 -0.004,0.0741 -0.004,0.0741 -0.0741,-6.3e-4 z m 0.36531,-1.26935 h 0.24319 l 0.0857,-0.11642 0.0857,-0.11641 -0.0196,-0.26796 -0.0196,-0.26796 -0.0582,-0.0223 -0.0582,-0.0223 v -0.059 -0.059 h -0.23388 -0.23388 l -0.0343,0.0952 -0.0343,0.0952 -0.007,0.29515 -0.007,0.29516 0.0239,0.0753 0.0239,0.0753 z"
       style="display:inline;fill:#000000;stroke-width:0.0423333"
       id="path326" />
  </g>
</svg>
