<?xml version="1.0" encoding="UTF-8" standalone="no"?>
<!-- Created with Inkscape (http://www.inkscape.org/) -->

<svg
   width="1.3264199mm"
   height="2.5562mm"
   viewBox="0 0 1.3264199 2.5562"
   version="1.1"
   id="svg178"
   inkscape:version="1.2.2 (b0a84865, 2022-12-01)"
   sodipodi:docname="R.svg"
   xmlns:inkscape="http://www.inkscape.org/namespaces/inkscape"
   xmlns:sodipodi="http://sodipodi.sourceforge.net/DTD/sodipodi-0.dtd"
   xmlns="http://www.w3.org/2000/svg"
   xmlns:svg="http://www.w3.org/2000/svg">
  <sodipodi:namedview
     id="namedview180"
     pagecolor="#ffffff"
     bordercolor="#666666"
     borderopacity="1.0"
     inkscape:showpageshadow="2"
     inkscape:pageopacity="0.0"
     inkscape:pagecheckerboard="0"
     inkscape:deskcolor="#d1d1d1"
     inkscape:document-units="mm"
     showgrid="false"
     inkscape:zoom="0.2102413"
     inkscape:cx="-80.859469"
     inkscape:cy="4.7564393"
     inkscape:window-width="802"
     inkscape:window-height="480"
     inkscape:window-x="0"
     inkscape:window-y="25"
     inkscape:window-maximized="0"
     inkscape:current-layer="layer1" />
  <defs
     id="defs175" />
  <g
     inkscape:label="Livello 1"
     inkscape:groupmode="layer"
     id="layer1"
     transform="translate(-103.7899,-147.22136)">
    <path
       d="m 103.97261,149.76953 -0.10411,-0.009 -0.0393,-0.0474 -0.0393,-0.0474 0.0102,-1.13559 0.0102,-1.13558 0.0529,-0.0176 0.0529,-0.0176 v -0.06 -0.06 h 0.055 0.055 l 0.049,0.049 0.049,0.049 0.0699,-0.058 0.0699,-0.058 0.053,0.0725 0.053,0.0725 h 0.0437 0.0437 l 0.0244,-0.0635 0.0244,-0.0635 h 0.10716 0.10717 v 0.0635 0.0635 h 0.10583 0.10583 v 0.0816 0.0816 l 0.0722,0.0722 0.0722,0.0722 0.004,0.23775 0.004,0.23774 -0.10818,0.23651 -0.10819,0.2365 -0.049,-0.0165 -0.049,-0.0165 -0.0287,0.0464 -0.0287,0.0464 0.0496,0.0598 0.0496,0.0598 -0.0273,0.0442 -0.0273,0.0442 h 0.0494 0.0494 l -0.0259,0.0674 -0.0259,0.0674 0.0848,0.0222 0.0848,0.0222 v 0.15048 0.15048 l 0.0712,0.0787 0.0712,0.0787 -0.0405,0.11514 -0.0405,0.11513 h -0.079 -0.079 l -0.047,-0.0842 -0.0469,-0.0842 -0.0741,-0.10145 -0.0741,-0.10144 v -0.10104 -0.10103 l -0.10326,-0.15784 -0.10325,-0.15784 -0.0281,-0.11557 -0.0281,-0.11556 -0.0803,0.043 -0.0803,0.043 v -0.0311 -0.0311 l -0.0409,0.0409 -0.0409,0.0409 -0.005,0.42262 -0.005,0.42262 -0.0221,0.0944 -0.0221,0.0944 z m 0.5108,-1.34437 h 0.0489 l 0.12114,-0.13759 0.12114,-0.13758 0.013,-0.1905 0.013,-0.1905 -0.11003,-0.11491 -0.11003,-0.11491 -0.0377,0.0233 -0.0377,0.0233 -0.0649,-0.0538 -0.0649,-0.0538 -0.0294,0.0476 -0.0294,0.0475 -0.11556,0.0439 -0.11555,0.0439 -0.004,0.0963 -0.004,0.0963 0.008,0.1905 0.008,0.1905 0.0462,0.0559 0.0462,0.0559 0.0755,-0.0197 0.0755,-0.0197 0.0491,0.0591 0.0491,0.0591 z"
       style="display:inline;fill:#000000;stroke-width:0.0423333"
       id="path173" />
  </g>
</svg>
