<?xml version="1.0" encoding="UTF-8" standalone="no"?>
<!-- Created with Inkscape (http://www.inkscape.org/) -->

<svg
   width="1.5372601mm"
   height="2.49489mm"
   viewBox="0 0 1.5372601 2.49489"
   version="1.1"
   id="svg405"
   inkscape:version="1.2.2 (b0a84865, 2022-12-01)"
   sodipodi:docname="S.svg"
   xmlns:inkscape="http://www.inkscape.org/namespaces/inkscape"
   xmlns:sodipodi="http://sodipodi.sourceforge.net/DTD/sodipodi-0.dtd"
   xmlns="http://www.w3.org/2000/svg"
   xmlns:svg="http://www.w3.org/2000/svg">
  <sodipodi:namedview
     id="namedview407"
     pagecolor="#ffffff"
     bordercolor="#666666"
     borderopacity="1.0"
     inkscape:showpageshadow="2"
     inkscape:pageopacity="0.0"
     inkscape:pagecheckerboard="0"
     inkscape:deskcolor="#d1d1d1"
     inkscape:document-units="mm"
     showgrid="false"
     inkscape:zoom="0.2102413"
     inkscape:cx="-178.36648"
     inkscape:cy="16.647538"
     inkscape:window-width="1129"
     inkscape:window-height="685"
     inkscape:window-x="0"
     inkscape:window-y="25"
     inkscape:window-maximized="0"
     inkscape:current-layer="layer1" />
  <defs
     id="defs402" />
  <g
     inkscape:label="Livello 1"
     inkscape:groupmode="layer"
     id="layer1"
     transform="translate(-103.68349,-147.25229)">
    <path
       d="m 104.61638,149.74055 -0.0635,-0.007 -0.28417,-0.0148 -0.28417,-0.0148 -0.0862,-0.10964 -0.0863,-0.10965 v -0.0526 -0.0526 l -0.0621,-0.0515 -0.0621,-0.0515 0.005,-0.14471 0.005,-0.1447 0.0486,-0.0403 0.0486,-0.0403 0.12448,0.0333 0.12447,0.0333 0.004,0.0834 0.004,0.0834 0.0549,0.10406 0.0549,0.10406 0.0466,0.0311 0.0466,0.0311 0.11791,5.3e-4 0.1179,5.3e-4 0.10435,-0.0684 0.10434,-0.0684 v -0.20958 -0.20958 l -0.0411,-0.0768 -0.0411,-0.0768 -0.15998,-0.0688 -0.15999,-0.0686 -0.0635,-0.0397 -0.0635,-0.0397 -0.17991,-0.0741 -0.17992,-0.0741 v -0.0925 -0.0925 l -0.0635,-0.0527 -0.0635,-0.0527 v -0.24429 -0.24429 l 0.0628,-0.0241 0.0628,-0.0241 -0.0233,-0.0607 -0.0233,-0.0607 0.0969,-0.0679 0.0969,-0.0679 h 0.32293 0.32293 l 0.13332,0.0465 0.13331,0.0465 v 0.0784 0.0784 l 0.062,0.0347 0.062,0.0347 0.0121,0.14137 0.0121,0.14138 -0.0675,0.0439 -0.0675,0.0439 -0.11239,-0.0282 -0.11238,-0.0282 v -0.0859 -0.0859 l -0.11202,-0.10382 -0.11201,-0.10381 h -0.0948 -0.0948 l -0.0669,0.10203 -0.0669,0.10202 -0.0195,0.10784 -0.0196,0.10783 0.0488,0.10333 0.0488,0.10333 0.24444,0.10851 0.24444,0.10851 v 0.0394 0.0394 l 0.10583,0.0266 0.10583,0.0266 v 0.0575 0.0575 l 0.0665,0.0551 0.0664,0.0551 -0.0201,0.077 -0.0201,0.077 0.0384,0.0237 0.0384,0.0237 -0.001,0.17742 -10e-4,0.17742 -0.0622,0.0822 -0.0622,0.0822 v 0.0574 0.0574 l -0.11641,0.10247 -0.11642,0.10246 z m 0.59037,-0.0699 0.007,-0.22926 0.007,-0.22926 -0.0265,-0.0429"
       style="display:inline;fill:#000000;stroke-width:0.0423333"
       id="path400" />
  </g>
</svg>
