<?xml version="1.0" encoding="UTF-8" standalone="no"?>
<!-- Created with Inkscape (http://www.inkscape.org/) -->

<svg
   width="1.2610443mm"
   height="3.165674mm"
   viewBox="0 0 1.2610443 3.165674"
   version="1.1"
   id="svg514"
   inkscape:version="1.2.2 (b0a84865, 2022-12-01)"
   sodipodi:docname="symbol-slash.svg"
   xmlns:inkscape="http://www.inkscape.org/namespaces/inkscape"
   xmlns:sodipodi="http://sodipodi.sourceforge.net/DTD/sodipodi-0.dtd"
   xmlns="http://www.w3.org/2000/svg"
   xmlns:svg="http://www.w3.org/2000/svg">
  <sodipodi:namedview
     id="namedview516"
     pagecolor="#ffffff"
     bordercolor="#666666"
     borderopacity="1.0"
     inkscape:showpageshadow="2"
     inkscape:pageopacity="0.0"
     inkscape:pagecheckerboard="0"
     inkscape:deskcolor="#d1d1d1"
     inkscape:document-units="mm"
     showgrid="false"
     inkscape:zoom="0.2102413"
     inkscape:cx="-80.859469"
     inkscape:cy="4.7564393"
     inkscape:window-width="802"
     inkscape:window-height="480"
     inkscape:window-x="0"
     inkscape:window-y="25"
     inkscape:window-maximized="0"
     inkscape:current-layer="layer1" />
  <defs
     id="defs511" />
  <g
     inkscape:label="Livello 1"
     inkscape:groupmode="layer"
     id="layer1"
     transform="translate(-103.82292,-146.91713)">
    <path
       d="m 103.89448,150.02827 c -0.0908,-0.0689 -0.0961,-0.2276 -0.0107,-0.32191 0.0349,-0.0385 0.0678,-0.12324 0.0731,-0.18829 0.005,-0.065 0.034,-0.12756 0.0636,-0.13893 0.0309,-0.0119 0.0538,-0.0914 0.0538,-0.18679 0,-0.10863 0.022,-0.17457 0.0635,-0.1905 0.0392,-0.015 0.0635,-0.0794 0.0635,-0.16801 0,-0.079 0.0195,-0.14364 0.0434,-0.14364 0.0371,0 0.13259,-0.17368 0.14357,-0.26105 0.002,-0.0155 0.0178,-0.0425 0.0353,-0.06 0.0175,-0.0175 0.0318,-0.0929 0.0318,-0.16768 0,-0.0748 0.0246,-0.15636 0.0547,-0.18133 0.0301,-0.025 0.0596,-0.11727 0.0655,-0.2051 0.006,-0.0878 0.0371,-0.1888 0.0693,-0.22437 0.0322,-0.0356 0.0584,-0.0837 0.0583,-0.107 -1.3e-4,-0.0233 0.0193,-0.10901 0.0433,-0.1905 0.0239,-0.0815 0.0547,-0.20175 0.0683,-0.26725 0.0207,-0.0999 0.0433,-0.11695 0.13968,-0.10583 0.0986,0.0114 0.11677,0.0351 0.12777,0.16673 0.008,0.0968 -0.0115,0.17776 -0.0529,0.21923 -0.0362,0.0362 -0.0657,0.12289 -0.0657,0.19274 0,0.0699 -0.0286,0.15558 -0.0635,0.1905 -0.0349,0.0349 -0.0641,0.12678 -0.0649,0.20411 -7.9e-4,0.0773 -0.0293,0.17758 -0.0635,0.22278 -0.0342,0.0452 -0.0622,0.12503 -0.0622,0.17742 0,0.0524 -0.0191,0.10702 -0.0423,0.12141 -0.0233,0.0144 -0.0423,0.0633 -0.0423,0.10874 0,0.0454 -0.0357,0.11319 -0.0794,0.15059 -0.0437,0.0374 -0.0706,0.10166 -0.0598,0.1428 0.0108,0.0411 -0.008,0.12942 -0.0425,0.19617 -0.0341,0.0668 -0.0763,0.18804 -0.0936,0.26953 -0.0174,0.0815 -0.0503,0.16012 -0.0733,0.17473 -0.0229,0.0146 -0.0447,0.0854 -0.0483,0.15732 -0.004,0.0719 -0.0301,0.15426 -0.0588,0.18298 -0.0287,0.0287 -0.0522,0.094 -0.0522,0.14507 0,0.0511 -0.0301,0.1044 -0.067,0.11854 -0.0813,0.0312 -0.0661,0.0344 -0.15529,-0.0332 z"
       style="fill:#000000;stroke-width:0.0423333"
       id="path509" />
  </g>
</svg>
