<?xml version="1.0" encoding="UTF-8" standalone="no"?>
<!-- Created with Inkscape (http://www.inkscape.org/) -->

<svg
   width="1.4175494mm"
   height="2.4499786mm"
   viewBox="0 0 1.4175494 2.4499786"
   version="1.1"
   id="svg310"
   inkscape:version="1.2.2 (b0a84865, 2022-12-01)"
   sodipodi:docname="Et.svg"
   xmlns:inkscape="http://www.inkscape.org/namespaces/inkscape"
   xmlns:sodipodi="http://sodipodi.sourceforge.net/DTD/sodipodi-0.dtd"
   xmlns="http://www.w3.org/2000/svg"
   xmlns:svg="http://www.w3.org/2000/svg">
  <sodipodi:namedview
     id="namedview312"
     pagecolor="#ffffff"
     bordercolor="#666666"
     borderopacity="1.0"
     inkscape:showpageshadow="2"
     inkscape:pageopacity="0.0"
     inkscape:pagecheckerboard="0"
     inkscape:deskcolor="#d1d1d1"
     inkscape:document-units="mm"
     showgrid="false"
     inkscape:zoom="0.2102413"
     inkscape:cx="-80.859469"
     inkscape:cy="4.7564393"
     inkscape:window-width="804"
     inkscape:window-height="480"
     inkscape:window-x="0"
     inkscape:window-y="25"
     inkscape:window-maximized="0"
     inkscape:current-layer="layer1" />
  <defs
     id="defs307" />
  <g
     inkscape:label="Livello 1"
     inkscape:groupmode="layer"
     id="layer1"
     transform="translate(-103.74464,-147.27499)">
    <path
       d="m 104.14676,149.66294 c -0.23298,-0.12031 -0.3175,-0.24778 -0.3175,-0.47885 0,-0.12838 -0.0206,-0.21829 -0.0529,-0.23134 -0.0423,-0.0171 -0.0423,-0.022 0,-0.0247 0.0294,-0.002 0.0529,-0.0578 0.0529,-0.12582 0,-0.0674 0.0258,-0.13236 0.0573,-0.14446 0.0315,-0.0121 0.10964,-0.11128 0.17359,-0.22041 0.0846,-0.14435 0.10359,-0.21111 0.0697,-0.245 -0.0256,-0.0256 -0.0466,-0.0746 -0.0466,-0.10887 0,-0.0343 -0.0298,-0.0952 -0.0662,-0.13545 -0.0919,-0.10156 -0.0417,-0.33667 0.10752,-0.50385 0.14331,-0.16052 0.41181,-0.22473 0.47412,-0.11339 0.0215,0.0384 0.0667,0.0699 0.10052,0.0699 0.0338,0 0.0614,0.0265 0.0614,0.059 0,0.0324 0.0286,0.0699 0.0635,0.0833 0.0883,0.0339 0.0807,0.32097 -0.0115,0.43482 -0.0402,0.0497 -0.11601,0.11225 -0.16839,0.13907 -0.10995,0.0563 -0.13116,0.24635 -0.0318,0.28449 0.0349,0.0134 0.0635,0.0679 0.0635,0.12115 0,0.15111 0.11321,0.16396 0.16388,0.0186 0.0347,-0.0996 0.0682,-0.12443 0.16787,-0.12443 0.1073,0 0.12811,0.0193 0.15068,0.13958 0.0282,0.15027 -0.10554,0.49542 -0.19196,0.49542 -0.0274,0 -0.0184,0.0425 0.0222,0.10435 0.0376,0.0574 0.0684,0.13359 0.0684,0.16933 0,0.0357 0.0178,0.065 0.0395,0.065 0.0575,0 0.0414,0.24675 -0.0194,0.29723 -0.0739,0.0614 -0.18938,0.005 -0.23503,-0.11535 -0.031,-0.0816 -0.0589,-0.097 -0.13434,-0.0746 -0.0524,0.0156 -0.13014,0.074 -0.17283,0.12984 -0.0897,0.11737 -0.20839,0.12821 -0.38805,0.0354 z m 0.35935,-0.34547 c 0.1094,-0.0937 0.10793,-0.11269 -0.0312,-0.40278 -0.16759,-0.34942 -0.26399,-0.32716 -0.28448,0.0657 -0.009,0.17242 0.007,0.23994 0.0751,0.31476 0.10393,0.11442 0.13021,0.11686 0.24061,0.0223 z m -0.001,-1.37441 c 0.1,-0.10731 0.10912,-0.19866 0.0306,-0.30603 -0.0937,-0.12815 -0.21445,-0.0673 -0.24613,0.12397 -0.0431,0.26051 0.0607,0.34823 0.21552,0.18206 z"
       style="fill:#000000;stroke-width:0.0423333"
       id="path305" />
  </g>
</svg>
