<?xml version="1.0" encoding="UTF-8" standalone="no"?>
<!-- Created with Inkscape (http://www.inkscape.org/) -->

<svg
   width="1.3299391mm"
   height="1.8578608mm"
   viewBox="0 0 1.3299391 1.8578608"
   version="1.1"
   id="svg178"
   inkscape:version="1.2.2 (b0a84865, 2022-12-01)"
   sodipodi:docname="symbol-asterisk.svg"
   xmlns:inkscape="http://www.inkscape.org/namespaces/inkscape"
   xmlns:sodipodi="http://sodipodi.sourceforge.net/DTD/sodipodi-0.dtd"
   xmlns="http://www.w3.org/2000/svg"
   xmlns:svg="http://www.w3.org/2000/svg">
  <sodipodi:namedview
     id="namedview180"
     pagecolor="#ffffff"
     bordercolor="#666666"
     borderopacity="1.0"
     inkscape:showpageshadow="2"
     inkscape:pageopacity="0.0"
     inkscape:pagecheckerboard="0"
     inkscape:deskcolor="#d1d1d1"
     inkscape:document-units="mm"
     showgrid="false"
     inkscape:zoom="17.041833"
     inkscape:cx="-1.9950906"
     inkscape:cy="-54.160842"
     inkscape:window-width="811"
     inkscape:window-height="480"
     inkscape:window-x="0"
     inkscape:window-y="25"
     inkscape:window-maximized="0"
     inkscape:current-layer="layer1" />
  <defs
     id="defs175" />
  <g
     inkscape:label="Livello 1"
     inkscape:groupmode="layer"
     id="layer1"
     transform="translate(-104.45544,-147.48921)">
    <path
       d="m 105.00856,149.31877 c -0.0155,-0.0155 -0.0282,-0.12982 -0.0282,-0.254 0,-0.24421 -0.0359,-0.27455 -0.16326,-0.13787 -0.11973,0.12852 -0.31918,0.0981 -0.33649,-0.0512 -0.0139,-0.11975 0.15217,-0.29036 0.28321,-0.29099 0.0954,-4.5e-4 0.18792,-0.20731 0.12603,-0.28188 -0.0258,-0.031 -0.0806,-0.0565 -0.12186,-0.0565 -0.0413,0 -0.13223,-0.0535 -0.20218,-0.1188 -0.0985,-0.0921 -0.12227,-0.14447 -0.10537,-0.23283 0.0182,-0.0952 0.0439,-0.11404 0.15562,-0.11404 0.0824,0 0.16229,0.0332 0.20786,0.0865 0.0922,0.10766 0.16537,0.0697 0.13084,-0.0679 -0.0143,-0.0568 -0.0137,-0.15203 0.001,-0.21165 0.023,-0.0915 0.0478,-0.10636 0.15955,-0.0952 0.13854,0.0138 0.15338,0.0421 0.16771,0.32007 0.004,0.0757 0.0215,0.13759 0.0391,0.13759 0.0722,0 0.16407,-0.0534 0.14499,-0.0843 -0.0388,-0.0627 0.10357,-0.13705 0.21089,-0.11011 0.20479,0.0514 0.0966,0.37224 -0.15543,0.46088 -0.16126,0.0567 -0.17246,0.36854 -0.0132,0.36854 0.13419,0 0.27504,0.13256 0.27504,0.25887 0,0.10811 -0.0149,0.12213 -0.13003,0.12213 -0.0715,0 -0.1586,-0.0286 -0.19352,-0.0635 -0.0349,-0.0349 -0.0812,-0.0635 -0.10281,-0.0635 -0.0378,0 -0.0577,0.14966 -0.0411,0.30944 0.004,0.0421 -0.0148,0.10404 -0.0427,0.13758 -0.052,0.0627 -0.21587,0.0829 -0.26601,0.0327 z"
       style="fill:#000000;stroke-width:0.0423333"
       id="path173"
       sodipodi:nodetypes="csccccsccscccccscccssscscccc" />
  </g>
</svg>
