<?xml version="1.0" encoding="UTF-8" standalone="no"?>
<!-- Created with Inkscape (http://www.inkscape.org/) -->

<svg
   width="0.80855632mm"
   height="3.1627252mm"
   viewBox="0 0 0.80855632 3.1627252"
   version="1.1"
   id="svg887"
   inkscape:version="1.2.2 (b0a84865, 2022-12-01)"
   sodipodi:docname="symbol-bracket-round-close.svg"
   xmlns:inkscape="http://www.inkscape.org/namespaces/inkscape"
   xmlns:sodipodi="http://sodipodi.sourceforge.net/DTD/sodipodi-0.dtd"
   xmlns="http://www.w3.org/2000/svg"
   xmlns:svg="http://www.w3.org/2000/svg">
  <sodipodi:namedview
     id="namedview889"
     pagecolor="#ffffff"
     bordercolor="#666666"
     borderopacity="1.0"
     inkscape:showpageshadow="2"
     inkscape:pageopacity="0.0"
     inkscape:pagecheckerboard="0"
     inkscape:deskcolor="#d1d1d1"
     inkscape:document-units="mm"
     showgrid="false"
     inkscape:zoom="0.2102413"
     inkscape:cx="-85.615908"
     inkscape:cy="4.7564393"
     inkscape:window-width="802"
     inkscape:window-height="480"
     inkscape:window-x="0"
     inkscape:window-y="25"
     inkscape:window-maximized="0"
     inkscape:current-layer="layer1" />
  <defs
     id="defs884" />
  <g
     inkscape:label="Livello 1"
     inkscape:groupmode="layer"
     id="layer1"
     transform="translate(-104.04916,-146.91872)">
    <path
       d="m 104.18511,150.07154 c -0.12475,-0.0462 -0.1159,-0.10449 0.037,-0.24418 0.071,-0.0649 0.13212,-0.15772 0.13579,-0.20635 0.004,-0.0486 0.0198,-0.0803 0.0358,-0.0704 0.0425,0.0263 0.0803,-0.0946 0.0803,-0.25663 0,-0.0776 0.0213,-0.14827 0.0473,-0.15693 0.0744,-0.0248 0.0494,-1.03939 -0.0284,-1.1504 -0.0337,-0.0481 -0.0612,-0.14168 -0.0612,-0.20801 0,-0.0663 -0.0286,-0.14918 -0.0635,-0.1841 -0.0349,-0.0349 -0.0635,-0.10024 -0.0635,-0.14515 0,-0.0449 -0.0286,-0.0816 -0.0635,-0.0816 -0.0349,0 -0.0635,-0.0361 -0.0635,-0.0801 0,-0.0441 -0.0286,-0.0911 -0.0635,-0.1045 -0.10052,-0.0386 -0.0795,-0.22462 0.0285,-0.25288 0.11721,-0.0306 0.16199,-0.002 0.16199,0.10268 0,0.0459 0.0286,0.0945 0.0635,0.10786 0.0349,0.0134 0.0635,0.044 0.0635,0.0681 0,0.024 0.0297,0.0655 0.0661,0.092 0.0363,0.0266 0.0678,0.10964 0.0699,0.18459 0.004,0.1376 0.0506,0.18087 0.09,0.0833 0.0118,-0.0291 0.0229,0.0212 0.0247,0.11175 0.002,0.10372 0.0302,0.18433 0.076,0.2178 0.1076,0.0787 0.13897,1.15151 0.0379,1.29581 -0.0375,0.0536 -0.0682,0.14813 -0.0682,0.21014 0,0.15031 -0.085,0.30607 -0.28527,0.52242 -0.13569,0.14662 -0.18213,0.17273 -0.25763,0.1448 z"
       style="fill:#000000;stroke-width:0.0423333"
       id="path882" />
  </g>
</svg>
