<?xml version="1.0" encoding="UTF-8" standalone="no"?>
<!-- Created with Inkscape (http://www.inkscape.org/) -->

<svg
   width="1.2592896mm"
   height="2.4130898mm"
   viewBox="0 0 1.2592896 2.4130898"
   version="1.1"
   id="svg436"
   inkscape:version="1.2.2 (b0a84865, 2022-12-01)"
   sodipodi:docname="symbol-hash.svg"
   xmlns:inkscape="http://www.inkscape.org/namespaces/inkscape"
   xmlns:sodipodi="http://sodipodi.sourceforge.net/DTD/sodipodi-0.dtd"
   xmlns="http://www.w3.org/2000/svg"
   xmlns:svg="http://www.w3.org/2000/svg">
  <sodipodi:namedview
     id="namedview438"
     pagecolor="#ffffff"
     bordercolor="#666666"
     borderopacity="1.0"
     inkscape:showpageshadow="2"
     inkscape:pageopacity="0.0"
     inkscape:pagecheckerboard="0"
     inkscape:deskcolor="#d1d1d1"
     inkscape:document-units="mm"
     showgrid="false"
     inkscape:zoom="11.578581"
     inkscape:cx="8.6366372"
     inkscape:cy="2.4182584"
     inkscape:window-width="814"
     inkscape:window-height="480"
     inkscape:window-x="0"
     inkscape:window-y="25"
     inkscape:window-maximized="0"
     inkscape:current-layer="layer1" />
  <defs
     id="defs433" />
  <g
     inkscape:label="Livello 1"
     inkscape:groupmode="layer"
     id="layer1"
     transform="translate(-103.06009,-147.43786)">
    <path
       d="m 103.35029,149.81926 c -0.003,-0.0175 -0.01,-0.072 -0.0151,-0.12124 -0.005,-0.0492 -0.0261,-0.1159 -0.0462,-0.14817 -0.0201,-0.0323 -0.0314,-0.0981 -0.0252,-0.14621 0.008,-0.0607 -0.0249,-0.10402 -0.10671,-0.1413 -0.10829,-0.0493 -0.11194,-0.0582 -0.0443,-0.10764 0.0857,-0.0626 0.0974,-0.14907 0.0207,-0.15322 -0.0291,-0.002 -0.0112,-0.023 0.0399,-0.0477 0.12037,-0.0582 0.1385,-0.11263 0.1095,-0.32888 -0.0146,-0.1088 -0.0504,-0.18794 -0.0919,-0.20321 -0.0921,-0.0338 -0.1301,-0.0965 -0.13088,-0.21563 -4.4e-4,-0.0685 0.018,-0.0926 0.0589,-0.0769 0.10293,0.0395 0.18285,-0.10804 0.18992,-0.35063 0.004,-0.12909 0.0296,-0.24553 0.0586,-0.26393 0.0724,-0.046 0.16772,-0.0424 0.1383,0.005 -0.0134,0.0217 -0.005,0.0514 0.0187,0.066 0.0237,0.0146 0.043,0.0839 0.043,0.15387 0,0.18196 0.0749,0.30955 0.14669,0.24995 0.0551,-0.0457 0.12085,-0.27857 0.12591,-0.44573 0.003,-0.093 0.0219,-0.10583 0.15729,-0.10583 0.0886,0 0.089,0.002 0.0146,0.0847 -0.0421,0.0466 -0.0594,0.0848 -0.0383,0.0849 0.0211,1.5e-4 0.0708,0.0573 0.11043,0.127 0.0397,0.0697 0.0995,0.12673 0.13305,0.12673 0.11403,0 0.11947,0.13609 0.01,0.25035 -0.13487,0.14077 -0.18751,0.42921 -0.0927,0.50791 0.0369,0.0306 0.0566,0.0726 0.0439,0.0932 -0.0127,0.0206 0.007,0.0375 0.0441,0.0375 0.037,0 0.0777,0.0271 0.0904,0.0602 0.0312,0.0812 -0.0561,0.23615 -0.13308,0.23615 -0.0341,0 -0.0634,0.0143 -0.0652,0.0317 -0.002,0.0175 -0.009,0.13652 -0.0156,0.26458 -0.007,0.12806 -0.0338,0.28609 -0.06,0.35119 -0.0466,0.116 -0.0493,0.11679 -0.13193,0.0398 -0.0478,-0.0446 -0.0915,-0.15075 -0.10098,-0.24535 -0.0228,-0.2287 -0.0715,-0.39962 -0.11373,-0.39962 -0.0738,0 -0.10103,0.11496 -0.0881,0.37192 0.008,0.16542 -0.006,0.28955 -0.0381,0.32809 -0.0534,0.0644 -0.20637,0.0858 -0.21582,0.0302 z m 0.4113,-1.47662 c -0.0122,-0.0319 -0.0406,-0.058 -0.0631,-0.058 -0.0447,0 -0.0704,0.0693 -0.11099,0.299 -0.023,0.13027 -0.0132,0.15687 0.0718,0.19502 0.0951,0.0427 0.0989,0.0369 0.11146,-0.16696 0.007,-0.11613 0.003,-0.23722 -0.009,-0.2691 z"
       style="fill:#000000;stroke-width:0.0423333"
       id="path431"
       sodipodi:nodetypes="cccccccccccccccssccscccsccsscscccccscccccsccccc" />
  </g>
</svg>
