<?xml version="1.0" encoding="UTF-8" standalone="no"?>
<!-- Created with Inkscape (http://www.inkscape.org/) -->

<svg
   width="4.6072602mm"
   height="2.9154706mm"
   viewBox="0 0 4.6072602 2.9154706"
   version="1.1"
   id="svg371"
   inkscape:version="1.2.2 (b0a84865, 2022-12-01)"
   sodipodi:docname="symbol-proprietary-rt.svg"
   xmlns:inkscape="http://www.inkscape.org/namespaces/inkscape"
   xmlns:sodipodi="http://sodipodi.sourceforge.net/DTD/sodipodi-0.dtd"
   xmlns="http://www.w3.org/2000/svg"
   xmlns:svg="http://www.w3.org/2000/svg">
  <sodipodi:namedview
     id="namedview373"
     pagecolor="#ffffff"
     bordercolor="#666666"
     borderopacity="1.0"
     inkscape:showpageshadow="2"
     inkscape:pageopacity="0.0"
     inkscape:pagecheckerboard="0"
     inkscape:deskcolor="#d1d1d1"
     inkscape:document-units="mm"
     showgrid="false"
     inkscape:zoom="0.2102413"
     inkscape:cx="-76.103029"
     inkscape:cy="4.7564393"
     inkscape:window-width="802"
     inkscape:window-height="480"
     inkscape:window-x="0"
     inkscape:window-y="25"
     inkscape:window-maximized="0"
     inkscape:current-layer="layer1" />
  <defs
     id="defs368" />
  <g
     inkscape:label="Livello 1"
     inkscape:groupmode="layer"
     id="layer1"
     transform="translate(-102.14976,-147.04213)">
    <path
       d="m 102.24616,149.8799 -0.0964,-0.078 0.0993,-0.20773 c 0.0546,-0.11425 0.11016,-0.21725 0.12341,-0.22889 0.0132,-0.0117 0.0305,-0.0593 0.0383,-0.10584 0.008,-0.0466 0.0507,-0.12399 0.0953,-0.17206 0.0446,-0.0481 0.081,-0.12903 0.081,-0.17992 0,-0.0509 0.0175,-0.0925 0.039,-0.0925 0.0214,0 0.0515,-0.0572 0.0669,-0.127 0.0153,-0.0699 0.0454,-0.127 0.0669,-0.127 0.0214,0 0.039,-0.0292 0.039,-0.0648 0,-0.0357 0.0286,-0.0758 0.0635,-0.0892 0.0349,-0.0134 0.0635,-0.0562 0.0635,-0.0951 0,-0.0389 0.0389,-0.10404 0.0865,-0.14476 0.0476,-0.0407 0.0732,-0.0955 0.057,-0.12167 -0.0162,-0.0262 0.004,-0.0717 0.0438,-0.10114 0.0403,-0.0294 0.0781,-0.0789 0.0841,-0.11 0.019,-0.0984 0.12774,-0.30884 0.18226,-0.35281 0.0289,-0.0233 0.0581,-0.11853 0.0649,-0.21166 l 0.0124,-0.16934 0.35891,-0.008 c 0.45936,-0.0102 0.54942,0.009 0.54942,0.11459 0,0.0538 0.0285,0.0839 0.0794,0.0839 0.0436,0 0.13695,0.0115 0.20733,0.0256 0.11607,0.0232 0.13057,0.0137 0.15614,-0.10275 0.0268,-0.12206 0.041,-0.12965 0.29009,-0.15503 0.14404,-0.0147 0.57622,-0.0208 0.9604,-0.0137 l 0.6985,0.013 v 0.1905 0.1905 l -0.37042,0.0122 c -0.20373,0.007 -0.37042,0.0297 -0.37042,0.051 0,0.0213 -0.0476,0.0864 -0.10583,0.1446 -0.0582,0.0582 -0.10644,0.13051 -0.10718,0.16067 -7.4e-4,0.0302 -0.0293,0.0918 -0.0635,0.13702 -0.0342,0.0452 -0.0622,0.10791 -0.0622,0.13937 0,0.0315 -0.0188,0.0802 -0.0417,0.10832 -0.12829,0.15732 -0.24289,0.32227 -0.31495,0.4533 -0.0448,0.0815 -0.10025,0.1607 -0.1232,0.17603 -0.0229,0.0153 -0.0446,0.0629 -0.0481,0.10583 -0.004,0.0429 -0.029,0.11958 -0.0567,0.17044 -0.0277,0.0509 -0.0503,0.12289 -0.0503,0.16008 0,0.0372 -0.0286,0.0786 -0.0635,0.092 -0.0349,0.0134 -0.0635,0.0598 -0.0635,0.1032 0,0.0623 -0.13546,0.37774 -0.1965,0.45755 -0.007,0.009 -0.0713,-0.008 -0.14317,-0.0379 -0.0981,-0.0406 -0.14278,-0.0421 -0.17915,-0.006 -0.0266,0.0266 -0.0999,0.0485 -0.16284,0.0485 -0.0853,0 -0.12629,-0.0297 -0.16108,-0.11642 -0.0257,-0.064 -0.0942,-0.20037 -0.15231,-0.30299 -0.0581,-0.10262 -0.10562,-0.21935 -0.10562,-0.2594 0,-0.0401 -0.0286,-0.0965 -0.0635,-0.12553 -0.0349,-0.029 -0.0635,-0.0847 -0.0635,-0.12371 0,-0.0391 -0.0213,-0.0923 -0.0472,-0.11826 -0.026,-0.026 -0.0692,-0.0913 -0.096,-0.14516 -0.0418,-0.0838 -0.0761,-0.0962 -0.23852,-0.0857 -0.24118,0.0156 -0.46853,0.22284 -0.43527,0.39682 0.0114,0.0596 -1.3e-4,0.12128 -0.0256,0.13702 -0.0255,0.0157 -0.0463,0.0669 -0.0463,0.11362 0,0.0468 -0.0476,0.14743 -0.10583,0.22375 -0.0582,0.0763 -0.10584,0.17029 -0.10584,0.20884 0,0.074 -0.14303,0.23942 -0.20697,0.23942 -0.0207,0 -0.081,-0.0351 -0.134,-0.078 z m 2.25322,-0.28837 c 0.0426,-0.0385 0.0774,-0.10288 0.0774,-0.14298 0,-0.0401 0.0286,-0.0966 0.0635,-0.12563 0.0349,-0.029 0.0635,-0.0873 0.0635,-0.12968 0,-0.0423 0.019,-0.0888 0.0423,-0.10315 0.0233,-0.0144 0.0423,-0.0897 0.0423,-0.1673 0,-0.0864 0.0246,-0.15059 0.0635,-0.16551 0.0349,-0.0134 0.0635,-0.0607 0.0635,-0.10518 0,-0.0444 0.0286,-0.10453 0.0635,-0.13351 0.0349,-0.029 0.0635,-0.0789 0.0635,-0.11102 0,-0.0321 0.0191,-0.0583 0.0423,-0.0583 0.0233,0 0.0423,-0.0476 0.0423,-0.10584 0,-0.0582 0.0177,-0.10583 0.0392,-0.10583 0.0216,0 0.0657,-0.0524 0.098,-0.11642 0.0978,-0.19352 0.17837,-0.32671 0.21341,-0.35263 0.0183,-0.0135 0.0215,-0.0551 0.007,-0.0924 -0.0211,-0.055 -0.0906,-0.067 -0.36677,-0.0636 -0.27479,0.003 -0.32738,0.0141 -0.27173,0.0547 0.0478,0.0349 0.069,0.11522 0.069,0.26066 0,0.16752 -0.0208,0.22971 -0.10225,0.30626 -0.0562,0.0528 -0.11338,0.1404 -0.12698,0.19459 -0.0219,0.0873 -0.21315,0.19229 -0.3846,0.21113 -0.0233,0.003 -0.0757,0.0179 -0.11642,0.034 -0.0408,0.0161 -0.10309,0.0384 -0.13854,0.0495 -0.0996,0.0312 -0.12252,0.14413 -0.0464,0.22822 0.0378,0.0418 0.0589,0.0857 0.047,0.0977 -0.0322,0.0322 0.14577,0.41586 0.19291,0.41586 0.0222,0 0.0403,0.0298 0.0403,0.0663 0,0.0779 0.0758,0.23005 0.11457,0.23005 0.0148,0 0.0618,-0.0315 0.10435,-0.0701 z m -0.53853,-1.28986 c 0.0221,-0.0204 0.0893,-0.0371 0.14933,-0.0371 0.1751,0 0.37862,-0.16717 0.41231,-0.33867 0.0582,-0.2961 -0.15172,-0.48789 -0.46906,-0.4286 -0.10678,0.0199 -0.24226,0.0271 -0.30106,0.0158 -0.0854,-0.0163 -0.1069,-0.003 -0.1069,0.064 0,0.0464 -0.0286,0.10813 -0.0635,0.13712 -0.0349,0.029 -0.0635,0.0891 -0.0635,0.13351 0,0.0444 -0.0286,0.0918 -0.0635,0.10518 -0.0349,0.0134 -0.0635,0.0676 -0.0635,0.12048 0,0.0529 -0.0303,0.12127 -0.0673,0.152 -0.0614,0.051 -0.0612,0.0603 0.002,0.10679 0.0771,0.0564 0.5656,0.0329 0.6344,-0.0306 z"
       style="fill:#000000;stroke-width:0.0423333"
       id="path366" />
  </g>
</svg>
