<?xml version="1.0" encoding="UTF-8" standalone="no"?>
<!-- Created with Inkscape (http://www.inkscape.org/) -->

<svg
   width="1.35093mm"
   height="2.4765401mm"
   viewBox="0 0 1.35093 2.4765401"
   version="1.1"
   id="svg390"
   inkscape:version="1.2.2 (b0a84865, 2022-12-01)"
   sodipodi:docname="T.svg"
   xmlns:inkscape="http://www.inkscape.org/namespaces/inkscape"
   xmlns:sodipodi="http://sodipodi.sourceforge.net/DTD/sodipodi-0.dtd"
   xmlns="http://www.w3.org/2000/svg"
   xmlns:svg="http://www.w3.org/2000/svg">
  <sodipodi:namedview
     id="namedview392"
     pagecolor="#ffffff"
     bordercolor="#666666"
     borderopacity="1.0"
     inkscape:showpageshadow="2"
     inkscape:pageopacity="0.0"
     inkscape:pagecheckerboard="0"
     inkscape:deskcolor="#d1d1d1"
     inkscape:document-units="mm"
     showgrid="false"
     inkscape:zoom="0.2102413"
     inkscape:cx="-80.859469"
     inkscape:cy="4.7564393"
     inkscape:window-width="802"
     inkscape:window-height="480"
     inkscape:window-x="0"
     inkscape:window-y="25"
     inkscape:window-maximized="0"
     inkscape:current-layer="layer1" />
  <defs
     id="defs387" />
  <g
     inkscape:label="Livello 1"
     inkscape:groupmode="layer"
     id="layer1"
     transform="translate(-103.77854,-147.26161)">
    <path
       d="m 104.49087,149.73334 -0.0134,-0.005 -0.0741,-0.0194 -0.0741,-0.0194 -0.004,-0.0922 -0.004,-0.0921 -0.003,-0.21167 -0.003,-0.21166 0.004,-0.16934 0.004,-0.16933 -0.0105,-0.52917 -0.0105,-0.52916 -0.0314,-0.0952 -0.0314,-0.0953 h -0.18246 -0.18247 l -0.048,-0.0579 -0.048,-0.0579 0.0546,-0.0453 0.0546,-0.0453 0.58216,-0.0132 0.58217,-0.0132 0.0387,0.0621 0.0387,0.0621 -0.0451,0.0543 -0.0451,0.0543 h -0.18038 -0.18038 l -0.0215,0.0824 -0.0215,0.0824 0.0181,0.99487 0.0181,0.99487 -0.0833,0.0446 -0.0833,0.0446 -0.0134,-0.005 z"
       style="display:inline;fill:#000000;stroke-width:0.0423333"
       id="path385" />
  </g>
</svg>
