<?xml version="1.0" encoding="UTF-8" standalone="no"?>
<!-- Created with Inkscape (http://www.inkscape.org/) -->

<svg
   width="1.37983mm"
   height="2.4511199mm"
   viewBox="0 0 1.37983 2.4511199"
   version="1.1"
   id="svg441"
   inkscape:version="1.2.2 (b0a84865, 2022-12-01)"
   sodipodi:docname="U.svg"
   xmlns:inkscape="http://www.inkscape.org/namespaces/inkscape"
   xmlns:sodipodi="http://sodipodi.sourceforge.net/DTD/sodipodi-0.dtd"
   xmlns="http://www.w3.org/2000/svg"
   xmlns:svg="http://www.w3.org/2000/svg">
  <sodipodi:namedview
     id="namedview443"
     pagecolor="#ffffff"
     bordercolor="#666666"
     borderopacity="1.0"
     inkscape:showpageshadow="2"
     inkscape:pageopacity="0.0"
     inkscape:pagecheckerboard="0"
     inkscape:deskcolor="#d1d1d1"
     inkscape:document-units="mm"
     showgrid="false"
     inkscape:zoom="0.2102413"
     inkscape:cx="-80.859469"
     inkscape:cy="4.7564393"
     inkscape:window-width="802"
     inkscape:window-height="480"
     inkscape:window-x="0"
     inkscape:window-y="25"
     inkscape:window-maximized="0"
     inkscape:current-layer="layer1" />
  <defs
     id="defs438" />
  <g
     inkscape:label="Livello 1"
     inkscape:groupmode="layer"
     id="layer1"
     transform="translate(-103.76415,-147.27437)">
    <path
       d="m 104.43053,149.72549 h -0.32558 l -0.0822,-0.0953 -0.0822,-0.0952 -0.0882,-0.12732 -0.0882,-0.12732 0.004,-0.97335 0.004,-0.97334 h 0.14816 0.14817 l 0.007,0.10583 0.007,0.10583 0.0246,0.84318 0.0246,0.84318 0.0662,0.0731 0.0662,0.0731 0.13504,0.0206 0.13503,0.0207 0.11641,-0.0677 0.11642,-0.0677 0.002,-0.21312 0.002,-0.21312 -0.003,-0.74904 -0.003,-0.74903 0.0795,-0.0425 0.0795,-0.0426 0.0915,0.0239 0.0915,0.0239 0.003,0.11148 0.003,0.11148 0.0155,0.84046 0.0155,0.84046 -0.0862,0.16545 -0.0862,0.16544 -0.10701,0.0842 -0.10701,0.0842 h -0.32558 z"
       style="display:inline;fill:#000000;stroke-width:0.0423333"
       id="path436" />
  </g>
</svg>
