<?xml version="1.0" encoding="UTF-8" standalone="no"?>
<!-- Created with Inkscape (http://www.inkscape.org/) -->

<svg
   width="1.30283mm"
   height="2.3287001mm"
   viewBox="0 0 1.30283 2.3287001"
   version="1.1"
   id="svg541"
   inkscape:version="1.2.2 (b0a84865, 2022-12-01)"
   sodipodi:docname="V.svg"
   xmlns:inkscape="http://www.inkscape.org/namespaces/inkscape"
   xmlns:sodipodi="http://sodipodi.sourceforge.net/DTD/sodipodi-0.dtd"
   xmlns="http://www.w3.org/2000/svg"
   xmlns:svg="http://www.w3.org/2000/svg">
  <sodipodi:namedview
     id="namedview543"
     pagecolor="#ffffff"
     bordercolor="#666666"
     borderopacity="1.0"
     inkscape:showpageshadow="2"
     inkscape:pageopacity="0.0"
     inkscape:pagecheckerboard="0"
     inkscape:deskcolor="#d1d1d1"
     inkscape:document-units="mm"
     showgrid="false"
     inkscape:zoom="0.2102413"
     inkscape:cx="-80.859469"
     inkscape:cy="4.7564393"
     inkscape:window-width="802"
     inkscape:window-height="480"
     inkscape:window-x="0"
     inkscape:window-y="25"
     inkscape:window-maximized="0"
     inkscape:current-layer="layer1" />
  <defs
     id="defs538" />
  <g
     inkscape:label="Livello 1"
     inkscape:groupmode="layer"
     id="layer1"
     transform="translate(-103.80194,-147.33547)">
    <path
       d="m 104.46205,149.66417 h -0.12451 l -0.0214,-0.0347 -0.0214,-0.0347 0.0191,-0.15402 0.0191,-0.15402 -0.0769,-0.0759 -0.0769,-0.0759 -0.008,-0.11919 -0.008,-0.1192 -0.0611,-0.0611 -0.0611,-0.0611 0.002,-0.15838 0.002,-0.15839 -0.0532,-0.1905 -0.0532,-0.1905 -0.006,-0.0977 -0.006,-0.0977 -0.0543,-0.0336 -0.0543,-0.0335 -0.008,-0.22856 -0.008,-0.22856 h 0.127 0.127 l 0.014,0.1478 0.014,0.1478 0.044,0.0272 0.044,0.0272 0.007,0.26953 0.007,0.26953 0.0724,0.10812 0.0724,0.10811 -0.0149,0.19839 -0.0149,0.19838 0.0486,0.0403 0.0486,0.0403 0.0621,-0.0124 0.0621,-0.0124 0.073,-0.0317 0.073,-0.0317 -0.0574,-0.0574 -0.0574,-0.0574 -0.002,-0.16838 -0.002,-0.16837 0.0608,-0.0505 0.0608,-0.0505 v -0.25474 -0.25473 l 0.0686,-0.0502 0.0686,-0.0502 -0.002,-0.17676 -0.002,-0.17676 h 0.12501 0.12502 l -0.006,0.11641 -0.006,0.11642 0.0312,0.0738 0.0312,0.0738 -0.0785,0.032 -0.0785,0.032 -0.0114,0.0554 -0.0114,0.0554 -0.005,0.21935 -0.005,0.21934 -0.0576,0.0428 -0.0576,0.0428 -0.007,0.10583 -0.007,0.10583 0.0305,0.0927 0.0305,0.0927 -0.0863,0.0462 -0.0863,0.0462 0.0191,0.14888 0.0191,0.14887 -0.0618,0.0237 -0.0618,0.0237 v 0.20714 0.20714 z"
       style="display:inline;fill:#000000;stroke-width:0.0423333"
       id="path536" />
  </g>
</svg>
