<?xml version="1.0" encoding="UTF-8" standalone="no"?>
<!-- Created with Inkscape (http://www.inkscape.org/) -->

<svg
   width="1.3031801mm"
   height="2.5656285mm"
   viewBox="0 0 1.3031801 2.5656285"
   version="1.1"
   id="svg238"
   inkscape:version="1.2.2 (b0a84865, 2022-12-01)"
   sodipodi:docname="Y.svg"
   xmlns:inkscape="http://www.inkscape.org/namespaces/inkscape"
   xmlns:sodipodi="http://sodipodi.sourceforge.net/DTD/sodipodi-0.dtd"
   xmlns="http://www.w3.org/2000/svg"
   xmlns:svg="http://www.w3.org/2000/svg">
  <sodipodi:namedview
     id="namedview240"
     pagecolor="#ffffff"
     bordercolor="#666666"
     borderopacity="1.0"
     inkscape:showpageshadow="2"
     inkscape:pageopacity="0.0"
     inkscape:pagecheckerboard="0"
     inkscape:deskcolor="#d1d1d1"
     inkscape:document-units="mm"
     showgrid="false"
     inkscape:zoom="0.2102413"
     inkscape:cx="-80.859469"
     inkscape:cy="4.7564393"
     inkscape:window-width="802"
     inkscape:window-height="480"
     inkscape:window-x="0"
     inkscape:window-y="25"
     inkscape:window-maximized="0"
     inkscape:current-layer="layer1" />
  <defs
     id="defs235" />
  <g
     inkscape:label="Livello 1"
     inkscape:groupmode="layer"
     id="layer1"
     transform="translate(-103.80179,-147.21717)">
    <path
       d="m 104.37998,149.71757 c -0.0409,-0.0493 -0.0586,-0.20266 -0.0597,-0.51858 -0.002,-0.42044 -0.01,-0.46313 -0.13165,-0.68138 -0.0715,-0.12806 -0.12224,-0.25466 -0.11273,-0.28134 0.01,-0.0267 -0.0217,-0.11241 -0.0693,-0.1905 -0.0476,-0.0781 -0.0866,-0.19764 -0.0867,-0.26566 -8e-5,-0.068 -0.0305,-0.15722 -0.0676,-0.19824 -0.0985,-0.10879 -0.0424,-0.34407 0.0776,-0.32611 0.0479,0.007 0.10726,0.0511 0.13199,0.0977 0.0247,0.0466 0.0791,0.13629 0.12074,0.19937 0.0417,0.0631 0.0758,0.17263 0.0758,0.24342 0,0.0708 0.0179,0.12871 0.0397,0.12871 0.0219,0 0.0526,0.0857 0.0683,0.1905 0.0416,0.27754 0.17171,0.25789 0.21753,-0.0329 0.0116,-0.0734 0.0478,-0.17175 0.0806,-0.21849 0.0327,-0.0467 0.0595,-0.12837 0.0595,-0.1814 0,-0.053 0.019,-0.0964 0.0423,-0.0964 0.0233,0 0.0423,-0.0535 0.0423,-0.11891 0,-0.17123 0.0908,-0.2793 0.20431,-0.24326 0.076,0.0241 0.092,0.0615 0.092,0.21435 0,0.10184 -0.0191,0.19693 -0.0423,0.21132 -0.0233,0.0144 -0.0423,0.0798 -0.0423,0.14548 0,0.0656 -0.0286,0.14303 -0.0635,0.17202 -0.0361,0.03 -0.0635,0.1223 -0.0635,0.21435 0,0.0889 -0.0192,0.17351 -0.0426,0.18801 -0.0235,0.0145 -0.0811,0.10584 -0.12799,0.20298 -0.0707,0.14631 -0.084,0.25113 -0.0773,0.61065 0.007,0.36757 -0.004,0.44705 -0.0691,0.51918 -0.0935,0.10337 -0.12137,0.10551 -0.19635,0.0151 z"
       style="fill:#000000;stroke-width:0.0423333"
       id="path233" />
  </g>
</svg>
