<?xml version="1.0" encoding="UTF-8" standalone="no"?>
<!-- Created with Inkscape (http://www.inkscape.org/) -->

<svg
   width="1.22697mm"
   height="2.4282999mm"
   viewBox="0 0 1.22697 2.4282999"
   version="1.1"
   id="svg592"
   inkscape:version="1.2.2 (b0a84865, 2022-12-01)"
   sodipodi:docname="Z.svg"
   xmlns:inkscape="http://www.inkscape.org/namespaces/inkscape"
   xmlns:sodipodi="http://sodipodi.sourceforge.net/DTD/sodipodi-0.dtd"
   xmlns="http://www.w3.org/2000/svg"
   xmlns:svg="http://www.w3.org/2000/svg">
  <sodipodi:namedview
     id="namedview594"
     pagecolor="#ffffff"
     bordercolor="#666666"
     borderopacity="1.0"
     inkscape:showpageshadow="2"
     inkscape:pageopacity="0.0"
     inkscape:pagecheckerboard="0"
     inkscape:deskcolor="#d1d1d1"
     inkscape:document-units="mm"
     showgrid="false"
     inkscape:zoom="0.2102413"
     inkscape:cx="-85.615908"
     inkscape:cy="4.7564393"
     inkscape:window-width="802"
     inkscape:window-height="480"
     inkscape:window-x="0"
     inkscape:window-y="25"
     inkscape:window-maximized="0"
     inkscape:current-layer="layer1" />
  <defs
     id="defs589" />
  <g
     inkscape:label="Livello 1"
     inkscape:groupmode="layer"
     id="layer1"
     transform="translate(-103.83958,-147.28573)">
    <path
       d="m 104.45584,149.70343 -0.51046,0.0106 -0.0529,-0.0217 -0.0529,-0.0217 v -0.16062 -0.16062 l 0.0635,-0.0527 0.0635,-0.0527 v -0.0743 -0.0743 l 0.0635,-0.0527 0.0635,-0.0527 v -0.16415 -0.16415 h 0.0342 0.0342 l 0.0796,-0.17991 0.0796,-0.17992 0.0112,-0.103 0.0112,-0.10299 0.0656,-0.0367 0.0656,-0.0367 v -0.16473 -0.16474 l 0.0423,-0.0262 0.0423,-0.0262 v -0.061 -0.061 l -0.24341,-6.4e-4 -0.24342,-6.3e-4 -0.0591,-0.0374 -0.0591,-0.0374 0.0248,-0.0646 0.0248,-0.0646 0.3518,-0.0138 0.3518,-0.0138 0.14001,0.0134 0.14001,0.0134 0.0253,0.0659 0.0253,0.0659 -0.07,0.0392 -0.07,0.0392 v 0.0805 0.0805 l -0.0688,0.0385 -0.0688,0.0385 8.2e-4,0.12236 8.2e-4,0.12236 -0.063,0.0712 -0.063,0.0712 0.0273,0.12447 0.0273,0.12448 -0.0657,0.0252 -0.0657,0.0252 v 0.10198 0.10197 l -0.0606,0.0503 -0.0606,0.0503 0.003,0.12277 0.003,0.12276 -0.0543,0.0655 -0.0543,0.0655 -0.0133,0.1159 -0.0133,0.1159 0.30277,0.0137 0.30277,0.0137 0.076,0.0407 0.076,0.0407 v 0.0807 0.0807 l -0.0504,0.0312 -0.0505,0.0312 -0.51046,0.0106 z"
       style="display:inline;fill:#000000;stroke-width:0.0423333"
       id="path587" />
  </g>
</svg>
